<?xml version="1.0" encoding="utf-8"?>
<!DOCTYPE svg PUBLIC "-//W3C//DTD SVG 1.0//EN" "http://www.w3.org/TR/2001/REC-SVG-20010904/DTD/svg10.dtd">
<svg version="1.0" xmlns="http://www.w3.org/2000/svg" width="2160px" height="314px" viewBox="0 0 2160 314" preserveAspectRatio="xMidYMid meet">
 <g fill="none">
  <path d="M0 157 l0 -157 1080 0 1080 0 0 157 0 157 -720.60 0 c-424.10 0 -721.90 -0.20 -723.65 -0.45 -7.35 -1.10 -7.25 -1.10 -7.25 -0.30 0 0.65 -38.45 0.75 -354.25 0.75 l-354.25 0 0 -157z m705.60 150.25 c0.20 -1.70 0.15 -1.75 -1.45 -1.75 l-1.60 0 1.20 1.25 c0.70 0.65 1.25 1.45 1.25 1.75 0 1.20 0.40 0.35 0.60 -1.25z m91.15 -1.75 c1.10 -0.30 0.45 -0.40 -2.25 -0.40 -2.55 0 -3.35 0.15 -2.50 0.40 1.55 0.50 2.80 0.50 4.75 0z m51.50 0 c1.05 -0.25 0.30 -0.40 -2.50 -0.40 -2.80 0 -3.55 0.15 -2.50 0.40 0.85 0.20 1.95 0.40 2.50 0.40 0.55 0 1.70 -0.20 2.50 -0.40z m66.50 0 c0.70 -0.30 -0.10 -0.45 -2.50 -0.40 -2.50 0 -3.15 0.10 -2.25 0.40 1.65 0.55 3.50 0.55 4.75 0z m65 0 c1.05 -0.25 0.30 -0.40 -2.50 -0.40 -2.80 0 -3.55 0.15 -2.50 0.40 0.85 0.20 1.95 0.40 2.50 0.40 0.55 0 1.70 -0.20 2.50 -0.40z m30.25 0 c0.90 -0.30 0.20 -0.40 -2.25 -0.40 -2.45 0 -3.15 0.10 -2.25 0.40 0.70 0.20 1.70 0.40 2.25 0.40 0.55 0 1.55 -0.20 2.25 -0.40z m280 0 c0.90 -0.30 0.20 -0.40 -2.25 -0.40 -2.45 0 -3.15 0.10 -2.25 0.40 0.70 0.20 1.70 0.40 2.25 0.40 0.55 0 1.55 -0.20 2.25 -0.40z m102.25 0 c1.05 -0.25 0.30 -0.40 -2.50 -0.40 -2.80 0 -3.55 0.15 -2.50 0.40 0.85 0.20 1.95 0.40 2.50 0.40 0.55 0 1.70 -0.20 2.50 -0.40z m215.50 0 c1.10 -0.30 0.45 -0.40 -2.25 -0.40 -2.55 0 -3.35 0.15 -2.50 0.40 1.55 0.50 2.80 0.50 4.75 0z m-1101.30 -9.85 c-0.05 -5.45 -0.20 -11.15 -0.45 -12.65 -0.20 -1.75 -0.40 1.75 -0.45 9.90 0 8.10 0.15 12.60 0.45 12.60 0.30 0 0.50 -3.60 0.45 -9.85z m24.55 -5.65 l0 -15.50 -1.20 0 c-1.10 0 -1.80 0.80 -1.80 2.05 0 0.25 0.60 0.45 1.30 0.45 l1.35 0 -0.35 3.15 c-0.15 1.70 -0.45 8.10 -0.65 14.25 -0.30 10.10 -0.25 11.10 0.50 11.10 0.75 0 0.85 -1.40 0.85 -15.50z m29.80 11.70 c-1.35 -3.85 -1.75 -3.80 -0.50 0.10 0.45 1.35 0.90 2.75 1 3.15 0.10 0.40 0.35 0.60 0.45 0.45 0.15 -0.10 -0.30 -1.80 -0.95 -3.70z m10.70 -1.35 c0 -4.65 0.10 -5.30 1.25 -7 l1.30 -1.85 -1.30 0 -1.25 0 0 -8.50 c0 -5.35 -0.20 -8.50 -0.50 -8.50 -0.30 0 -0.50 5.50 -0.50 15.50 0 10 0.20 15.50 0.50 15.50 0.30 0 0.50 -2.05 0.50 -5.15z m45.40 4.90 c-0.15 -0.15 -3.70 -0.35 -7.95 -0.40 l-7.70 -0.10 -0.15 -7.60 -0.15 -7.65 6.60 0 c3.65 0 6.45 -0.15 6.25 -0.35 -0.20 -0.25 -3.10 -0.40 -6.45 -0.40 l-6.10 0 -0.15 -6.85 -0.15 -6.90 7.85 0 c4.35 0 7.75 -0.10 7.65 -0.20 -0.10 -0.10 -3.85 -0.30 -8.30 -0.40 l-8.15 -0.15 0 15.60 0 15.65 8.60 0 c4.70 0 8.45 -0.10 8.30 -0.25z m21.10 -7 l0 -7.25 4.65 0 c4.40 0 4.75 0.05 5.20 1.10 0.50 1.10 0.50 1.10 0.70 -0.35 l0.25 -1.50 -5.40 0.15 -5.40 0.15 0 -7.75 0 -7.75 1.40 -0.20 c0.95 -0.15 0.70 -0.20 -0.75 -0.30 l-2.15 -0.05 0 15.50 c0 13.45 0.10 15.50 0.75 15.50 0.65 0 0.75 -1.15 0.75 -7.25z m37.75 6.75 l-8 -0.25 -0.15 -7.60 -0.15 -7.65 6.65 -0.10 6.65 -0.10 -6.50 -0.30 -6.50 -0.25 -0.15 -6.85 -0.15 -6.85 7.90 -0.20 7.90 -0.15 -8.35 -0.10 -8.40 -0.10 0 15.50 0 15.50 8.65 -0.10 8.60 -0.10 -8 -0.30z m101.15 0.25 c-0.10 -0.15 -3.60 -0.25 -7.75 -0.30 l-7.50 -0.05 -0.25 -7.35 c-0.15 -4 -0.20 -7.45 -0.05 -7.65 0.10 -0.25 3.05 -0.40 6.50 -0.40 3.50 0 6.20 -0.10 6.10 -0.25 -0.15 -0.10 -2.95 -0.30 -6.25 -0.35 l-5.95 -0.15 -0.35 -6.25 c-0.20 -3.45 -0.25 -6.55 -0.15 -6.85 0.15 -0.50 2.25 -0.65 7.85 -0.70 5.05 -0.05 7 -0.20 5.65 -0.45 -1.05 -0.20 -4.85 -0.25 -8.35 -0.10 l-6.40 0.25 0 15.40 0 15.45 8.60 0 c4.70 0 8.45 -0.10 8.30 -0.25z m44.55 -14.85 l-0.20 -15.15 5.25 -0.30 c2.90 -0.15 4.25 -0.30 3 -0.35 -9.30 -0.50 -14.65 -0.55 -17.25 -0.20 -2.90 0.45 -2.80 0.50 2.40 0.55 l5.35 0.05 0 15.25 c0 13.65 0.10 15.25 0.80 15.25 0.70 0 0.80 -1.50 0.65 -15.10z m62.05 -0.15 l0 -15.25 5.40 -0.05 5.35 -0.10 -5.25 -0.35 c-2.90 -0.25 -7.95 -0.25 -11.25 -0.05 l-6 0.40 5.40 0.10 5.35 0.05 0 15.25 c0 9.85 0.20 15.25 0.50 15.25 0.30 0 0.50 -5.40 0.50 -15.25z m147.90 1.25 l-0.20 -14 1.40 0 1.35 0 -0.85 -1.50 c-0.45 -0.80 -1.25 -1.50 -1.70 -1.50 -0.85 0 -0.90 1.05 -0.90 15.50 0 11.10 0.15 15.50 0.55 15.50 0.40 0 0.50 -3.85 0.35 -14z m20.60 -1.50 c0 -10 -0.20 -15.50 -0.50 -15.50 -0.30 0 -0.50 4.90 -0.50 13.70 l0 13.75 -1.25 0.15 -1.25 0.15 1 1.65 c0.55 0.85 1.35 1.60 1.75 1.60 0.65 0 0.75 -2 0.75 -15.50z m12.85 14.70 c0.45 -1.15 -0.65 -2 -1.60 -1.20 -0.60 0.50 -0.65 0.80 -0.20 1.30 0.75 0.90 1.40 0.90 1.80 -0.10z m29.85 -1.55 c-0.75 -2.40 -1.60 -3.85 -1 -1.65 0.15 0.70 0.45 1.85 0.60 2.65 0.20 0.75 0.50 1.35 0.70 1.35 0.25 0 0.10 -1.05 -0.30 -2.35z m10.30 -4.40 l0 -6.75 4.65 -0.10 4.60 -0.10 -4.60 -0.15 -4.65 -0.20 0 -8.20 c0 -7.35 0.10 -8.20 0.90 -8.40 0.50 -0.15 0.30 -0.25 -0.50 -0.30 l-1.40 -0.05 0 15.50 c0 10 0.20 15.50 0.50 15.50 0.30 0 0.50 -2.60 0.50 -6.75z m29.50 -8.75 c0 -13.45 -0.10 -15.50 -0.75 -15.50 -0.65 0 -0.75 2.05 -0.75 15.50 0 13.45 0.10 15.50 0.75 15.50 0.65 0 0.75 -2.05 0.75 -15.50z m38.70 14.95 c-0.25 -0.40 -2.65 -0.50 -7.90 -0.40 l-7.55 0.20 -0.15 -7.60 -0.15 -7.65 6.55 0 c4.70 0 6.45 -0.15 6.20 -0.55 -0.20 -0.40 -2.30 -0.50 -6.40 -0.40 l-6.05 0.20 -0.15 -6.85 -0.15 -6.85 7.65 -0.20 7.65 -0.15 -8.35 -0.10 -8.40 -0.10 0 15.50 0 15.50 8.80 0 c6.35 0 8.65 -0.15 8.40 -0.55z m10.70 -13.70 l-0.30 -14.25 1.25 0 c1.20 0 1.25 -0.05 0.55 -1.10 -0.45 -0.65 -1.15 -1.20 -1.60 -1.30 -0.70 -0.15 -0.80 1.25 -0.80 15.35 0 11.40 0.15 15.55 0.60 15.55 0.40 0 0.50 -3.65 0.30 -14.25z m20.10 -1.25 c0 -11.45 -0.15 -15.50 -0.60 -15.50 -0.40 0 -0.50 3.45 -0.25 13.75 l0.30 13.75 -1.20 0 c-1.50 0 -1.50 0.15 -0.40 2.05 2 3.35 2.15 2.30 2.15 -14.05z m17.40 15.15 l-3.90 -0.20 0 -14.95 0 -14.95 4.40 -0.20 4.35 -0.15 -5.10 -0.10 -5.15 -0.10 0 15.50 0 15.50 4.65 -0.10 4.60 -0.10 -3.85 -0.15z m27.10 -6.40 l0 -6.75 4.65 -0.10 4.60 -0.10 -4.60 -0.15 -4.65 -0.20 0 -8 c0 -7.80 0 -8 1.15 -8.45 1 -0.40 0.95 -0.45 -0.50 -0.45 l-1.65 -0.05 0 15.50 c0 10 0.20 15.50 0.50 15.50 0.30 0 0.50 -2.60 0.50 -6.75z m63.50 -8.75 c0 -13.45 -0.10 -15.50 -0.75 -15.50 -0.65 0 -0.75 2.05 -0.75 15.50 0 13.45 0.10 15.50 0.75 15.50 0.65 0 0.75 -2.05 0.75 -15.50z m12.85 1.50 l-0.35 -14 1.25 0 c1.25 0 1.25 -0.05 0.50 -1.50 -0.45 -0.80 -1.10 -1.50 -1.50 -1.50 -0.65 0 -0.75 2.20 -0.75 15.50 0 11.45 0.15 15.50 0.60 15.50 0.40 0 0.50 -3.50 0.25 -14z m20.15 -1.50 c0 -11.35 -0.15 -15.50 -0.55 -15.50 -0.45 0 -0.55 3.65 -0.35 14 l0.30 14 -1.20 0 c-1.20 0 -1.20 0.05 -0.45 1.50 0.45 0.85 1.10 1.50 1.50 1.50 0.65 0 0.75 -2.20 0.75 -15.50z m20.45 0.40 l-0.20 -15.15 5.25 -0.30 c2.90 -0.15 4.15 -0.30 2.75 -0.40 -1.35 -0.05 -4.20 -0.20 -6.25 -0.30 -2.05 -0.10 -6 0 -8.75 0.20 l-5 0.40 5.40 0.10 5.35 0.05 0 15.25 c0 13.65 0.10 15.25 0.80 15.25 0.70 0 0.80 -1.50 0.65 -15.10z m59.95 13.80 c0.10 -0.85 -0.15 -1.10 -1.35 -1.30 -1.30 -0.20 -1.55 -0.05 -1.55 0.85 0 1.40 0.45 1.85 1.75 1.65 0.60 -0.10 1.05 -0.60 1.15 -1.20z m19 0.45 c0.10 -0.45 -0.35 -0.65 -1.35 -0.65 -1.05 0 -1.55 0.25 -1.55 0.80 0 0.95 2.55 0.80 2.90 -0.15z m16.60 -14.65 c0 -13.45 -0.10 -15.50 -0.75 -15.50 -0.65 0 -0.75 2.05 -0.75 15.50 0 13.45 0.10 15.50 0.75 15.50 0.65 0 0.75 -2.05 0.75 -15.50z m20 0.25 l0 -15.20 5.40 -0.20 c2.95 -0.05 0.30 -0.15 -5.90 -0.15 -6.20 0 -8.95 0.10 -6.10 0.15 l5.10 0.20 0 15.20 c0 13.20 0.10 15.25 0.75 15.25 0.65 0 0.75 -2.05 0.75 -15.25z m20 7.25 l0 -8 9.50 0 9.50 0 0 8 c0 6.80 0.10 8 0.75 8 0.65 0 0.75 -2.05 0.75 -15.50 0 -13.30 -0.10 -15.50 -0.75 -15.50 -0.60 0 -0.75 1.25 -0.85 7.15 l-0.15 7.10 -9.25 0 -9.25 0 -0.15 -7.10 c-0.05 -4.20 -0.35 -7.15 -0.60 -7.15 -0.30 0 -0.50 5.80 -0.50 15.50 0 10 0.20 15.50 0.50 15.50 0.30 0 0.50 -3 0.50 -8z m58.80 7.65 c-0.20 -0.25 -3.70 -0.40 -7.70 -0.40 l-7.35 0 -0.15 -7.60 -0.15 -7.65 6.65 -0.10 6.65 -0.10 -6.50 -0.30 -6.50 -0.25 -0.15 -6.85 -0.15 -6.85 7.90 -0.20 7.90 -0.15 -8.60 -0.10 -8.65 -0.10 0 15.50 0 15.50 8.60 0 c4.70 0 8.40 -0.15 8.20 -0.35z m27.30 -6.70 c-1.80 -5.45 -2.40 -6.70 -2.50 -5.50 l-0.15 1.55 -6.50 0 -6.45 0 -0.05 -1.85 -0.05 -1.90 -0.65 1.75 c-0.35 0.95 -0.70 1.90 -0.70 2.15 -0.05 0.20 3.45 0.35 7.70 0.35 l7.75 0 1.60 5.25 c0.90 2.90 1.75 5.25 1.95 5.25 0.20 0 -0.70 -3.20 -1.95 -7.05z m51.70 6.50 c-1.95 -0.20 -3.70 -0.30 -3.90 -0.15 -0.20 0.15 -2.30 0.10 -4.65 -0.10 l-4.25 -0.35 0 -7.40 0 -7.45 6.55 0 c4.70 0 6.40 -0.15 6.15 -0.55 -0.20 -0.35 -1.20 -0.45 -2.70 -0.30 -1.30 0.15 -4.05 0.15 -6.15 0 l-3.85 -0.30 0 -6.65 0 -6.70 7.90 -0.10 7.85 -0.10 -6.50 -0.30 c-3.55 -0.15 -7.35 -0.20 -8.35 -0.10 l-1.90 0.25 0 15.40 0 15.45 8.65 -0.05 c7.10 -0.05 8 -0.15 5.15 -0.50z m15.05 -0.25 c0.45 -1.15 -0.65 -2 -1.60 -1.20 -0.60 0.50 -0.65 0.80 -0.20 1.30 0.75 0.90 1.40 0.90 1.80 -0.10z m-695.95 -18.05 c0.15 -10.80 0.10 -12.15 -0.60 -12.15 -0.70 0 -0.80 1.45 -0.80 12.65 0 6.90 -0.15 13.15 -0.25 13.85 -0.20 0.95 -0.05 0.85 0.60 -0.50 0.75 -1.50 0.90 -3.60 1.05 -13.85z m-153.40 11.20 c0 -1.65 -1.05 -3.90 -2.35 -4.90 -0.75 -0.55 -0.70 -0.45 0.10 0.50 0.80 0.90 1 1.90 1 4.55 0 2.95 0.10 3.30 0.60 2.35 0.35 -0.60 0.60 -1.75 0.65 -2.50z m51.50 0 c0 -0.85 -1.80 -4.85 -2.25 -4.85 -0.10 0 0.15 0.85 0.60 1.85 0.50 1.25 0.65 2.70 0.50 4.40 -0.25 2.45 -0.25 2.45 0.40 1 0.40 -0.80 0.70 -1.90 0.75 -2.40z m543.70 0.80 c0.25 -1.15 0.10 -2.10 -0.70 -3.50 -0.60 -1.05 -0.95 -1.50 -0.80 -1 0.15 0.50 0.30 2.45 0.30 4.25 0.05 3.40 0.55 3.50 1.20 0.25z m215.80 -0.80 c0 -0.90 -1.80 -4.85 -2.30 -4.85 -0.10 0 0 0.45 0.30 0.95 0.25 0.55 0.50 2.50 0.55 4.40 0.05 3.30 0.05 3.35 0.70 1.90 0.40 -0.80 0.70 -1.90 0.75 -2.40z m-628.30 1.15 c0.30 -1.70 -0.65 -4.65 -1.75 -5.25 -0.55 -0.30 -0.60 -0.25 -0.05 0.30 0.35 0.35 0.60 2 0.60 3.85 0 3.25 0.65 3.85 1.20 1.10z m-258.70 -0.75 c-0.25 -1.10 -0.50 -6.90 -0.50 -12.85 0 -6.95 -0.20 -10.90 -0.50 -10.90 -0.30 0 -0.50 3.80 -0.50 10.40 0 8 0.20 11.05 0.80 13.05 0.90 3.05 1.35 3.25 0.70 0.30z m173.15 -1 c-0.55 -1.70 -0.70 -3.85 -0.55 -8.80 0.15 -5.90 0.10 -6.35 -0.55 -4.85 -1.55 3.75 -1.25 9.35 0.70 14.05 1.05 2.60 1.35 2.30 0.40 -0.40z m375.60 0.20 c-0.85 -2.35 -1.05 -12.25 -0.30 -14.85 0.65 -2.15 0.25 -2.05 -0.80 0.30 -1.30 2.95 -1.20 11.15 0.20 14.25 1.35 2.90 1.85 3.10 0.90 0.30z m-353.55 0.15 c1.35 -2.60 1.90 -7.30 1.30 -10.70 -0.35 -1.70 -0.90 -3.70 -1.30 -4.40 -0.50 -0.75 -0.65 -0.85 -0.40 -0.25 0.75 2.30 0.80 11 0.05 13.90 -0.85 3.15 -0.75 3.55 0.35 1.45z m72.95 -2.35 c-0.85 -4.05 -0.65 -9.90 0.50 -13.10 1 -2.85 0.55 -2.70 -0.75 0.25 -1.45 3.25 -1.60 10.80 -0.20 14.25 0.50 1.30 1 2.30 1.05 2.25 0.10 -0.10 -0.20 -1.70 -0.60 -3.65z m23.05 0.55 c1.40 -4.20 1.05 -10.40 -0.80 -13.80 -0.65 -1.25 -0.85 -1.40 -0.60 -0.50 0.90 3.30 1.20 4.95 1.20 7.50 0 2.85 -0.65 7.50 -1.30 9.25 -0.25 0.70 -0.20 0.85 0.20 0.50 0.25 -0.25 0.85 -1.60 1.30 -2.95z m279.55 1.55 c1.45 -3.50 1.85 -7.55 1 -11.40 -0.40 -2 -0.95 -3.85 -1.25 -4.15 -0.35 -0.35 -0.40 0 -0.15 1.20 0.60 2.65 0.45 12.55 -0.20 14.40 -0.75 2.10 -0.30 2.10 0.60 -0.05z m-583.40 -0.70 c1.20 -2.70 1.20 -11.15 0 -13.85 -1.05 -2.35 -1.55 -2.20 -0.85 0.25 0.60 2.10 0.65 11 0.05 13.60 -0.25 1 -0.35 1.85 -0.25 1.85 0.10 0 0.55 -0.85 1.05 -1.85z m32.50 -11.50 c0.25 -9.65 0.20 -10.65 -0.55 -10.65 -0.70 0 -0.80 1.25 -0.75 12.15 0.05 15.15 0.90 14.15 1.30 -1.50z m488.85 4.60 c0 -3.55 -0.20 -5 -1.05 -6.85 -1.35 -2.95 -1.80 -3.10 -0.80 -0.25 0.55 1.55 0.70 3.65 0.55 8.10 -0.15 3.30 -0.40 6.45 -0.55 7 -0.20 0.55 0.15 0 0.75 -1.25 0.90 -1.80 1.10 -3.10 1.10 -6.75z m-544.20 6 c-0.90 -3.90 -0.55 -11 0.75 -14.50 0.30 -0.85 0.25 -0.85 -0.45 0.10 -1.50 2 -2.40 7.80 -1.80 11.25 0.50 2.75 1.50 5.60 1.80 5.25 0.10 -0.05 -0.05 -1 -0.30 -2.10z m-213 -2 l0 -2.25 -218 0 -218 0 0 2.25 0 2.25 218 0 218 0 0 -2.25z m1636 0 l0 -2.25 -218 0 -218 0 0 2.25 0 2.25 218 0 218 0 0 -2.25z m-1557.55 0.90 c0 -0.25 -0.35 -1.20 -0.70 -2.15 l-0.65 -1.75 -0.05 1.90 -0.05 1.85 -6.45 0 -6.50 0 -0.15 -1.35 -0.15 -1.40 -0.60 1.65 -0.60 1.60 8 0 c4.35 0 7.95 -0.15 7.90 -0.35z m532.90 -1.50 l-0.60 -1.90 -0.15 1.65 -0.15 1.60 -6.45 0 -6.45 0 -0.15 -1.60 -0.15 -1.65 -0.60 1.90 -0.55 1.85 7.90 0 7.90 0 -0.55 -1.85z m327.65 -9.20 c-0.80 -4.20 -1.50 -8.05 -1.50 -8.55 0 -0.50 -0.25 -0.90 -0.55 -0.90 -0.30 0 -0.45 0.45 -0.30 1.15 0.15 0.60 1 4.65 1.90 9.05 0.90 4.35 1.75 7.70 1.85 7.40 0.05 -0.25 -0.55 -3.95 -1.40 -8.15z m-436 7.80 c0 -0.30 -3.80 -2.25 -4.35 -2.25 -0.20 0.05 0.60 0.60 1.85 1.25 2.50 1.35 2.50 1.35 2.50 1z m-185 -1.25 c-0.95 -0.55 -1.95 -0.95 -2.25 -0.95 -0.25 0 0.30 0.40 1.25 0.95 0.95 0.55 2 0.95 2.25 0.95 0.30 0 -0.30 -0.40 -1.25 -0.95z m51.50 0 c-0.95 -0.55 -1.95 -0.95 -2.25 -0.95 -0.25 0 0.30 0.40 1.25 0.95 0.95 0.55 2 0.95 2.25 0.95 0.30 0 -0.30 -0.40 -1.25 -0.95z m544 0 c-0.95 -0.55 -1.95 -0.95 -2.25 -0.95 -0.25 0 0.30 0.40 1.25 0.95 0.95 0.55 2 0.95 2.25 0.95 0.30 0 -0.30 -0.40 -1.25 -0.95z m215.50 0 c-0.95 -0.55 -1.95 -0.95 -2.25 -0.95 -0.25 0 0.30 0.40 1.25 0.95 0.95 0.55 2 0.95 2.25 0.95 0.30 0 -0.30 -0.40 -1.25 -0.95z m-764 -2 c-0.95 -0.55 -1.95 -0.95 -2.25 -0.95 -0.25 0 0.30 0.40 1.25 0.95 0.95 0.55 2 0.95 2.25 0.95 0.30 0 -0.30 -0.40 -1.25 -0.95z m544 0 c-0.95 -0.55 -1.95 -0.95 -2.25 -0.95 -0.25 0 0.30 0.40 1.25 0.95 0.95 0.55 2 0.95 2.25 0.95 0.30 0 -0.30 -0.40 -1.25 -0.95z m-808.50 -2.05 c0 -1.35 -0.10 -1.50 -0.80 -0.95 -0.40 0.40 -1 1.10 -1.25 1.60 -0.40 0.75 -0.30 0.90 0.80 0.90 1.05 0 1.25 -0.20 1.25 -1.55z m1072.95 -8.80 c0.05 -2.50 -0.15 -4.15 -0.45 -4.15 -0.30 0 -0.45 2.75 -0.40 7.40 0.05 6 0.10 6.75 0.40 4.10 0.20 -1.80 0.40 -5.10 0.45 -7.35z m-864.75 7.80 c-1.25 -1.30 -1.45 -1.90 -1.45 -4.25 0 -1.50 -0.05 -2.70 -0.15 -2.70 -0.05 0 -0.35 0.60 -0.65 1.35 -0.65 1.70 0.10 3.85 1.90 5.75 0.75 0.75 1.45 1.40 1.60 1.40 0.10 0 -0.40 -0.70 -1.25 -1.55z m276.15 0.75 c0.40 -1.05 -0.65 -2.10 -1.40 -1.35 -0.65 0.65 -0.25 2.15 0.55 2.15 0.30 0 0.65 -0.35 0.85 -0.80z m58.60 -3.45 c0 -1.10 -0.25 -2.50 -0.60 -3.10 -0.50 -0.90 -0.60 -0.45 -0.60 3.10 0 3.55 0.10 4 0.60 3.10 0.35 -0.60 0.60 -2 0.60 -3.10z m143.45 0.85 c0.10 -1.35 0 -2.90 -0.30 -3.40 -0.40 -0.70 -0.55 -0.05 -0.70 2.90 -0.15 4.20 0.60 4.60 1 0.50z m-611.05 -0.45 c0.15 -1.20 0 -2.50 -0.40 -3.30 -0.65 -1.20 -0.70 -1 -0.70 2.40 0 3.85 0.65 4.35 1.10 0.90z m183.10 0.80 c-0.30 -0.65 -0.45 -2.20 -0.30 -3.60 0.20 -2.30 0.15 -2.40 -0.45 -1.30 -0.35 0.65 -0.65 1.60 -0.70 2.10 0 0.95 1.35 3.85 1.80 3.85 0.10 0 0 -0.50 -0.35 -1.05z m544 0 c-0.30 -0.65 -0.45 -2.20 -0.30 -3.60 0.20 -2.30 0.15 -2.40 -0.45 -1.30 -0.35 0.65 -0.65 1.60 -0.70 2.10 0 0.95 1.35 3.85 1.80 3.85 0.10 0 0 -0.50 -0.35 -1.05z m215.50 0 c-0.30 -0.65 -0.45 -2.20 -0.35 -3.65 l0.25 -2.55 -0.70 1.70 c-0.70 1.70 -0.55 3.75 0.45 4.90 0.80 1 1 0.75 0.35 -0.40z m-628.35 -2.40 c-0.15 -1.80 -0.35 -2.45 -0.65 -2 -0.60 0.95 -0.55 2.80 0.10 4.05 0.70 1.35 0.80 1.10 0.55 -2.05z m480.10 -5.55 c0.20 -1 0.15 -1.50 -0.15 -1.25 -0.25 0.30 -0.55 1.65 -0.70 3 -0.30 2.60 0.20 1.55 0.85 -1.75z m-15.50 0.65 c-0.35 -1.55 -1.05 -2.50 -1.45 -2.05 -0.15 0.15 -0.50 0.95 -0.75 1.85 -0.40 1.50 -0.35 1.55 1.05 1.55 1.35 0 1.45 -0.10 1.15 -1.35z m-926.20 0.05 c0 -0.90 -1.20 -2.20 -2 -2.20 -0.75 0 -1 0.35 -1 1.25 0 1.05 0.25 1.25 1.50 1.25 0.85 0 1.50 -0.15 1.50 -0.30z m43.25 -1.70 c-0.15 -0.25 -0.75 -0.50 -1.30 -0.50 -0.50 0 -0.95 0.25 -0.95 0.50 0 0.30 0.60 0.50 1.30 0.50 0.70 0 1.15 -0.20 0.95 -0.50z m533.50 0 c-0.15 -0.25 -0.75 -0.50 -1.25 -0.50 -0.50 0 -1.10 0.25 -1.25 0.50 -0.20 0.30 0.35 0.50 1.25 0.50 0.90 0 1.45 -0.20 1.25 -0.50z m493.75 0 c0 -0.25 -0.55 -0.50 -1.25 -0.50 -0.70 0 -1.25 0.25 -1.25 0.50 0 0.30 0.55 0.50 1.25 0.50 0.70 0 1.25 -0.20 1.25 -0.50z m-464.10 -0.35 c-0.80 -0.10 -2 -0.10 -2.75 0 -0.80 0.10 -0.15 0.20 1.35 0.20 1.50 0 2.15 -0.10 1.40 -0.20z m-409.25 -0.50 c-0.65 -0.10 -1.75 -0.10 -2.50 0 -0.80 0.10 -0.25 0.20 1.10 0.20 1.40 0 2 -0.10 1.40 -0.20z m90.75 0 c-0.50 -0.10 -1.40 -0.10 -2 0 -0.65 0.10 -0.25 0.20 0.85 0.20 1.10 0.05 1.60 -0.05 1.15 -0.20z m51.75 0 c-0.65 -0.10 -1.65 -0.10 -2.25 0 -0.65 0.10 -0.15 0.20 1.10 0.20 1.25 0 1.75 -0.10 1.15 -0.20z m65.50 0 c-0.65 -0.10 -1.75 -0.10 -2.50 0 -0.80 0.10 -0.25 0.20 1.10 0.20 1.40 0 2 -0.10 1.40 -0.20z m65.50 0 c-0.65 -0.10 -1.65 -0.10 -2.25 0 -0.65 0.10 -0.15 0.20 1.10 0.20 1.25 0 1.75 -0.10 1.15 -0.20z m30 0 c-0.65 -0.10 -1.75 -0.10 -2.50 0 -0.80 0.10 -0.25 0.20 1.10 0.20 1.40 0 2 -0.10 1.40 -0.20z m280 0 c-0.65 -0.10 -1.75 -0.10 -2.50 0 -0.80 0.10 -0.25 0.20 1.10 0.20 1.40 0 2 -0.10 1.40 -0.20z m103 0 c-0.65 -0.10 -1.65 -0.10 -2.25 0 -0.65 0.10 -0.15 0.20 1.10 0.20 1.25 0 1.75 -0.10 1.15 -0.20z m215 0 c-0.65 -0.10 -1.65 -0.10 -2.25 0 -0.65 0.10 -0.15 0.20 1.10 0.20 1.25 0 1.75 -0.10 1.15 -0.20z m-188.10 -51 c0 -1.35 0.05 -12.95 0.10 -25.90 l0.10 -23.50 1.65 -0.15 c1.20 -0.10 2.15 0.20 3.50 1.20 1 0.75 1.95 1.55 2.10 1.80 0.55 0.70 6.30 4.25 9 5.50 4.35 1.95 7.65 2.55 12.20 2.25 6.95 -0.50 12 -3.10 16.40 -8.55 3.65 -4.55 6.75 -11.20 7.60 -16.30 0.15 -0.95 0.65 -3.20 1.10 -5 0.65 -2.75 0.85 -7.80 1.05 -32.75 0.30 -34.70 0 -38.95 -3.60 -48.65 -0.95 -2.60 -3.25 -7.25 -3.75 -7.60 -0.20 -0.15 -0.65 -0.80 -1.05 -1.50 -1.10 -2 -5.40 -5.75 -8.20 -7.10 -5 -2.50 -13.15 -2.80 -18.75 -0.65 -4.10 1.50 -7 2.90 -7 3.35 0 0.20 -0.45 0.40 -1 0.40 -0.55 0 -1 0.20 -1 0.45 0 0.25 -0.40 0.60 -0.90 0.75 -0.50 0.15 -1.90 1.20 -3.10 2.30 -1.95 1.75 -2.50 2 -4.25 1.90 l-2 -0.15 0.10 -4.35 0.05 -4.40 -13.70 0 -13.70 0 0 84.50 0 84.50 13.50 0 13.50 0 0.05 -2.35z m-1331.05 -3.35 c8.10 -1.35 14.75 -3.10 24 -6.35 6.25 -2.25 20.90 -10.70 25.25 -14.60 1.10 -1 2.15 -1.85 2.35 -1.85 0.60 0 11.20 -10.80 12.60 -12.85 0.80 -1.20 1.60 -2.15 1.80 -2.15 0.20 0 1.15 -1.25 2.05 -2.75 0.95 -1.55 2.10 -3.25 2.60 -3.85 0.45 -0.60 0.85 -1.25 0.85 -1.45 0 -0.20 0.30 -0.70 0.70 -1.10 0.85 -0.80 6.90 -12.85 8.10 -15.95 6.45 -17.10 8.55 -29.20 8.05 -46.20 -0.45 -15.55 -2.25 -24.25 -8.55 -41.10 -2.35 -6.35 -8.40 -16.70 -14 -24 -2.85 -3.75 -14.05 -14.90 -16.40 -16.40 -1.05 -0.70 -2.05 -1.55 -2.20 -1.95 -0.15 -0.35 -0.80 -0.80 -1.50 -0.95 -0.65 -0.20 -1.20 -0.50 -1.20 -0.75 0 -0.25 -0.65 -0.70 -1.50 -1.05 -0.80 -0.35 -1.50 -0.80 -1.50 -1.05 0 -0.20 -0.45 -0.55 -1 -0.70 -0.55 -0.15 -1.30 -0.60 -1.65 -1 -1.10 -1.05 -11.75 -6.25 -14.95 -7.25 -1.55 -0.55 -3.35 -1.20 -3.95 -1.55 -1.85 -0.95 -13.65 -3.85 -19.35 -4.75 -8.75 -1.30 -19.65 -1.65 -51.70 -1.70 l-30.40 0 0 37.50 0 37.50 19 0 19 0 0 -17.75 0 -17.75 1.70 0 c1.65 0 5.80 2.20 5.80 3.10 0 0.20 0.60 0.70 1.40 1.10 0.75 0.40 2.15 1.45 3.10 2.30 0.95 0.85 2.35 1.90 3.15 2.30 0.75 0.40 1.35 0.90 1.35 1.15 0 0.20 1 1.05 2.25 1.85 1.25 0.75 2.25 1.55 2.25 1.80 0 0.20 0.60 0.70 1.40 1.10 0.75 0.40 2.15 1.40 3.10 2.25 0.95 0.85 1.90 1.55 2.10 1.55 0.20 0 1 0.55 1.75 1.25 0.80 0.65 2.85 2.30 4.65 3.70 1.80 1.35 3.70 2.90 4.25 3.45 0.55 0.50 1.70 1.35 2.60 1.80 0.90 0.45 1.80 1.10 2 1.45 0.20 0.35 1.20 1.20 2.15 1.85 0.95 0.70 2.20 1.65 2.75 2.15 0.55 0.50 1.60 1.25 2.40 1.65 0.75 0.40 1.35 0.95 1.35 1.20 0 0.25 0.60 0.80 1.40 1.20 0.75 0.40 2.15 1.45 3.10 2.25 0.95 0.85 1.90 1.55 2.10 1.55 0.20 0 1.20 0.80 2.25 1.75 1.05 0.95 2.30 1.90 2.80 2.05 0.45 0.15 0.85 0.45 0.85 0.75 0 0.25 0.85 1 1.90 1.65 1 0.65 2.40 1.70 3.10 2.30 0.70 0.60 2.10 1.65 3.15 2.30 1 0.65 1.85 1.40 1.85 1.65 0 0.30 0.40 0.60 0.90 0.75 0.45 0.15 1.40 0.80 2.10 1.45 0.70 0.60 2.05 1.70 3 2.35 0.95 0.65 2.30 1.75 3 2.35 0.70 0.65 1.40 1.15 1.60 1.15 0.20 0 1.05 0.65 1.90 1.50 0.85 0.85 1.85 1.50 2.25 1.50 0.55 0 0.75 0.55 0.75 1.95 0 2.05 -0.20 2.30 -6.50 7.05 -0.90 0.70 -3.80 2.95 -6.50 5 -2.70 2.05 -5.60 4.30 -6.50 5 -1.65 1.25 -7.05 5.45 -8.50 6.65 -0.40 0.35 -1.55 1.15 -2.50 1.85 -0.95 0.70 -2.10 1.50 -2.50 1.85 -1.45 1.20 -6.85 5.40 -8.50 6.65 -0.90 0.70 -3.80 2.95 -6.50 5 -2.70 2.05 -5.60 4.30 -6.50 5 -0.90 0.70 -3.80 2.95 -6.50 5 -2.70 2.05 -5.60 4.30 -6.50 5 -4.05 3.10 -11.80 9.10 -12.50 9.65 -4.60 3.70 -6.50 4.85 -7.90 4.85 l-1.60 0 0 -17.75 0 -17.75 -2.10 0 c-1.20 -0.05 -4.05 -0.10 -6.40 -0.15 -2.35 -0.05 -9.95 0 -16.85 0.05 l-12.65 0.10 0 37.30 0 37.25 38.15 -0.20 c33.10 -0.15 38.80 -0.30 43.35 -1.05z m726.05 -33.25 c8.85 -1.40 14.65 -4.05 19.25 -8.85 5.55 -5.85 7.90 -11.95 9.20 -24.20 0.25 -2.05 0.45 -36.45 0.45 -76.35 l0.05 -72.65 -14.70 0 -14.65 0 -0.35 2.90 c-0.15 1.55 -0.15 33.65 -0.05 71.30 0.30 69.95 0.20 73.35 -1.60 78.95 -0.95 2.90 -3.70 6 -6.35 7.10 -2.80 1.15 -8.85 2.25 -12.60 2.25 l-3.20 0 0 10.30 0 10.30 10.65 -0.30 c5.80 -0.15 12.10 -0.50 13.90 -0.75z m872.80 -2.30 c3.95 -0.65 12.20 -3.15 12.65 -3.80 0.15 -0.15 1.25 -0.85 2.50 -1.45 1.25 -0.60 2.35 -1.30 2.50 -1.50 0.15 -0.15 1.05 -0.85 2.05 -1.55 4.65 -3.15 9.50 -10.55 12.10 -18.45 2.70 -8.20 3.40 -13.25 3.70 -26.60 l0.25 -11.90 -5.65 0 c-3.15 0 -7.50 -0.15 -9.70 -0.30 -2.20 -0.15 -6.05 -0.10 -8.55 0.05 l-4.60 0.35 -0.25 14.05 c-0.15 7.75 -0.55 15.35 -0.85 16.85 -0.30 1.50 -1.35 4.40 -2.35 6.35 -1.35 2.80 -2.25 3.95 -3.95 5.10 -5.05 3.35 -16.70 3.40 -22.70 0.10 -1.55 -0.90 -5 -4.60 -5 -5.40 0 -0.35 -0.20 -0.65 -0.40 -0.65 -0.50 0 -1.45 -3.30 -2.40 -8.50 -0.65 -3.60 -0.80 -11.05 -1 -48.25 -0.20 -45.85 0.05 -56.10 1.75 -62.55 1.15 -4.55 4.95 -10.20 6.80 -10.20 0.40 0 0.75 -0.20 0.75 -0.40 0 -0.75 4.75 -1.70 9.65 -2 8.65 -0.45 13.50 1.40 16.25 6.20 2.75 4.80 3.20 7.55 3.45 22.85 l0.25 13.85 14.30 0 14.25 0 -0.30 -12.40 c-0.20 -8.10 -0.55 -13.65 -1.05 -16.10 -0.95 -4.50 -3.35 -12.20 -3.90 -12.40 -0.20 -0.10 -0.40 -0.60 -0.40 -1.05 0 -0.70 -1.60 -3.55 -3.60 -6.30 -5.60 -7.80 -14.55 -12.75 -26.90 -14.80 -4.85 -0.80 -18.20 -0.80 -23 0 -7.50 1.25 -16.75 4.90 -19.95 7.85 -0.70 0.65 -1.70 1.35 -2.15 1.50 -1.55 0.45 -6.90 7.75 -9.35 12.65 -3.05 6.15 -4.95 13.55 -6.05 23.90 -0.75 7.05 -0.75 82.75 0 89.15 0.60 5.30 2.05 12.60 3.20 16 1.80 5.45 3.25 8.90 4.35 10.20 0.25 0.30 1.15 1.55 1.95 2.80 2.85 4.45 7.25 8.40 12.95 11.70 5.20 3 9.55 4.20 21.80 6 2.50 0.35 12.45 -0.20 16.60 -0.95z m-1428.05 -0.30 c5.50 -1 12.65 -3.60 14.90 -5.50 0.30 -0.25 1.35 -0.95 2.30 -1.60 3.50 -2.25 8.90 -10.05 10.70 -15.35 3.20 -9.70 3.60 -15.15 3.25 -46.50 -0.30 -27.40 -0.40 -28.90 -2.75 -35.90 -0.95 -2.85 -3.95 -8.80 -5.35 -10.50 -7.95 -9.80 -17.20 -13.75 -32.35 -13.75 -5.95 -0.05 -8.05 0.15 -11.70 1.10 -2.50 0.65 -4.85 1.35 -5.25 1.55 -0.45 0.20 -2 0.90 -3.40 1.55 -1.45 0.60 -2.65 1.25 -2.65 1.45 0 0.15 -0.70 0.70 -1.60 1.20 -5.95 3.55 -11.70 13.20 -13.65 22.90 -1.25 6.30 -1.70 15.50 -1.75 35.15 0 19.90 0.55 30.35 1.80 35.65 1 4.15 3.65 11.10 4.25 11.10 0.25 0 0.45 0.45 0.45 1 0 0.55 0.20 1 0.40 1 0.25 0 0.70 0.50 0.95 1.15 1.05 2.20 5.45 6.55 9 8.90 3.80 2.45 8.15 4.15 13.65 5.20 4.10 0.80 14.85 0.90 18.80 0.20z m116.20 -0.20 c2.60 -0.15 5.70 -0.45 6.90 -0.60 l2.10 -0.30 0 -9.85 0 -9.85 -6.60 0.05 c-7.30 0.05 -8.35 -0.25 -11.35 -3.20 -2.80 -2.85 -2.75 -2.30 -2.80 -46 l0 -40.25 9.90 -0.15 9.85 -0.10 0 -8.70 0 -8.65 -9.85 0.05 -9.90 0 -0.05 -17 c0 -9.30 -0.10 -17.90 -0.10 -19.05 l-0.10 -2.15 -13.75 0 -13.75 0 -0.10 19.15 -0.15 19.10 -3.75 0 c-2.05 0 -4.95 0.05 -6.35 0.15 l-2.65 0.10 0 8.50 0 8.50 6.50 0 6.50 0 0 39.40 c0.05 39.85 0.20 45.65 1.75 51.90 2.15 8.60 8.15 15.30 15.80 17.55 3.65 1.05 11.65 2.05 14.70 1.85 1.40 -0.10 4.65 -0.30 7.25 -0.45z m210.70 -0.45 c1.90 -0.50 4.55 -1.40 5.85 -2.10 1.35 -0.65 2.75 -1.20 3.20 -1.20 0.40 0 0.75 -0.20 0.75 -0.45 0 -0.25 0.50 -0.65 1.10 -0.85 2.35 -0.75 10.90 -10.60 10.90 -12.60 0 -0.35 0.45 -1.50 0.95 -2.50 1.45 -2.85 2.95 -11.15 3.30 -18.40 l0.35 -6.55 -1.15 -0.20 c-0.65 -0.10 -6.45 -0.15 -12.80 -0.05 l-11.65 0.20 0 7.10 c0 15.25 -2.45 19.55 -11.45 20.15 -5.10 0.35 -7.75 -0.40 -10.35 -3.05 -3.55 -3.50 -4.20 -7.80 -4.20 -28.15 l0 -15.15 25.80 0 25.80 0 -0.25 -14.35 c-0.20 -11.55 -0.45 -15.40 -1.30 -19.40 -1.35 -6.90 -3.75 -14.05 -5.20 -15.50 -0.45 -0.40 -0.95 -1.20 -1.10 -1.75 -0.15 -0.55 -0.50 -1 -0.75 -1 -0.25 0 -0.90 -0.80 -1.50 -1.75 -1.30 -2.15 -6.10 -5.80 -10.15 -7.70 -7.90 -3.75 -22.45 -4.45 -32.40 -1.60 -3.40 0.95 -8.15 3.20 -9.35 4.35 -0.35 0.40 -0.90 0.70 -1.20 0.70 -1.25 0 -7.40 7.20 -9.30 10.90 -5.40 10.35 -6.10 15.85 -6.10 47.75 0 24.55 0.25 28.85 2.25 36.55 1.20 4.85 4.05 11.80 4.80 11.80 0.20 0 0.55 0.50 0.75 1.15 0.15 0.60 2.05 2.80 4.15 4.85 5.35 5.30 9.60 7.40 18.55 9.25 4.45 0.95 17.10 0.65 21.70 -0.45z m104.30 0.50 c2.90 -0.15 6.45 -0.45 7.90 -0.60 l2.60 -0.35 0 -9.85 0 -9.85 -6.10 0.05 c-6.80 0.05 -9.35 -0.50 -11.60 -2.45 -3.10 -2.70 -3 -1.05 -3.15 -46.10 l-0.20 -41.15 9.80 0 9.75 0 0 -8.70 0 -8.75 -9.60 0.10 -9.65 0.10 -0.15 -19.15 -0.10 -19.10 -13.75 0 -13.75 0 0 18.95 0 18.90 -1.85 0.35 c-1.05 0.15 -4 0.30 -6.50 0.30 l-4.65 0 0 8.50 0 8.50 6.50 0 6.50 0 0 41.65 c0 26.05 0.20 42.80 0.50 44.85 0.60 3.75 2.50 10.15 3.10 10.40 0.20 0.10 0.40 0.60 0.40 1.15 0 0.50 0.20 0.95 0.45 0.95 0.25 0 0.65 0.45 0.80 1.05 0.45 1.40 3.95 4.70 6.50 6.25 3.65 2.10 8.80 3.65 13.75 4.10 2.60 0.25 5.30 0.35 6 0.30 0.70 -0.10 3.60 -0.25 6.50 -0.40z m235.05 -0.95 c7.05 -2.35 11.25 -4.90 15.50 -9.35 7.60 -8.10 10.10 -20.35 6.35 -31.35 -0.65 -1.85 -1.30 -3.45 -1.50 -3.55 -0.25 -0.10 -0.40 -0.40 -0.40 -0.65 0 -0.65 -3.85 -6.90 -5 -8.15 -4.45 -4.90 -14.90 -15 -20.60 -19.90 -2.15 -1.85 -5.30 -4.65 -7 -6.25 -11 -10.20 -12.60 -12.55 -12.60 -18.90 -0.05 -4.65 1.05 -7.35 3.85 -9.45 3.35 -2.55 11.10 -2.90 14.85 -0.70 2.30 1.40 5.50 4.45 5.50 5.25 0 0.35 0.20 0.65 0.45 0.65 0.75 0 4.55 9.40 4.55 11.25 0 0.65 0.25 0.60 1.90 -0.05 1 -0.45 3.30 -1.45 5.10 -2.20 8 -3.40 9.50 -4.20 9.50 -5 0 -1.80 -3.25 -10.65 -4 -10.90 -0.25 -0.10 -0.90 -1.15 -1.45 -2.30 -0.80 -1.90 -2.80 -4.45 -5.80 -7.50 -3.45 -3.50 -9.35 -6.60 -15.25 -8.05 -5.50 -1.35 -13.60 -1.25 -18.50 0.20 -12.30 3.75 -19.85 10.65 -23.60 21.65 -0.85 2.50 -1.05 4.40 -1.10 9.15 -0.05 5.30 0.10 6.50 1.35 10.40 0.80 2.40 1.75 4.70 2.15 5.10 0.40 0.35 0.70 1 0.70 1.45 0 0.40 0.40 1.05 0.90 1.40 0.45 0.35 1.40 1.45 2.05 2.40 2.65 3.75 10.35 11.50 16.55 16.50 1.50 1.25 3.10 2.60 3.50 3.05 0.40 0.45 2 1.80 3.50 3 1.50 1.20 2.85 2.30 3 2.45 0.15 0.15 1.70 1.50 3.50 3 3.95 3.35 7.40 6.95 7.80 8.15 0.15 0.45 0.45 0.85 0.65 0.85 0.25 0 0.95 1.20 1.60 2.65 0.95 2.15 1.15 3.45 1.15 7.85 0 4.75 -0.10 5.40 -1.20 7.10 -2.05 3.05 -4.40 4.05 -10.20 4.30 -4.55 0.20 -5.35 0.10 -7.80 -1 -4.85 -2.15 -8.75 -7.25 -11.30 -14.75 -0.45 -1.35 -1 -2.90 -1.25 -3.50 l-0.40 -1.10 -3.15 1.20 c-1.75 0.65 -4.70 1.75 -6.65 2.50 -1.90 0.75 -4.40 1.70 -5.45 2.10 -3.95 1.45 -3.85 1.30 -2.85 4.30 1.20 3.35 4.60 9.95 6.70 12.90 5.25 7.25 11.75 11.60 21.35 14.25 3.80 1.05 5.10 1.15 11.75 1 6.35 -0.15 8.05 -0.40 11.30 -1.45z m101.75 1.10 c5.50 -1 12.65 -3.60 14.90 -5.50 0.30 -0.25 1.35 -0.95 2.30 -1.60 3.80 -2.45 9.05 -10.30 11 -16.35 2.70 -8.50 2.75 -9.05 2.75 -41 0 -26.85 -0.10 -30.15 -0.90 -34 -1.15 -5.45 -1.95 -7.70 -4.10 -12 -2 -4 -2.90 -5.15 -6.75 -9 -6.80 -6.70 -15.40 -9.65 -28.50 -9.65 -5.95 -0.05 -8.05 0.15 -11.70 1.10 -2.50 0.65 -4.85 1.35 -5.25 1.55 -0.45 0.20 -2 0.90 -3.40 1.55 -1.45 0.60 -2.65 1.25 -2.65 1.45 0 0.15 -0.65 0.65 -1.40 1.10 -6.10 3.60 -11.90 13.20 -13.85 23 -1.25 6.30 -1.70 15.50 -1.75 35.15 0 26.45 0.75 34.45 4 42.75 1.05 2.65 2.45 5.50 3 6 0.15 0.15 0.70 0.90 1.20 1.70 4.25 6.65 12.40 11.60 22.30 13.55 4.10 0.80 14.85 0.90 18.80 0.20z m900.20 -0.95 c2.35 -0.65 4.35 -1.35 4.40 -1.60 0.10 -0.20 0.60 -0.40 1.15 -0.40 0.50 0 0.95 -0.20 0.95 -0.45 0 -0.25 0.70 -0.55 1.55 -0.75 0.90 -0.15 2.30 -1.05 3.15 -2 0.90 -0.90 2.05 -1.90 2.65 -2.20 1.35 -0.75 5.05 -5.95 7.05 -9.85 2.10 -4.20 3.55 -11.60 3.95 -20.10 l0.30 -7.15 -3.20 -0.05 c-3.25 -0.05 -13.15 -0.05 -18.80 0 l-3.15 0.05 0 4.90 c-0.05 10.40 -1.40 17.20 -4 19.65 -2.60 2.50 -8.10 3.50 -13.25 2.45 -3.70 -0.75 -6.05 -3 -7.50 -7.05 -0.90 -2.45 -1 -4.45 -1.15 -20.80 l-0.15 -18.15 25.75 0 25.80 0 0 -6.60 c0 -9.55 -0.90 -23.45 -1.75 -27.60 -1.35 -6.50 -4.35 -14.60 -6.30 -17 -0.25 -0.30 -1.20 -1.50 -2.15 -2.65 -3 -3.70 -8.10 -7.15 -12.90 -8.70 -5.10 -1.60 -9 -2.10 -16.15 -2.10 -5.65 0 -7.85 0.20 -11.50 1.15 -4.65 1.15 -11.25 3.85 -11.25 4.55 0 0.20 -0.50 0.55 -1.10 0.75 -1.40 0.40 -5.80 4.85 -7.75 7.70 -6.65 9.90 -8.15 19.50 -8.15 51.50 0.05 28.90 1 35.80 6.35 46.10 4.90 9.55 12.25 14.75 24.15 17.20 5.30 1.05 17.75 0.65 23 -0.80z m216 0.80 c2.90 -0.15 6.45 -0.45 7.90 -0.60 l2.60 -0.35 0 -9.95 0 -9.90 -4.75 0.30 c-8.45 0.60 -13.05 -1.15 -15 -5.70 -0.95 -2.30 -1 -3.45 -1.15 -43.20 l-0.15 -40.90 10.05 0 10 0 0 -8.50 0 -8.50 -6.85 -0.05 c-3.80 -0.05 -7.70 -0.05 -8.65 0 -1 0.05 -2.40 -0.10 -3.15 -0.40 l-1.35 -0.55 0 -18.75 0 -18.75 -13.75 0 -13.75 0 -0.10 19.15 -0.15 19.10 -5.75 0.05 c-3.15 0.05 -6.05 0.10 -6.35 0.15 -0.50 0.05 -0.65 2.10 -0.65 8.55 l0 8.50 6.50 0 6.45 0 0.20 43.15 c0.15 42.45 0.15 43.15 1.25 47.25 1 3.80 2.85 8.15 4.25 10 3.30 4.35 8.65 7.75 14.30 9.10 3 0.70 9.65 1.40 11.55 1.20 0.70 -0.10 3.60 -0.25 6.50 -0.40z m-1705 -55.05 l0 -54.25 1.70 0 c1.35 0 1.80 0.25 2.05 1.15 0.15 0.60 0.75 2.25 1.35 3.60 0.55 1.40 1.40 3.50 1.90 4.75 0.50 1.25 2.10 5.05 3.50 8.50 1.40 3.45 3 7.30 3.55 8.65 0.50 1.30 1.40 3.40 1.90 4.75 0.55 1.30 2.15 5.15 3.55 8.60 1.40 3.45 3 7.25 3.50 8.50 1.40 3.60 2.75 6.85 5.50 13.50 1.40 3.45 3 7.25 3.50 8.50 1.40 3.60 2.75 6.85 5.50 13.50 1.40 3.45 3 7.30 3.55 8.65 2.20 5.45 2.95 7.30 4.65 11.35 l1.75 4.25 9.55 0.15 9.50 0.10 0 -89.25 0 -89.25 -12.25 0 -12.25 0 0 51.25 0 51.25 -1.75 0 c-1.25 0 -1.85 -0.25 -2.05 -0.85 -0.40 -1.30 -2.15 -5.45 -3.75 -9.05 -0.80 -1.75 -1.45 -3.30 -1.45 -3.55 0 -0.20 -0.65 -1.75 -1.50 -3.45 -0.80 -1.70 -1.50 -3.35 -1.50 -3.60 0 -0.25 -0.65 -1.90 -1.45 -3.60 -0.80 -1.75 -2.15 -4.85 -3.05 -6.90 -0.90 -2.05 -2.25 -5.15 -3.05 -6.90 -0.80 -1.70 -1.45 -3.35 -1.45 -3.60 0 -0.25 -0.65 -1.90 -1.50 -3.60 -0.80 -1.70 -1.50 -3.25 -1.50 -3.45 0 -0.25 -0.65 -1.80 -1.45 -3.55 -0.80 -1.75 -2.60 -5.95 -4.05 -9.40 -1.45 -3.45 -3.25 -7.65 -4.05 -9.40 -0.80 -1.75 -1.45 -3.30 -1.45 -3.55 0 -0.20 -0.65 -1.75 -1.50 -3.45 -0.80 -1.70 -1.50 -3.35 -1.50 -3.60 0 -0.25 -0.65 -1.90 -1.45 -3.60 -0.80 -1.75 -2.15 -4.80 -3 -6.75 -0.85 -2 -2.25 -5.20 -3.15 -7.15 l-1.60 -3.50 -9.90 0 -9.90 0 0 89.25 0 89.25 12.50 0 12.50 0 0 -54.25z m680 2.75 l0 -51.45 1.15 -0.60 c0.60 -0.35 1.20 -0.75 1.35 -0.95 0.15 -0.20 1.85 -1.20 3.80 -2.20 8.70 -4.45 16.70 -3.20 18.75 3 0.55 1.55 0.70 12.45 0.85 52.85 l0.15 50.85 13.45 0 13.50 0 -0.10 -54.10 c-0.15 -51.50 -0.20 -54.35 -1.10 -57.75 -0.55 -2 -1.15 -3.65 -1.40 -3.65 -0.20 0 -0.40 -0.45 -0.40 -1 0 -0.55 -0.20 -1 -0.50 -1 -0.25 0 -0.50 -0.45 -0.50 -0.95 0 -0.55 -0.15 -1.05 -0.40 -1.15 -0.20 -0.05 -1.10 -1.10 -2.05 -2.30 -2.45 -3.10 -5.60 -5.10 -9.45 -5.90 -4.25 -0.90 -5.25 -0.90 -10 0.10 -3.60 0.70 -12.60 4.45 -12.60 5.20 0 0.20 -0.65 0.65 -1.50 1 -0.80 0.35 -1.50 0.80 -1.50 1.05 0 0.20 -0.40 0.50 -0.90 0.65 -0.50 0.20 -1.80 1.10 -2.90 2.10 -3.40 3.15 -4.30 3.70 -6 3.70 l-1.70 0 0 -6.20 0 -6.15 -3.85 -0.35 c-4.90 -0.40 -14.90 -0.40 -19.80 0 l-3.85 0.35 0 63.15 0 63.20 13.75 0 13.75 0 0 -51.50z m167.10 46.65 c0.50 -2.70 1.50 -8.70 2.35 -13.40 2.70 -15.15 4.05 -23 4.05 -23.35 0 -0.65 34.40 -0.50 34.75 0.10 0.25 0.45 5.35 29.70 6.55 37.50 0.15 0.95 0.35 2.25 0.50 2.90 l0.20 1.10 13.50 0 c7.45 0 13.50 -0.15 13.50 -0.40 0 -0.20 -8 -40.30 -17.75 -89.10 -9.75 -48.80 -17.75 -88.80 -17.75 -88.85 0 -0.10 -7.30 -0.15 -16.20 -0.15 l-16.20 0 -0.55 2.40 c-0.30 1.30 -6.40 31.70 -13.55 67.60 -18.25 91.50 -21.50 107.95 -21.50 108.25 0 0.15 6.15 0.25 13.65 0.25 l13.65 0 0.80 -4.85z m246.90 -58.40 l0 -63.25 -1.35 -0.05 c-8.30 -0.35 -11.95 -0.40 -18.25 -0.15 l-7.40 0.30 0 63.20 0 63.20 13.50 0 13.50 0 0 -63.25z m248.50 -26 l0 -89.25 -13.75 0 -13.75 0 0 89.25 0 89.25 13.75 0 13.75 0 0 -89.25z m60 26.10 l0 -63.20 -7.25 -0.30 c-4 -0.15 -10.10 -0.15 -13.50 0 l-6.25 0.30 0 63.20 0 63.15 13.50 0 13.50 0 0 -63.15z m166 11.90 c0 -50.60 0 -51.25 1 -52.25 0.55 -0.55 1.20 -1 1.45 -1 0.25 0 0.80 -0.30 1.15 -0.60 3.85 -3.60 14 -5.40 17.90 -3.15 2.10 1.25 3.35 3.60 4 7.60 0.30 1.70 0.50 23.05 0.50 51.80 l0 48.85 13.50 0 13.50 0 0.05 -32.35 c0.05 -57.75 -0.10 -72.55 -0.60 -75.50 -1 -5.75 -1.10 -6.20 -1.50 -6.45 -0.25 -0.15 -0.45 -0.70 -0.45 -1.25 0 -0.50 -0.20 -0.95 -0.50 -0.95 -0.25 0 -0.50 -0.45 -0.50 -1 0 -0.55 -0.20 -1 -0.50 -1 -0.25 0 -0.50 -0.40 -0.50 -0.95 0 -1.15 -4.70 -5.60 -7.30 -6.95 -3.20 -1.60 -6.90 -2.25 -10.60 -1.90 -3.50 0.40 -10.25 2.20 -10.50 2.90 -0.10 0.20 -0.50 0.40 -0.90 0.40 -0.80 0 -2.55 0.90 -3.60 1.85 -0.35 0.35 -1 0.65 -1.40 0.65 -0.40 0 -0.85 0.35 -1 0.75 -0.15 0.40 -0.70 0.85 -1.20 1 -0.50 0.15 -1.50 0.85 -2.30 1.55 -0.80 0.70 -2.40 1.95 -3.55 2.75 -1.20 0.85 -2.15 1.70 -2.15 1.95 0 0.30 -0.90 0.50 -2 0.50 l-1.95 0 -0.15 -6.35 -0.15 -6.40 -11.25 -0.10 c-6.20 0 -12.30 0.05 -13.60 0.20 l-2.40 0.25 0 63.20 0 63.20 13.75 0 13.75 0 0 -51.25z m-777 20.75 l0 -13.50 -13 0 -13 0 0 13.50 0 13.50 13 0 13 0 0 -13.50z m0 -75.70 c0 -7.30 -0.15 -13.30 -0.35 -13.40 -0.25 -0.10 -6.10 -0.10 -13 0 l-12.65 0.20 0 13.20 0 13.20 13 0 13 0 0 -13.20z m302.50 -55.30 l0 -11 -13.50 0 -13.50 0 0 10.95 c0 9.85 0.10 11 0.85 11.15 0.45 0.10 6.50 0.10 13.50 0 l12.65 -0.15 0 -10.95z m307.65 11.05 c0.80 -0.05 0.85 -0.90 0.85 -11.05 l0 -11 -13.50 0 -13.50 0 0 11 0 10.95 6.15 0.15 c4.95 0.15 15.95 0.10 20 -0.05z"/>
  <path d="M1425.95 165.55 c-1.30 -0.50 -3.30 -1.45 -4.50 -2.10 l-2.20 -1.20 -0.10 -42 c-0.10 -47.45 -0.55 -42.75 4.10 -45.50 3.95 -2.35 5.70 -2.80 10.50 -2.90 4.20 -0.10 4.65 0 6.85 1.40 1.80 1.15 2.65 2.15 3.65 4.35 2.55 5.65 2.75 8.70 2.50 43.65 -0.15 29.55 -0.25 32.25 -1.15 35.50 -1.20 4.45 -2.10 6.10 -4.15 8 -1.65 1.45 -1.85 1.50 -7.45 1.60 -4.55 0.10 -6.25 -0.10 -8.05 -0.80z"/>
  <path d="M246.15 166.50 c-2.55 -0.50 -5.55 -2.40 -5.95 -3.75 -0.20 -0.55 -0.50 -1.10 -0.75 -1.25 -0.20 -0.15 -0.80 -1.60 -1.30 -3.25 -0.80 -2.70 -0.90 -6.25 -1.05 -37 -0.10 -29.75 -0.05 -34.50 0.65 -38 0.85 -4.15 2.80 -8 4.50 -8.95 0.55 -0.30 1.15 -0.75 1.35 -1.05 0.20 -0.25 2.80 -0.55 5.75 -0.65 4.90 -0.15 5.60 -0.05 7.40 1 2.45 1.45 4.45 4.90 5.35 9.40 0.95 4.60 0.95 70.05 0 73.75 -1.60 6.40 -3.75 8.85 -8.55 9.75 -3.05 0.55 -4.40 0.55 -7.40 0z"/>
  <path d="M560.85 107.15 c-0.55 -0.50 -0.40 -16.20 0.20 -20.50 1.40 -10.45 4.05 -13.10 12.85 -13.15 5.40 0 7.65 0.85 9.50 3.65 2.25 3.35 2.70 6.30 2.95 18.75 l0.25 11.60 -12.70 0 c-7 0 -12.90 -0.15 -13.05 -0.35z"/>
  <path d="M1014.15 166.50 c-2.55 -0.50 -5.55 -2.40 -5.95 -3.75 -0.20 -0.55 -0.50 -1.10 -0.75 -1.25 -0.20 -0.15 -0.80 -1.60 -1.30 -3.25 -0.80 -2.70 -0.90 -6.25 -1.05 -37 -0.10 -29.75 -0.05 -34.50 0.65 -38 0.85 -4.15 2.80 -8 4.50 -8.95 0.55 -0.30 1.15 -0.75 1.35 -1.05 0.20 -0.25 2.80 -0.55 5.75 -0.65 4.90 -0.15 5.60 -0.05 7.40 1 2.45 1.45 4.45 4.90 5.35 9.40 0.95 4.60 0.95 70.05 0 73.75 -1.60 6.40 -3.75 8.85 -8.55 9.75 -3.05 0.55 -4.40 0.55 -7.40 0z"/>
  <path d="M1901.10 95.40 c0.20 -11.50 0.25 -12.30 1.40 -14.90 0.65 -1.50 1.65 -3.35 2.20 -4.10 1.50 -2.10 4.85 -3.15 9.60 -3.10 5.75 0.10 7.85 1.30 10.05 5.70 1.40 2.80 1.70 4.10 2.15 9.25 0.30 3.30 0.50 8.95 0.40 12.50 l-0.15 6.50 -12.95 0.15 -12.90 0.10 0.20 -12.10z"/>
  <path d="M1295.25 122.45 c-0.50 -0.75 -0.05 -4 2.75 -21.20 1.35 -8.25 2.70 -16.45 3 -18.25 0.30 -1.80 1.65 -10 2.95 -18.25 1.35 -8.25 2.60 -16.05 2.80 -17.35 l0.30 -2.40 2 0 c1.75 0 1.95 0.10 1.95 1.30 0 1.05 1.80 12.65 4.45 28.45 0.30 1.65 1.45 8.75 2.55 15.75 1.10 7 2.70 16.80 3.50 21.75 0.85 4.95 1.50 9.40 1.50 9.90 0 0.80 -1 0.85 -13.70 0.85 -9.25 0 -13.85 -0.20 -14.05 -0.55z"/>
 </g>
 <g fill="#323f52">
  <path d="M1390.45 226.80 c-0.10 -0.10 -0.15 -38.90 -0.05 -86.15 l0.10 -85.90 15.15 0.10 15.10 0.10 0.05 4.35 c0 2.40 0.25 4.45 0.50 4.55 0.25 0.10 1.50 -0.75 2.70 -1.85 1.20 -1.10 2.60 -2.15 3.10 -2.30 0.50 -0.15 0.90 -0.50 0.90 -0.75 0 -0.25 0.45 -0.45 1 -0.45 0.55 0 1 -0.20 1 -0.40 0 -0.55 2.80 -1.85 7.45 -3.50 3.25 -1.10 4.60 -1.30 9.55 -1.30 6.60 0 8.25 0.30 11.75 2.05 2.80 1.40 7.15 5.20 8.20 7.15 0.40 0.70 0.85 1.35 1.05 1.50 0.50 0.35 2.80 5 3.75 7.60 1.30 3.50 2.70 8.95 3.05 11.90 0.15 1.50 0.40 3.20 0.50 3.75 0.25 1.35 0.20 57.05 -0.05 61.60 -0.10 1.95 -0.35 4.20 -0.50 5 -0.15 0.75 -0.45 2.10 -0.60 2.90 -0.45 2.40 -0.55 3 -0.65 3 -0.05 0 -0.20 0.60 -0.30 1.40 -0.20 2.05 -2.10 7.20 -3.80 10.45 -5.30 10.05 -13.65 15.05 -24.40 14.55 -4.95 -0.20 -6.70 -0.65 -11.20 -2.65 -2.45 -1.10 -8.30 -4.70 -8.80 -5.40 -0.65 -0.95 -3.95 -3.10 -4.15 -2.75 -0.15 0.20 -0.20 11.95 -0.10 26.05 l0.10 25.60 -15.10 0 c-8.30 0 -15.20 -0.10 -15.30 -0.20z m49.50 -63.55 c2.40 -2.15 3.60 -4.80 4.30 -9.50 0.05 -0.25 0.15 -0.60 0.20 -0.75 0.45 -0.80 0.55 -7.20 0.70 -33.50 0.20 -31.75 0 -35.10 -2.40 -40.40 -1.35 -2.90 -3.95 -5.15 -6.40 -5.50 -4.25 -0.55 -7.40 0.15 -11.60 2.65 -4.60 2.70 -4.20 -1.70 -4.10 44 l0.10 40.50 2.20 1.20 c4.25 2.35 6.55 2.95 11.05 2.85 3.95 -0.05 4.35 -0.15 5.95 -1.55z"/>
  <path d="M788 177.30 l0 -11.80 2.65 -0.05 c5.25 -0.10 8.25 -0.55 12.10 -1.80 3.20 -1.05 6.50 -4.30 7.30 -7.25 0.30 -1.20 0.55 -2.20 0.55 -2.25 -0.05 -0.10 0.20 -0.85 0.50 -1.75 0.40 -1.15 0.55 -24.05 0.60 -75.40 l0.05 -73.75 16.50 -0.15 16.50 -0.10 -0.10 72.60 c-0.10 70.10 -0.30 84.15 -1.15 84.15 -0.05 0 -0.20 0.55 -0.30 1.25 -0.25 1.90 -0.50 3.05 -1.10 5.25 -0.30 1.10 -0.55 2.10 -0.50 2.25 0.30 0.90 -4.20 7.95 -6.80 10.65 -4.60 4.90 -10.05 7.30 -20.30 9.15 -0.95 0.15 -7.30 0.40 -14.10 0.55 l-12.40 0.25 0 -11.80z"/>
  <path d="M1670 186.90 c-0.15 -0.15 -1.70 -0.40 -3.50 -0.55 -1.80 -0.15 -3.60 -0.40 -4 -0.55 -0.40 -0.10 -1.70 -0.35 -2.85 -0.50 -9.10 -1.15 -20.60 -8.45 -25.65 -16.30 -0.80 -1.25 -1.70 -2.50 -2 -2.85 -1.20 -1.45 -4.10 -8.80 -5.20 -13.30 -2.90 -11.60 -3.05 -14.75 -3.05 -58.85 0 -34.90 0.20 -44.50 1 -49.25 0.30 -1.75 0.75 -4.50 1.05 -6.10 1 -5.65 2.50 -10.35 4.85 -14.95 2.40 -4.75 7.75 -11.95 9.25 -12.40 0.45 -0.15 1.45 -0.85 2.15 -1.50 1.70 -1.55 7.70 -4.60 11.65 -5.90 6.30 -2.05 12.90 -2.80 22.80 -2.65 5.10 0.05 9.95 0.25 10.75 0.45 0.85 0.20 2.20 0.45 3 0.55 0.85 0.10 2.30 0.40 3.25 0.75 1.80 0.55 2.75 0.85 4.45 1.20 1.80 0.40 7.10 3.35 10 5.55 2.40 1.85 5.40 4.85 6.95 7 2 2.75 3.60 5.60 3.60 6.30 0 0.45 0.20 0.95 0.40 1.05 0.45 0.15 2.85 7.50 3.60 10.95 1.05 4.90 1.55 12.10 1.55 22.10 0 5.75 -0.10 10.55 -0.30 10.75 -0.15 0.15 -7.25 0.35 -15.75 0.35 l-15.50 0.05 0 -8.80 c-0.05 -18.25 -0.65 -23.10 -3.60 -28.20 -1.65 -2.85 -4.50 -5 -7.40 -5.55 -4.70 -0.95 -15.50 0 -15.50 1.35 0 0.20 -0.35 0.40 -0.75 0.40 -1.25 0 -5.55 5.35 -6.05 7.50 -0.10 0.55 -0.30 1.45 -0.40 2 -0.15 0.55 -0.35 1.15 -0.45 1.40 -0.30 0.40 -0.60 2.40 -1.15 6.85 -0.20 1.65 -0.35 23.80 -0.35 49.25 0.05 40.90 0.15 46.80 0.90 51 0.95 5.35 1.80 8.50 2.35 8.50 0.25 0 0.40 0.30 0.40 0.65 0 0.75 3.30 4.35 5 5.40 1.10 0.70 2.40 1.15 5 1.80 2.10 0.50 8 0.45 10.35 -0.10 3.90 -0.90 6.25 -2.75 8.10 -6.40 0.85 -1.70 1.65 -3.60 1.80 -4.20 0.15 -0.65 0.35 -1.65 0.50 -2.25 0.65 -2.80 0.85 -5.95 1.10 -18.15 0.15 -7.15 0.35 -13.10 0.50 -13.25 0.15 -0.15 7.20 -0.20 15.75 -0.20 l15.50 0.10 -0.10 11.15 c0 6.15 -0.15 12.05 -0.25 13.05 -0.20 2.40 -0.70 5.80 -1 7.40 -0.15 0.70 -0.40 2.05 -0.55 3 -0.15 0.95 -0.65 2.75 -1.05 4 -0.40 1.25 -0.80 2.60 -0.90 3 -1.45 6.05 -7.55 15.25 -12.25 18.45 -0.95 0.70 -1.85 1.40 -2 1.55 -0.15 0.20 -1.25 0.90 -2.50 1.50 -1.25 0.60 -2.35 1.30 -2.50 1.45 -0.45 0.65 -8.70 3.15 -12.75 3.85 -4.05 0.75 -17.80 1.55 -18.25 1.10z"/>
  <path d="M244.35 186.20 c-0.05 -0.05 -1.20 -0.20 -2.60 -0.40 -9.50 -1.15 -17.70 -5.05 -22.95 -10.85 -1.30 -1.50 -2.65 -3.20 -2.95 -3.80 -0.25 -0.65 -0.70 -1.15 -0.95 -1.15 -0.20 0 -0.40 -0.45 -0.40 -1 0 -0.55 -0.20 -1 -0.45 -1 -0.60 0 -3.25 -6.95 -4.25 -11.05 -0.40 -1.85 -0.95 -4.85 -1.15 -6.75 -0.50 -4.55 -0.45 -58.15 0.05 -61.70 0.25 -1.50 0.40 -3.10 0.40 -3.50 0.05 -0.40 0.25 -1.05 0.55 -1.35 0.25 -0.35 0.35 -0.65 0.20 -0.65 -0.30 0 0.70 -3.75 1.90 -6.90 2.40 -6.55 7.35 -13.35 11.65 -15.90 0.90 -0.50 1.60 -1.05 1.60 -1.20 0 -0.20 1.20 -0.85 2.60 -1.45 1.45 -0.65 3 -1.35 3.45 -1.55 0.40 -0.20 2.75 -0.90 5.25 -1.55 3.75 -0.95 5.75 -1.15 12.95 -1.15 4.70 -0.05 9.40 0.10 10.50 0.35 1.15 0.20 2.50 0.45 3 0.55 2.65 0.55 8.50 2.85 11.10 4.35 2.70 1.60 7.05 5.50 9.50 8.55 2.45 3.05 5.45 9.95 6.60 15.15 1.45 6.75 1.60 9.75 1.60 36.30 0.05 28.75 -0.05 31.10 -1.30 36.95 -0.65 3.05 -0.75 3.55 -1 4.40 -1.70 6.60 -7.50 15.70 -11.75 18.45 -0.95 0.65 -2 1.35 -2.30 1.60 -2.30 1.90 -9.35 4.50 -15.20 5.60 -2.65 0.50 -15.20 1.05 -15.65 0.65z m9.90 -21.75 c3.60 -1.15 5.65 -4.60 6.65 -11.20 0.20 -1.35 0.35 -16.65 0.35 -34 0 -34.10 -0.10 -35.80 -2.65 -40.50 -1.95 -3.60 -4.25 -4.75 -9.25 -4.60 -2.15 0.10 -4.05 0.35 -4.25 0.60 -0.20 0.30 -0.80 0.75 -1.35 1.05 -1.65 0.90 -3.65 4.75 -4.45 8.70 -0.65 3.20 -0.75 8.35 -0.65 36.50 0.10 29.60 0.20 33.05 1 35.75 0.50 1.65 1.10 3.10 1.30 3.25 0.25 0.15 0.55 0.70 0.75 1.25 0.40 1.35 3.45 3.25 5.95 3.70 2.20 0.40 4.10 0.25 6.60 -0.50z"/>
  <path d="M568.35 186.20 c-0.05 -0.05 -1.20 -0.20 -2.60 -0.40 -3.20 -0.40 -5.25 -0.75 -6.50 -1.15 -1.15 -0.40 -1.55 -0.50 -3.10 -0.85 -0.65 -0.15 -2.75 -1.10 -4.75 -2.15 -3.90 -2 -11 -8.45 -11.60 -10.50 -0.20 -0.65 -0.55 -1.15 -0.75 -1.15 -1.40 0 -5.40 -12.25 -6.50 -19.85 -0.55 -3.80 -0.45 -59.75 0.15 -62.65 0.15 -0.95 0.55 -2.75 0.85 -4 0.25 -1.25 0.55 -2.75 0.70 -3.35 0.10 -0.60 0.45 -1.55 0.75 -2.10 0.30 -0.60 0.40 -1.05 0.25 -1.05 -0.15 0 0.85 -2.25 2.25 -4.95 1.85 -3.65 3.50 -5.95 6 -8.50 1.85 -1.95 3.60 -3.55 3.90 -3.55 0.30 0 0.85 -0.30 1.20 -0.70 2.10 -2.10 8.35 -4.40 15.05 -5.60 4.05 -0.70 17.35 -0.70 20.50 0 0.75 0.15 1.85 0.40 2.50 0.50 7 1.25 16.45 7.75 19.45 13.50 0.30 0.55 0.75 1.20 1 1.35 1.15 0.75 4.10 10.25 5.10 16.35 1.25 7.95 1.30 8.80 1.35 22.35 l0 13 -25.65 0.25 -25.65 0.25 -0.10 13.50 c-0.10 18.70 0.55 23.10 4.05 26.55 2.35 2.40 4.55 3.15 8.45 2.95 4.15 -0.25 6.70 -1.90 8.50 -5.50 1.15 -2.30 1.40 -4.35 1.65 -13 0.15 -4.40 0.30 -8.20 0.40 -8.45 0.05 -0.30 6 -0.55 14.25 -0.60 l14.20 -0.10 -0.35 8.60 c-0.15 4.75 -0.45 9.10 -0.55 9.70 -0.15 0.60 -0.35 1.60 -0.50 2.25 -0.90 4.20 -1.50 6.35 -2.30 7.95 -0.55 1.05 -0.95 2.15 -0.95 2.50 0 2 -8.55 11.85 -10.90 12.60 -0.60 0.20 -1.10 0.60 -1.10 0.85 0 0.25 -0.35 0.45 -0.75 0.45 -0.45 0 -1.85 0.55 -3.20 1.20 -2.40 1.25 -7 2.50 -11.15 3.05 -2.20 0.30 -13.30 0.70 -13.55 0.45z m16.50 -90.30 c-0.25 -10.80 -0.80 -14.05 -2.95 -17.25 -1.55 -2.35 -4 -3.50 -7.75 -3.60 -6.25 -0.25 -9.60 2.65 -10.95 9.35 -0.10 0.60 -0.30 1.70 -0.45 2.50 -0.40 1.95 -0.80 18.10 -0.50 18.65 0.20 0.25 5.25 0.45 11.60 0.45 l11.25 0 -0.25 -10.10z"/>
  <path d="M908.40 186.25 c-0.10 -0.10 -1.40 -0.30 -2.90 -0.45 -3 -0.35 -4.75 -0.60 -4.75 -0.75 0 -0.10 -0.30 -0.20 -2.50 -0.75 -1.85 -0.40 -7 -2.95 -10.25 -5.10 -6.65 -4.30 -12.25 -12.30 -15.95 -22.80 l-1.45 -3.95 2.10 -0.95 c3.05 -1.35 6.50 -2.70 11.30 -4.50 2.35 -0.85 5.30 -2.05 6.60 -2.65 1.35 -0.55 2.50 -0.95 2.60 -0.80 0.05 0.10 0.75 1.95 1.50 4.10 4.20 12.45 9.55 17.50 17.95 17.15 4.30 -0.15 7.15 -1.50 8.65 -3.95 1.20 -2.10 1.30 -2.55 1.30 -6.35 0.05 -3.15 -1.65 -8.50 -2.65 -8.50 -0.20 0 -0.50 -0.40 -0.65 -0.85 -0.40 -1.20 -3.85 -4.80 -7.80 -8.15 -1.80 -1.50 -3.35 -2.85 -3.50 -3 -0.15 -0.15 -1.50 -1.25 -3 -2.45 -1.50 -1.20 -3.10 -2.55 -3.50 -3 -0.40 -0.45 -2 -1.80 -3.50 -3.05 -6.20 -5 -13.90 -12.75 -16.55 -16.50 -0.65 -0.95 -1.60 -2.05 -2.05 -2.40 -0.50 -0.35 -0.90 -1.10 -0.90 -1.60 0 -0.50 -0.20 -1 -0.50 -1.10 -0.70 -0.20 -2.85 -6.35 -3.50 -9.90 -0.95 -5.15 -0.70 -11.90 0.60 -16.75 0.25 -1.10 0.45 -2.05 0.45 -2.15 -0.05 -0.05 0.85 -1.95 2 -4.15 1.90 -3.70 5.10 -7.50 8.55 -10.35 2.20 -1.75 8.80 -4.90 12.90 -6.15 5.10 -1.55 17.10 -1.70 21.75 -0.25 0.30 0.10 1.20 0.35 2 0.55 2.40 0.65 8.10 3.50 10.10 5.10 3.65 2.80 7.50 7.20 8.70 9.95 0.55 1.15 1.20 2.20 1.45 2.30 0.75 0.25 3.25 7.20 4.65 12.95 0.35 1.35 -0.30 1.75 -10.40 6.05 -1.90 0.85 -4.65 2.05 -6.05 2.65 -2.60 1.20 -3.70 1 -3.70 -0.60 0 -1.75 -3.85 -11.15 -4.55 -11.15 -0.25 0 -0.45 -0.30 -0.45 -0.65 0 -0.75 -3.10 -3.75 -5.20 -5.05 -3.40 -2.15 -9 -1.90 -12.15 0.50 -4.80 3.65 -5 10.55 -0.50 16.10 2.25 2.75 9.25 9.45 16.25 15.50 5.70 4.90 16.15 15 20.60 19.90 1.15 1.25 5 7.50 5 8.15 0 0.25 0.15 0.55 0.40 0.65 0.40 0.20 2.60 6.50 3 8.65 0.35 2.15 0.35 11.70 0 13.50 -0.70 3.20 -0.85 3.70 -1.40 4.70 -0.30 0.60 -0.40 1.05 -0.25 1.05 0.85 0 -3.70 7.35 -6.15 9.95 -5.15 5.45 -11.65 8.80 -20.35 10.60 -2.20 0.45 -13 1 -13.35 0.70z"/>
  <path d="M1010.75 185.95 c-1.10 -0.20 -3 -0.50 -4.25 -0.65 -3.70 -0.50 -10.30 -3.05 -13.70 -5.30 -3.30 -2.10 -6.85 -5.55 -8.60 -8.25 -0.50 -0.85 -1.05 -1.60 -1.20 -1.75 -2.10 -2 -5.60 -12.90 -6.35 -19.90 -0.50 -4.45 -0.45 -58.10 0.05 -61.60 0.25 -1.50 0.40 -3.10 0.40 -3.50 0.05 -0.40 0.25 -1.05 0.55 -1.35 0.25 -0.35 0.35 -0.65 0.20 -0.65 -0.30 0 0.70 -3.75 1.90 -6.90 2.40 -6.60 7.45 -13.40 11.85 -16 0.75 -0.45 1.40 -0.95 1.40 -1.10 0 -0.20 1.20 -0.85 2.65 -1.45 1.40 -0.65 2.95 -1.35 3.40 -1.55 0.40 -0.20 2.75 -0.90 5.25 -1.55 3.75 -0.95 5.75 -1.15 12.95 -1.15 4.70 -0.05 9.40 0.10 10.50 0.35 1.15 0.20 2.50 0.45 3 0.55 2.65 0.55 8.50 2.85 11.10 4.35 2.70 1.60 7.05 5.50 9.50 8.55 1.40 1.70 4.45 7.70 5.35 10.50 0.80 2.45 1.55 5.75 2.30 10.30 0.55 3.05 0.80 58.35 0.30 61.10 -0.15 0.70 -0.35 2.30 -0.55 3.60 -0.15 1.30 -0.40 2.65 -0.50 3 -0.10 0.35 -0.35 1.20 -0.45 1.90 -1.45 7.65 -7.35 17.65 -12.30 20.85 -0.95 0.65 -2 1.35 -2.30 1.60 -2.30 1.90 -9.35 4.50 -15.20 5.60 -3.75 0.70 -14.30 0.95 -17.25 0.40z m11.50 -21.50 c3.60 -1.15 5.65 -4.60 6.65 -11.20 0.20 -1.35 0.35 -16.65 0.35 -34 0 -34.10 -0.10 -35.80 -2.65 -40.50 -1.95 -3.60 -4.25 -4.75 -9.25 -4.60 -2.15 0.10 -4.05 0.35 -4.25 0.60 -0.20 0.30 -0.80 0.75 -1.35 1.05 -1.60 0.90 -3.65 4.75 -4.40 8.45 -0.65 2.95 -0.75 8.90 -0.65 36.50 0.05 29.90 0.15 33.30 0.95 36 0.50 1.65 1.10 3.10 1.30 3.25 0.25 0.15 0.55 0.70 0.75 1.25 0.40 1.35 3.45 3.25 5.95 3.70 2.20 0.40 4.10 0.25 6.60 -0.50z"/>
  <path d="M1906.75 185.95 c-1.10 -0.20 -3.10 -0.50 -4.45 -0.65 -1.35 -0.20 -2.85 -0.55 -3.40 -0.85 -0.50 -0.25 -0.90 -0.35 -0.90 -0.20 0 0.15 -0.65 -0.05 -1.50 -0.50 -0.80 -0.45 -1.50 -0.65 -1.50 -0.50 0 0.45 -4 -1.70 -7.05 -3.80 -6.40 -4.35 -11.75 -13 -13.90 -22.70 -1.80 -8.10 -2 -11.65 -1.80 -38.75 0.15 -25.95 0.25 -28.70 1.30 -33.50 0.25 -1.25 0.55 -2.70 0.70 -3.25 0.80 -4.15 3.25 -9.80 5.90 -13.75 1.95 -2.85 6.35 -7.30 7.75 -7.70 0.60 -0.20 1.10 -0.55 1.10 -0.75 0 -0.70 6.60 -3.40 11.25 -4.60 3.80 -0.95 5.80 -1.15 13 -1.15 9.50 -0.05 11.70 0.20 17.50 2.10 5 1.65 10.05 5 13.05 8.75 0.95 1.15 1.90 2.35 2.15 2.65 2 2.50 5.05 10.75 6.30 17.20 1.15 5.95 1.25 7.40 1.55 22.65 l0.35 14.35 -25.85 0 -25.90 0 0.20 16.65 c0.15 14.50 0.30 16.90 1.10 19.10 1.95 5.40 4.65 7.35 10.30 7.40 3.30 0 5.65 -0.80 7.55 -2.60 0.80 -0.75 2.30 -3.85 2.75 -5.65 0.10 -0.50 0.30 -1.40 0.45 -2 0.15 -0.65 0.35 -4.75 0.50 -9.15 l0.20 -8 14.15 0 14.10 0 -0.05 4.50 c-0.15 6.05 -0.60 13.25 -0.90 14.65 -0.15 0.60 -0.35 1.60 -0.50 2.25 -0.95 4.45 -1.55 6.45 -2.90 9.10 -1.90 3.90 -5.65 9.10 -7 9.85 -0.60 0.30 -1.75 1.30 -2.65 2.20 -0.85 0.95 -2.25 1.85 -3.15 2 -0.85 0.20 -1.55 0.50 -1.55 0.75 0 0.25 -0.45 0.45 -1 0.45 -0.55 0 -1 0.20 -1 0.40 0 0.35 -5.90 2 -10.40 2.85 -2.40 0.50 -13.50 0.60 -15.85 0.20z m18.60 -85.45 c0.05 -2.90 -0.10 -7.85 -0.35 -11 -0.75 -8.70 -3.35 -13.30 -8.10 -14.30 -4.15 -0.90 -9.15 0.40 -10.75 2.70 -1.15 1.75 -2.70 5.10 -2.30 5.10 0.15 0 0.05 0.30 -0.20 0.65 -0.65 0.80 -0.65 0.40 -0.95 12.25 l-0.30 10.10 11.40 -0.10 11.35 -0.15 0.20 -5.25z"/>
  <path d="M360.35 185.70 c-0.10 -0.10 -1.35 -0.30 -2.80 -0.45 -1.45 -0.15 -3.05 -0.50 -3.60 -0.75 -0.50 -0.30 -0.95 -0.45 -0.95 -0.30 0 0.50 -5.10 -1.70 -7.30 -3.25 -6.10 -4.10 -8.90 -8.85 -10.65 -17.95 -0.90 -4.70 -0.95 -7.20 -1 -48.10 l-0.05 -39.90 -6.50 0 -6.50 0 0.10 -10.10 0.15 -10.15 6.25 -0.10 6.25 -0.05 0.15 -19.20 0.10 -19.15 14.95 0.05 c8.25 0.05 15.20 0.20 15.45 0.40 0.30 0.20 0.50 7.10 0.45 19.10 l0 18.75 9.80 0 9.85 0 0 10.20 0 10.25 -9.85 0.10 -9.90 0.15 0.05 38.75 c0 28.10 0.20 39.30 0.60 40.80 0.85 2.95 3.75 5.80 6.65 6.55 1.50 0.35 8.55 0.30 11.30 -0.10 l2.10 -0.30 0.15 11.75 0.15 11.70 -3.50 0.35 c-1.90 0.20 -3.95 0.45 -4.50 0.55 -1.35 0.30 -17.15 0.65 -17.40 0.40z"/>
  <path d="M680.45 185.85 c-0.10 -0.15 -2.20 -0.35 -4.70 -0.50 -4.75 -0.35 -9.65 -1.80 -13.50 -4.05 -2.55 -1.55 -6.05 -4.85 -6.50 -6.25 -0.15 -0.60 -0.55 -1.05 -0.80 -1.05 -0.25 0 -0.45 -0.45 -0.45 -1 0 -0.55 -0.20 -1 -0.45 -1 -0.25 0 -0.55 -0.50 -0.70 -1.10 -0.15 -0.65 -0.70 -2.70 -1.25 -4.65 -0.55 -1.90 -1.10 -4.40 -1.30 -5.50 -0.15 -1.10 -0.30 -20.85 -0.30 -43.85 l0 -41.90 -6.65 0 -6.65 0 0.10 -6.85 c0.10 -3.80 0.15 -8.40 0.15 -10.20 l0.05 -3.30 5.15 0 c2.80 -0.05 5.70 -0.05 6.50 -0.10 l1.35 -0.05 0 -19 0 -19 4.65 0 c2.50 -0.05 9.35 -0.05 15.10 -0.05 l10.50 -0.05 0.25 19.10 0.25 19.10 9.65 0.10 9.65 0.05 0.10 10.15 0.10 10.10 -9.90 0 -9.90 0 0.20 39.65 c0.15 43.40 0.05 41.90 3.15 44.60 2.60 2.25 6.45 2.85 14.45 2.25 l3 -0.25 0.15 11.55 0.10 11.55 -3.10 0.35 c-1.75 0.20 -4.05 0.45 -5.15 0.55 -3.40 0.35 -13.05 0.80 -13.30 0.60z"/>
  <path d="M2129.35 185.70 c-0.05 -0.05 -1 -0.25 -2.10 -0.40 -7.95 -1.20 -14 -4.50 -18.10 -9.90 -2.25 -3 -4.65 -10.30 -5.35 -16.40 -0.15 -1.25 -0.25 -20.65 -0.25 -43.10 l-0.05 -40.90 -6.50 0 -6.50 0 0 -9.95 c0 -9.25 0.05 -10 0.95 -10.30 0.50 -0.15 3.35 -0.20 6.35 -0.15 l5.45 0.10 0.15 -19.10 c0.05 -10.50 0.30 -19.10 0.50 -19.15 0.20 0 7.05 -0.05 15.25 -0.10 l14.90 -0.10 -0.05 18.90 c-0.05 16.30 0.05 18.90 0.70 19.15 0.40 0.15 4.90 0.35 9.90 0.40 l9.15 0.10 0.15 10.10 0.10 10.10 -10 0 -10 0 0.10 39.40 c0.15 38.10 0.20 39.40 1.15 41.70 2.20 5.15 5.90 6.15 18.65 5.25 l1.20 -0.10 0.05 11.60 0.10 11.65 -1.25 0.05 c-0.70 0 -1.65 0.10 -2.10 0.20 -3 0.55 -22.10 1.35 -22.55 0.95z"/>
  <path d="M1347.15 184.60 l-15.15 -0.10 -0.20 -1.15 c-0.15 -0.60 -0.35 -1.90 -0.50 -2.85 -1.20 -7.80 -6.30 -37.05 -6.55 -37.50 -0.20 -0.30 -5.75 -0.50 -16.05 -0.50 -14.60 0 -15.70 0.05 -15.75 0.90 -0.05 1.15 -0.50 4.05 -1.25 7.80 -0.10 0.55 -0.30 1.75 -0.45 2.55 -0.40 2.45 -0.70 3.90 -0.95 5.25 -0.15 0.65 -0.40 2 -0.55 3 -0.15 1 -0.35 2.25 -0.45 2.85 -0.15 0.55 -0.35 1.85 -0.50 2.85 -0.15 1 -0.45 2.60 -0.60 3.60 -0.15 1 -0.40 2.25 -0.50 2.75 -0.55 2.60 -0.70 3.30 -1 5.20 -0.15 1.10 -0.40 2.35 -0.45 2.75 -0.10 0.40 -0.20 1.15 -0.20 1.65 -0.05 0.80 -1.15 0.85 -15.60 0.85 l-15.55 0 0.35 -2.35 c0.15 -1.30 0.40 -2.45 0.50 -2.65 0.10 -0.15 0.30 -1.25 0.50 -2.50 0.20 -1.25 0.40 -2.35 0.50 -2.50 0.10 -0.15 0.30 -1.25 0.50 -2.50 0.20 -1.25 0.40 -2.35 0.50 -2.50 0.10 -0.15 0.30 -1.25 0.50 -2.50 0.20 -1.25 0.40 -2.35 0.50 -2.50 0.10 -0.15 0.30 -1.25 0.50 -2.50 0.20 -1.25 0.40 -2.35 0.50 -2.50 0.10 -0.15 0.30 -1.25 0.50 -2.50 0.20 -1.25 0.40 -2.35 0.50 -2.50 0.10 -0.15 0.30 -1.25 0.50 -2.50 0.20 -1.25 0.40 -2.35 0.50 -2.50 0.10 -0.15 0.30 -1.25 0.50 -2.50 0.20 -1.25 0.40 -2.35 0.50 -2.50 0.10 -0.15 0.30 -1.10 0.45 -2.10 0.15 -1.05 0.45 -2.75 0.60 -3.75 0.15 -1.05 0.35 -2 0.45 -2.15 0.10 -0.15 0.30 -1.25 0.50 -2.50 0.20 -1.25 0.40 -2.35 0.50 -2.50 0.10 -0.15 0.30 -1.25 0.50 -2.50 0.20 -1.25 0.40 -2.35 0.50 -2.50 0.10 -0.15 0.30 -1.25 0.50 -2.50 0.20 -1.25 0.40 -2.35 0.50 -2.50 0.10 -0.15 0.30 -1.25 0.50 -2.50 0.20 -1.25 0.40 -2.35 0.50 -2.50 0.10 -0.15 0.30 -1.25 0.50 -2.50 0.20 -1.25 0.40 -2.35 0.50 -2.50 0.10 -0.15 0.30 -1.25 0.50 -2.50 0.20 -1.25 0.40 -2.35 0.50 -2.50 0.10 -0.15 0.30 -1.25 0.50 -2.50 0.20 -1.25 0.40 -2.35 0.50 -2.50 0.10 -0.15 0.30 -1.25 0.50 -2.50 0.20 -1.25 0.40 -2.35 0.50 -2.50 0.10 -0.15 0.30 -1.25 0.50 -2.50 0.20 -1.25 0.40 -2.35 0.50 -2.50 0.10 -0.15 0.30 -1.25 0.50 -2.50 0.20 -1.25 0.40 -2.35 0.50 -2.50 0.10 -0.15 0.30 -1.25 0.50 -2.50 0.20 -1.25 0.40 -2.35 0.50 -2.50 0.10 -0.15 0.30 -1.25 0.50 -2.50 0.20 -1.25 0.40 -2.35 0.50 -2.50 0.10 -0.15 0.30 -1.25 0.50 -2.50 0.20 -1.25 0.40 -2.35 0.50 -2.50 0.10 -0.15 0.30 -1.25 0.50 -2.50 0.20 -1.25 0.40 -2.35 0.50 -2.50 0.10 -0.15 0.30 -1.25 0.50 -2.50 0.20 -1.25 0.40 -2.35 0.50 -2.50 0.10 -0.15 0.30 -1.25 0.50 -2.50 0.20 -1.25 0.40 -2.35 0.50 -2.50 0.10 -0.15 0.30 -1.25 0.50 -2.50 0.20 -1.25 0.40 -2.35 0.50 -2.50 0.10 -0.15 0.30 -1.25 0.50 -2.50 0.20 -1.25 0.40 -2.35 0.50 -2.50 0.10 -0.15 0.30 -1.25 0.50 -2.50 0.20 -1.25 0.40 -2.35 0.50 -2.50 0.10 -0.15 0.30 -1.25 0.50 -2.50 0.20 -1.25 0.40 -2.35 0.50 -2.50 0.10 -0.15 0.30 -1.25 0.50 -2.50 0.20 -1.25 0.40 -2.35 0.50 -2.50 0.10 -0.15 0.30 -1.25 0.50 -2.50 0.20 -1.25 0.40 -2.35 0.50 -2.50 0.15 -0.25 0.65 -2.95 1.05 -5.75 0.05 -0.55 0.15 -1 0.20 -1 0.10 0 0.25 -0.65 0.65 -3 0.15 -0.80 0.45 -2.15 0.60 -3 0.20 -0.80 0.40 -2.05 0.50 -2.75 0.10 -0.70 0.20 -1.25 0.25 -1.25 0.05 0 0.20 -0.55 0.30 -1.25 0.40 -2.10 0.55 -2.70 0.95 -4.10 l0.35 -1.40 17.65 0 17.65 0 0.25 1.15 c1.25 5.25 35.90 179.55 35.75 180 -0.10 0.45 -3.90 0.55 -15.25 0.45z m-26.70 -68 c-0.50 -2.75 -1.25 -7.30 -1.70 -10.15 -1.05 -7.15 -1.10 -7.55 -2.75 -17.45 -1.80 -10.80 -1.85 -11.45 -2.50 -15.75 -0.30 -1.90 -1.30 -8.15 -2.25 -13.85 -0.95 -5.65 -1.75 -10.90 -1.75 -11.60 0 -0.70 -0.25 -1.30 -0.55 -1.30 -0.25 0 -0.35 0.25 -0.20 0.50 0.15 0.30 0.15 0.80 -0.10 1.15 -0.40 0.65 -0.40 0.55 -0.85 4.10 -0.15 1.40 -0.40 3 -0.50 3.55 -0.10 0.60 -0.35 1.95 -0.55 3 -0.15 1.10 -0.40 2.55 -0.50 3.25 -0.15 0.70 -0.35 2.05 -0.45 3 -0.15 0.95 -0.35 2.20 -0.50 2.75 -0.10 0.60 -0.35 1.90 -0.50 2.90 -0.15 1 -0.45 2.60 -0.60 3.60 -0.15 1 -0.40 2.30 -0.50 2.90 -0.10 0.55 -0.35 2.05 -0.50 3.30 -0.15 1.25 -0.35 2.75 -0.50 3.40 -0.10 0.60 -0.30 1.60 -0.40 2.25 -0.15 0.60 -0.35 2.10 -0.50 3.35 -0.15 1.25 -0.40 2.80 -0.55 3.50 -0.10 0.65 -0.35 2 -0.50 3 -0.15 1 -0.35 2.25 -0.45 2.85 -0.15 0.55 -0.35 1.90 -0.55 2.95 -0.15 1.10 -0.40 2.70 -0.55 3.65 -0.15 0.90 -0.35 2.15 -0.50 2.70 -0.40 2.25 -0.85 5.15 -0.90 6.10 -0.05 0.55 -0.20 1.25 -0.35 1.50 -0.15 0.30 -0.35 1.35 -0.40 2.45 -0.05 1.05 -0.10 2.05 -0.15 2.25 0 0.15 0 0.45 0.05 0.70 0 0.20 5.50 0.35 12.20 0.35 l12.15 0 -0.85 -4.90z"/>
  <path d="M411.45 94.50 c-0.05 -49.50 -0.10 -90.30 -0.15 -90.60 -0.05 -0.50 2.65 -0.70 11.45 -0.80 l11.55 -0.10 1.60 3.50 c0.90 1.90 2.30 5.15 3.15 7.15 0.85 1.95 2.20 5 3 6.75 0.80 1.70 1.45 3.35 1.45 3.60 0 0.25 0.70 1.90 1.50 3.60 0.85 1.70 1.50 3.25 1.50 3.45 0 0.25 0.65 1.80 1.45 3.55 0.80 1.75 2.60 5.95 4.05 9.40 1.45 3.45 3.25 7.65 4.05 9.40 0.80 1.75 1.45 3.30 1.45 3.55 0 0.20 0.70 1.75 1.50 3.45 0.85 1.70 1.50 3.35 1.50 3.60 0 0.25 0.65 1.90 1.45 3.60 0.80 1.75 2.15 4.85 3.05 6.90 0.90 2.05 2.25 5.15 3.05 6.90 0.80 1.70 1.45 3.35 1.45 3.60 0 0.25 0.70 1.90 1.50 3.60 0.85 1.70 1.50 3.25 1.50 3.45 0 0.25 0.65 1.80 1.45 3.55 0.75 1.75 1.85 4.30 2.45 5.65 0.55 1.40 1.20 2.95 1.45 3.50 0.20 0.55 0.45 -22.10 0.55 -50.35 l0.10 -51.40 13.75 0 13.75 0 0 90.75 0 90.75 -11 -0.10 -11.05 -0.15 -1.75 -4.25 c-1.70 -4.05 -2.45 -5.90 -4.65 -11.35 -0.55 -1.35 -2.15 -5.20 -3.55 -8.65 -2.75 -6.65 -4.10 -9.90 -5.50 -13.50 -0.50 -1.25 -2.10 -5.05 -3.50 -8.50 -2.75 -6.65 -4.10 -9.90 -5.50 -13.50 -0.50 -1.25 -2.10 -5.05 -3.50 -8.50 -1.40 -3.45 -3 -7.30 -3.55 -8.60 -0.50 -1.35 -1.40 -3.45 -1.90 -4.75 -0.55 -1.35 -2.15 -5.20 -3.55 -8.65 -1.40 -3.45 -3 -7.25 -3.50 -8.50 -1.65 -4.15 -2.90 -7.25 -3.40 -8.50 -0.40 -0.90 -0.55 15 -0.55 53.15 l-0.05 54.35 -14 0 -14 0 -0.05 -90z"/>
  <path d="M1089.10 119.65 l0.15 -64.90 15.15 -0.10 15.10 -0.10 0 6.50 c0 7.40 -0.20 7.30 4.25 3.25 1.35 -1.25 2.85 -2.45 3.35 -2.60 0.50 -0.15 0.90 -0.45 0.90 -0.65 0 -0.25 0.70 -0.70 1.50 -1.05 0.85 -0.35 1.50 -0.80 1.50 -1 0 -0.80 9.05 -4.50 12.90 -5.30 4.05 -0.80 9.45 -0.75 13.60 0.05 2.50 0.50 6.25 3 8.40 5.70 1 1.25 2 2.40 2.25 2.45 0.20 0.10 0.35 0.60 0.35 1.15 0 0.50 0.25 0.95 0.50 0.95 0.30 0 0.50 0.45 0.50 1 0 0.55 0.20 1 0.40 1 0.55 0 2.15 6.50 2.45 10 0.10 1.50 0.25 26.55 0.30 55.65 l0.10 52.85 -15.10 0 -15.10 0 -0.15 -50.85 c-0.20 -53.55 -0.15 -52.95 -2.45 -55.85 -1.40 -1.80 -5.10 -2.85 -8.20 -2.25 -2.20 0.40 -9.15 3.55 -9.75 4.45 -0.15 0.20 -0.75 0.60 -1.35 0.95 l-1.15 0.60 0 51.45 0 51.50 -15.25 0 -15.25 0 0.10 -64.85z"/>
  <path d="M1503.50 119.60 l0 -64.95 15 -0.05 15 -0.05 0 65 0 64.95 -15 0 -15 0 0 -64.90z"/>
  <path d="M1751.50 93.75 l0 -90.75 15.25 0 15.25 0 0 90.75 0 90.75 -15.25 0 -15.25 0 0 -90.75z"/>
  <path d="M1812.10 119.65 l0.15 -64.90 14.65 -0.05 c8.05 -0.05 14.70 0.10 14.85 0.30 0.15 0.20 0.30 29.45 0.35 64.95 l0.15 64.55 -15.15 0 -15.10 0 0.10 -64.85z"/>
  <path d="M1977.50 119.80 c0 -54.75 0.10 -64.75 0.70 -64.95 0.40 -0.15 7.20 -0.25 15.10 -0.20 l14.45 0.10 0.15 6.40 c0.05 3.65 0.35 6.35 0.60 6.35 0.30 0 0.50 -0.20 0.50 -0.50 0 -0.25 0.95 -1.10 2.15 -1.95 1.15 -0.80 2.75 -2.05 3.55 -2.75 0.80 -0.70 1.80 -1.40 2.30 -1.55 0.50 -0.15 1.05 -0.60 1.20 -1 0.15 -0.40 0.60 -0.75 1 -0.75 0.40 0 1.05 -0.30 1.40 -0.65 1.05 -0.95 2.80 -1.85 3.60 -1.85 0.40 0 0.80 -0.20 0.90 -0.40 0.10 -0.20 1.85 -0.95 3.90 -1.60 3.10 -1 4.80 -1.20 9.75 -1.20 3.30 0 6.50 0.15 7.05 0.30 3.80 1.10 10.70 6.55 10.70 8.45 0 0.55 0.25 0.95 0.50 0.95 0.30 0 0.50 0.45 0.50 1 0 0.55 0.25 1 0.50 1 0.30 0 0.50 0.40 0.50 0.90 0 0.50 0.20 1.10 0.40 1.40 0.40 0.40 0.95 2.65 1.90 7.70 0.20 0.95 0.35 26 0.40 55.60 l0.05 53.90 -15.10 0 c-11.80 0 -15.15 -0.15 -15.15 -0.60 0 -0.35 0 -22.35 0 -48.90 0 -28.55 -0.20 -49.45 -0.50 -51.15 -0.95 -6 -3.45 -8.55 -8.05 -8.45 -3.45 0.05 -8.75 2 -10.85 4 -0.35 0.30 -0.90 0.60 -1.15 0.60 -0.25 0 -0.90 0.45 -1.45 1 -1 1 -1 1.65 -1 52.25 l0 51.25 -15.25 0 -15.25 0 0 -64.70z"/>
  <path d="M1202 152.50 l0 -15 14.50 0 14.50 0 0 15 0 15 -14.50 0 -14.50 0 0 -15z"/>
  <path d="M1202.20 91.25 c-0.15 -0.30 -0.15 -6.95 -0.10 -14.85 l0.15 -14.40 14.25 -0.10 14.25 -0.15 0 14.90 0 14.85 -14.20 0.15 c-9.20 0.05 -14.25 -0.10 -14.35 -0.40z"/>
  <path d="M1503.50 34.15 c0 -0.05 0 -5.70 -0.05 -12.50 l0 -12.40 15.05 -0.15 15 -0.10 0 12.50 c0 6.85 -0.15 12.50 -0.35 12.55 -1.05 0.15 -29.65 0.25 -29.65 0.10z"/>
  <path d="M1812.20 34.05 c-0.10 -0.10 -0.20 -5.80 -0.20 -12.65 l0 -12.40 15 0.10 15 0.15 0.05 12.10 c0 6.70 -0.10 12.35 -0.30 12.60 -0.30 0.50 -29.05 0.55 -29.55 0.10z"/>
 </g>
 <g fill="#55ac77">
  <path d="M706.10 312.70 c-0.90 -0.75 -2.20 -2.20 -2.90 -3.25 -0.75 -1.20 -1.75 -2.05 -2.60 -2.25 -5.65 -1.40 -9.50 -6.40 -10.70 -13.90 -1.40 -9 2.10 -16.95 8.75 -19.80 3.80 -1.65 9.30 -1.30 12.65 0.75 3.15 2 5.95 6 6.75 9.65 0.30 1.60 0.45 4.95 0.35 7.60 -0.20 3.90 -0.50 5.30 -1.60 7.50 -1.80 3.60 -4.35 6.20 -7.35 7.50 -1.35 0.55 -2.45 1.20 -2.45 1.45 0 0.65 2.20 2.45 3.75 3.05 0.80 0.30 3 0.55 4.85 0.60 3.25 0 3.40 0.10 3.40 1.20 0 1.20 -0.05 1.20 -5.60 1.20 -5.35 0 -5.75 -0.10 -7.30 -1.30z m1.90 -9.80 c4.05 -2.05 6 -6.40 6 -13.35 0 -4.60 -1.15 -8.10 -3.40 -10.50 -3.45 -3.65 -8.60 -3.90 -12.25 -0.65 -3.05 2.80 -4 5.45 -4.05 11.10 -0.05 5.85 0.95 9.05 3.60 11.65 3.20 3.10 6.35 3.65 10.10 1.75z"/>
  <path d="M733.75 307.05 c-2.25 -0.60 -3.45 -1.35 -5.15 -3.25 -2.70 -3.10 -3.10 -5.55 -3.10 -18.90 0 -7.55 0.20 -11.90 0.50 -11.95 0.65 -0.10 2.30 -0.10 3.15 0 0.45 0.05 0.60 2.85 0.60 12.20 0 11.50 0.05 12.20 1.10 14.35 1.45 2.95 3.60 4.20 6.95 4.15 3 0 5.20 -1.30 6.60 -3.80 0.70 -1.35 0.90 -3.50 1.10 -14.35 l0.25 -12.75 2 0 2 0 0.15 9.25 c0.15 10.15 -0.40 16.60 -1.70 19.10 -1.05 2.15 -3.10 4.30 -4.85 5.25 -1.65 0.85 -7.45 1.30 -9.60 0.70z"/>
  <path d="M789.25 306.60 c-2.20 -0.75 -6.25 -3.30 -6.25 -3.95 0 -0.15 0.45 -0.90 1.05 -1.70 l1 -1.45 1.65 1.25 c2.55 1.95 5 2.75 8.45 2.75 2.70 0 3.35 -0.20 4.80 -1.40 1.45 -1.20 1.70 -1.75 1.75 -3.70 0.05 -3.15 -1 -4.15 -7.20 -6.90 -5.85 -2.60 -8.70 -4.75 -9.50 -7.30 -0.90 -2.60 -0.35 -5.90 1.20 -7.95 2.15 -2.80 3.90 -3.50 9.05 -3.50 4.60 0 5.80 0.35 8.70 2.65 1.15 0.90 1.15 1 0.30 2.25 -1.05 1.60 -1.40 1.65 -3.20 0.40 -4.90 -3.50 -12 -2 -12.15 2.60 -0.10 2.65 1.40 4.05 7.55 6.95 6.30 3 7.80 4 8.85 6.05 1.05 1.95 1.05 6.25 0 8.20 -2.50 4.85 -9.65 6.95 -16.05 4.75z"/>
  <path d="M841.65 307 c-1.80 -0.40 -5.70 -2.60 -6.60 -3.70 -0.55 -0.65 -0.45 -1.05 0.45 -2.30 l1.05 -1.50 1.60 1.20 c2.95 2.20 4.70 2.80 7.95 2.80 4 0 6.10 -1.15 6.85 -3.80 0.40 -1.40 0.35 -2.25 -0.20 -3.50 -0.75 -1.80 -1.10 -2.05 -7.75 -5.05 -6.85 -3.15 -9 -5.50 -9 -9.90 0 -5.80 4.60 -9.10 12.05 -8.65 2.85 0.15 3.75 0.45 5.90 1.90 1.40 0.95 2.55 1.85 2.55 2 -0.05 0.15 -0.50 0.80 -1.05 1.45 l-1 1.20 -2.60 -1.45 c-3.35 -1.80 -7.55 -2 -9.65 -0.40 -1.85 1.35 -2.45 3.75 -1.45 5.70 0.85 1.65 1.25 1.95 7.60 4.80 5.35 2.45 7.05 3.65 8.25 5.85 1.05 1.95 1.15 5.80 0.20 8 -1.85 4.50 -8.65 6.90 -15.15 5.35z"/>
  <path d="M908.50 307.05 c-4.45 -1.40 -7.85 -4.95 -9.50 -10.05 -1.55 -4.85 -1.30 -11.95 0.55 -16 2.75 -5.90 6.65 -8.50 12.65 -8.50 7.95 0.05 13 4.90 14.40 13.75 1.85 11.75 -4.45 21.25 -14.10 21.20 -1.50 -0.05 -3.30 -0.20 -4 -0.40z m8.85 -4.85 c5.55 -4.10 6.90 -16.05 2.50 -21.80 -2.55 -3.30 -3.95 -4.10 -7.25 -4.15 -3.65 0 -6.40 1.65 -8.45 5.10 -1.30 2.25 -1.40 2.75 -1.40 8.20 0 5.45 0.10 5.95 1.50 8.70 2.05 4.05 4.30 5.35 8.60 5.10 2.20 -0.10 3.55 -0.45 4.50 -1.15z"/>
  <path d="M946 306.95 c-2 -0.60 -5 -3.25 -5 -4.45 0 -0.45 0.55 -1.15 1.25 -1.50 1.20 -0.65 1.40 -0.55 3 1 1.45 1.40 2.05 1.65 3.95 1.65 2.30 -0.05 4.45 -1.10 5.10 -2.55 0.25 -0.45 0.55 -7.05 0.70 -14.60 l0.25 -13.75 2 0 2 0 0 13.75 c0 13.65 0 13.75 -1.25 16.25 -0.75 1.50 -1.90 2.85 -2.90 3.40 -1.90 1.10 -6.65 1.55 -9.10 0.80z"/>
  <path d="M973.25 307.05 c-2.20 -0.55 -5.35 -2.30 -6.65 -3.65 l-1.10 -1.20 1.25 -1.20 c1.05 -1 1.45 -1.10 2.15 -0.60 3.05 2.15 5.70 3.10 8.65 3.10 4.90 0 6.95 -1.70 6.95 -5.75 0 -2.40 -1.35 -3.50 -8.10 -6.70 -7.55 -3.60 -8.90 -5.05 -8.90 -9.45 0 -5.70 3.80 -9.10 10.25 -9.10 4.05 0 6.20 0.70 8.45 2.65 l1.90 1.60 -1.25 1.15 -1.20 1.10 -2.25 -1.25 c-4.85 -2.70 -10.25 -2 -11.40 1.55 -1.05 3.10 0.40 5.35 4.65 7.20 11.25 4.95 13.05 6.95 12.10 13.30 -0.45 3.20 -3.70 6.40 -7.30 7.15 -2.80 0.60 -5.90 0.65 -8.20 0.10z"/>
  <path d="M1004 307.05 c-3.90 -1.25 -7.30 -4.35 -9.10 -8.30 -1 -2.20 -1.15 -3.30 -1.15 -8.75 0 -7.05 0.60 -9.25 3.55 -12.85 5 -6.10 15.45 -6.30 20.65 -0.35 2.30 2.60 3.40 5.05 4 9.20 1.35 8.85 -1.55 16.50 -7.45 19.70 -2.80 1.55 -7.95 2.20 -10.50 1.35z m7.70 -4.25 c6.15 -2.60 8.30 -16.40 3.50 -22.70 -2.65 -3.45 -6.95 -4.85 -10.50 -3.35 -3.80 1.60 -5.75 4.40 -6.75 9.85 -1.10 6.10 1.30 13.55 5.20 15.90 1.90 1.20 6.10 1.35 8.55 0.30z"/>
  <path d="M1061.85 306.60 c-1.30 -1.45 -1.10 -3.90 0.45 -4.90 2.75 -1.85 5.80 1.25 4.15 4.20 -0.95 1.70 -3.35 2.10 -4.60 0.70z"/>
  <path d="M1284 307.05 c-3.80 -1.15 -7.25 -4.35 -9.15 -8.45 -0.95 -2.05 -1.10 -3.25 -1.10 -8.85 0 -5.85 0.15 -6.75 1.25 -9 2.65 -5.35 7.10 -8.25 12.80 -8.25 4.35 0 7.75 1.50 10.30 4.50 2.45 2.85 3.25 4.65 3.95 8.95 1.60 9.55 -2.65 18.70 -9.60 20.75 -2.75 0.85 -6.35 0.95 -8.45 0.35z m7.65 -4.25 c2.10 -0.90 3.55 -2.50 4.90 -5.55 1.50 -3.35 1.65 -10.80 0.30 -14.35 -1.65 -4.30 -6.60 -7.45 -10.60 -6.70 -3.40 0.65 -6.70 3.95 -7.75 7.75 -0.75 2.75 -0.60 9.60 0.25 12.10 1.15 3.25 2.95 5.65 4.80 6.60 2.05 1 5.90 1.10 8.10 0.15z"/>
  <path d="M1385.75 307.05 c-2.90 -0.75 -7.25 -3.50 -7.25 -4.65 0 -0.20 0.50 -0.95 1.10 -1.65 1.05 -1.25 1.10 -1.25 2.10 -0.30 4.20 3.80 12.85 4.15 14.80 0.60 0.25 -0.55 0.50 -1.90 0.50 -3.05 0 -2.80 -1.30 -3.95 -7.75 -6.80 -7.10 -3.15 -9.25 -5.50 -9.25 -9.95 0 -5.80 4.60 -9.10 12.05 -8.65 2.85 0.15 3.75 0.45 5.90 1.90 1.40 0.95 2.55 1.85 2.55 2 -0.05 0.15 -0.50 0.80 -1.05 1.45 l-1 1.20 -2.60 -1.45 c-6.30 -3.45 -13.45 -0.35 -11.30 4.95 0.75 1.75 2.10 2.65 7.95 5.30 2.60 1.15 5.35 2.65 6.10 3.25 3.95 3.45 3.90 9.85 -0.05 13.45 -2.75 2.45 -8.25 3.50 -12.80 2.40z"/>
  <path d="M1600.75 306.80 c-2.75 -0.85 -4.80 -2 -5.95 -3.25 -0.90 -0.95 -0.90 -1.10 -0.10 -2.30 0.85 -1.30 2 -1.65 2.55 -0.75 0.20 0.30 1.40 1.10 2.75 1.75 4.25 2.15 10.55 1.50 12 -1.20 0.25 -0.55 0.50 -1.90 0.50 -3.05 0 -2.80 -1.55 -4.15 -7.55 -6.75 -5.95 -2.55 -8.90 -5.15 -9.30 -8.10 -0.90 -6.90 3.65 -11.05 11.45 -10.55 3.65 0.25 5.55 0.95 7.85 2.90 l1.25 1.05 -1.25 1.25 -1.25 1.25 -2.45 -1.40 c-4.75 -2.60 -10.35 -1.55 -11.35 2.15 -0.85 3.15 1.05 5.15 7.65 7.95 5.35 2.25 7.30 3.60 8.50 5.85 1.10 2.20 1.25 5.75 0.25 8.10 -1.90 4.60 -9.35 7.05 -15.55 5.10z"/>
  <path d="M1650.85 306.60 c-1.30 -1.45 -1.10 -3.90 0.45 -4.90 2.75 -1.85 5.80 1.25 4.15 4.20 -0.95 1.70 -3.35 2.10 -4.60 0.70z"/>
  <path d="M504.10 289.90 l0.15 -17.05 2.15 0 c1.20 0 2.35 0.20 2.60 0.45 0.25 0.25 2.25 5.60 4.50 11.90 2.25 6.35 4.25 11.80 4.45 12.20 0.25 0.45 1.40 -2.25 3.20 -7.50 1.60 -4.50 3.60 -10.15 4.50 -12.60 l1.60 -4.45 2.15 0.05 c1.15 0 2.35 0.05 2.60 0.05 0.30 0.05 0.50 6.10 0.50 17.05 l0 17 -2.35 0 -2.30 0 0.30 -13.10 c0.20 -7.25 0.45 -13.70 0.65 -14.40 0.25 -0.85 0.15 -1.10 -0.15 -0.75 -0.30 0.30 -2.50 5.95 -4.90 12.65 -4.30 11.75 -4.45 12.15 -5.70 12 -1.15 -0.15 -1.60 -1 -5.60 -11.85 -2.35 -6.45 -4.55 -12.05 -4.80 -12.50 -0.30 -0.50 -0.35 0.25 -0.10 2.25 0.20 1.60 0.40 8.05 0.40 14.35 l0.05 11.35 -2 0 -2 0 0.10 -17.10z"/>
  <path d="M537.05 306.15 c0 -0.50 2.55 -8.20 5.60 -17.15 l5.60 -16.20 2.15 -0.05 c1.15 -0.05 2.35 0.20 2.60 0.50 0.40 0.45 11.50 32.95 11.50 33.60 0 0.10 -1.05 0.15 -2.35 0.05 l-2.30 -0.15 -1.50 -5.10 -1.50 -5.15 -6.30 0 -6.35 0 -1.50 5.15 -1.55 5.10 -2.05 0.15 c-1.75 0.15 -2.10 0 -2.05 -0.75z m18.45 -13.55 c0 -0.25 -0.65 -2.30 -1.40 -4.65 -0.80 -2.30 -1.85 -5.70 -2.35 -7.55 -0.50 -1.90 -1.10 -3.40 -1.30 -3.40 -0.25 0 -0.45 0.30 -0.45 0.65 0 0.35 -1 3.85 -2.25 7.85 -1.25 4 -2.25 7.30 -2.25 7.35 0 0.10 2.25 0.15 5 0.15 2.75 0 5 -0.20 5 -0.40z"/>
  <path d="M569 290 l0 -17 1.50 0 c0.85 0 1.65 0 1.90 0 0.20 0 0.45 3.85 0.60 8.60 l0.25 8.55 7 -8.55 7 -8.60 2.45 0 c2.30 0 2.40 0.05 1.70 0.90 -3.55 4.15 -9.40 11.60 -9.40 11.90 0 0.50 10.45 18.70 11.35 19.75 1.05 1.25 0.80 1.45 -1.75 1.45 l-2.45 0 -4.90 -8.60 c-2.70 -4.75 -5 -8.75 -5.10 -8.90 -0.25 -0.25 -2.25 1.95 -4.70 5.20 -1.40 1.85 -1.45 2.15 -1.45 7.15 l0 5.15 -2 0 -2 0 0 -17z"/>
  <path d="M598.50 289.75 l0 -17.20 9.65 0.15 9.60 0.15 0.15 1.80 0.15 1.85 -7.80 0 -7.80 0 0.15 5.40 0.15 5.35 5 -0.15 c2.75 -0.10 5.70 -0.05 6.50 0.10 1.30 0.25 1.50 0.50 1.45 1.90 l-0.05 1.65 -6.60 0.15 -6.60 0.15 0.15 6.10 0.15 6.10 7.75 0 7.75 0 0.15 1.90 0.15 1.85 -10 0 -10.05 0 0 -17.25z"/>
  <path d="M635.10 289.90 l0.15 -17.15 5.90 0.05 c8.50 0.15 10.95 0.50 13 2.10 2.60 1.95 3.50 4.35 3.25 8.30 -0.15 2.70 -0.45 3.60 -1.70 5.15 -1.45 1.80 -2.85 2.75 -4.80 3.35 -0.75 0.20 -0.20 1.40 3.35 7.60 2.35 4.05 4.25 7.45 4.25 7.55 0 0.05 -1.05 0.15 -2.35 0.15 l-2.40 0 -2.75 -4.90 c-1.50 -2.65 -3.30 -5.90 -4 -7.20 l-1.20 -2.40 -3.15 0 -3.15 0 0 7.25 0 7.25 -2.25 0 -2.25 0 0.10 -17.10z m14.75 -2.05 c2.15 -1.15 3.40 -3.10 3.40 -5.40 0 -4.75 -3.70 -6.55 -12.35 -6.05 l-1.40 0.10 0 6.30 0 6.30 4.40 -0.20 c2.75 -0.15 4.95 -0.55 5.95 -1.05z"/>
  <path d="M665 306.65 c-0.25 -7.15 0.15 -33.45 0.50 -33.65 0.30 -0.15 4.60 -0.30 9.60 -0.25 l9.15 0.05 0.15 1.85 0.15 1.85 -7.80 0 -7.80 0 0.15 5.40 0.15 5.35 6.25 0.05 6.25 0.05 0.15 1.80 0.15 1.85 -6.55 0 -6.55 0 0.15 6.15 0.15 6.10 7.75 0 7.75 0 0.15 1.90 0.15 1.85 -10 0 c-5.55 0 -10.05 -0.15 -10.05 -0.35z"/>
  <path d="M758.60 289.90 l0.15 -17.10 9.50 -0.05 9.50 0 0.15 1.90 0.15 1.85 -7.50 0 c-4.10 0 -7.55 0.15 -7.65 0.40 -0.10 0.20 -0.05 2.60 0.10 5.30 l0.25 4.95 5.75 0.10 c3.15 0.05 6 0.15 6.25 0.20 0.30 0 0.50 0.80 0.45 1.65 l-0.05 1.65 -6.45 0.25 c-3.55 0.15 -6.40 0.40 -6.30 0.65 0.05 0.20 0.10 2.90 0.10 6 l0 5.60 4.85 -0.05 c2.70 -0.05 6.20 0 7.80 0.15 l2.85 0.30 0 1.65 0 1.70 -10 0 -10 0 0.10 -17.10z"/>
  <path d="M818.50 291.75 l0 -15.25 -5.25 0 -5.25 0 0 -1.95 0 -2 12.40 0.10 12.35 0.10 0.15 1.85 0.15 1.85 -5.05 0.15 -5.10 0.15 0.10 15.15 0.05 15.10 -2.30 0 -2.25 0 0 -15.25z"/>
  <path d="M881 291.75 l0 -15.25 -5.30 0 -5.25 0 0.15 -1.85 0.15 -1.90 11.75 -0.05 c6.45 -0.05 12.05 0.05 12.40 0.20 0.30 0.10 0.60 0.95 0.60 1.90 l0 1.70 -5.25 0 -5.25 0 0 15.25 0 15.25 -2 0 -2 0 0 -15.25z"/>
  <path d="M1029 290.05 l0 -16.95 2 -0.20 c1.15 -0.10 2.25 -0.05 2.45 0.10 0.35 0.20 4.75 7.80 14.60 25.25 l1.45 2.50 0 -13.80 0 -13.85 1.65 -0.25 c0.85 -0.10 1.75 -0.15 2 0 0.20 0.10 0.35 7.85 0.35 17.20 l0 17 -2.35 -0.15 -2.35 -0.15 -5.65 -9.75 c-3.15 -5.35 -6.55 -11.50 -7.65 -13.60 -1.10 -2.10 -2.15 -3.95 -2.35 -4.05 -0.25 -0.15 -0.35 6 -0.25 13.70 l0.15 13.95 -2 0 -2.05 0 0 -16.95z"/>
  <path d="M1070.25 306.15 c0.20 -0.50 2.85 -8.25 5.85 -17.20 l5.45 -16.30 2.30 0.10 c1.40 0.05 2.50 0.35 2.75 0.80 0.25 0.40 2.75 7.70 5.60 16.20 2.90 8.55 5.35 15.90 5.55 16.40 0.30 0.75 0.05 0.85 -2.05 0.85 l-2.45 0 -1.50 -5.25 -1.45 -5.25 -6.30 0 -6.30 0 -1.65 5.25 -1.60 5.25 -2.30 0 c-1.95 0 -2.20 -0.10 -1.90 -0.85z m18.60 -13.75 c-0.10 -0.35 -1.15 -3.80 -2.35 -7.65 -1.15 -3.85 -2.25 -7.15 -2.45 -7.40 -0.30 -0.30 -2.35 5.95 -4.90 14.80 -0.25 0.75 0.20 0.85 4.85 0.85 3.90 0 5.05 -0.15 4.85 -0.60z"/>
  <path d="M1102.35 290.15 c0.05 -9.30 0.10 -17.05 0.15 -17.25 0 -0.60 14.20 0.10 16.55 0.90 2.30 0.75 4.30 2.45 5.45 4.65 1.05 2.10 0.80 7.15 -0.55 9.50 -2.20 3.95 -5.95 5.50 -13.30 5.55 l-4.15 0 0 6.75 0 6.75 -2.10 0 -2.15 0 0.10 -16.85z m13.05 -0.70 c1.60 -0.30 2.95 -1 3.85 -1.95 1.20 -1.25 1.40 -1.90 1.45 -4.45 0.05 -3.20 -0.70 -4.50 -3.20 -5.80 -1.05 -0.55 -6.85 -1 -10.10 -0.80 -0.80 0.05 -0.90 0.75 -0.90 6.80 l0 6.75 3.25 0 c1.75 0 4.30 -0.25 5.65 -0.55z"/>
  <path d="M1131.60 289.90 l0.15 -17.15 2 0.05 2 0.05 0.15 17.05 0.10 17.10 -2.25 0 -2.25 0 0.10 -17.10z"/>
  <path d="M1154.60 289.95 l0.15 -17.10 9.50 0.10 c5.25 0 9.65 0.05 9.85 0.05 0.20 0 0.35 0.75 0.25 1.65 l-0.10 1.60 -7.65 0.15 -7.65 0.15 0.15 5.25 0.15 5.30 6.25 0.05 6.25 0.10 0.15 1.90 0.15 1.85 -6.55 0 -6.55 0 0.15 6.05 0.15 6.05 7.75 0.05 7.75 0.10 0.15 1.90 0.15 1.85 -10.30 0 -10.25 0 0.10 -17.05z"/>
  <path d="M1181.50 290.05 l0 -16.95 1.90 -0.25 c1.30 -0.15 2.10 0 2.65 0.60 0.75 0.75 12.20 20.60 14.40 24.95 0.60 1.15 1.15 2.10 1.25 2.10 0.05 0 0.05 -6.20 -0.10 -13.75 l-0.25 -13.75 1.60 -0.05 c0.85 -0.05 1.80 -0.10 2.10 -0.15 0.35 -0.05 0.55 5.45 0.60 17.10 l0.10 17.10 -2.25 0 -2.30 0 -7.05 -12.35 c-3.90 -6.85 -7.45 -13.25 -7.90 -14.25 -0.40 -1.05 -0.80 -1.90 -0.90 -1.90 -0.05 0 -0.05 6.40 0.10 14.25 l0.15 14.25 -2.05 0 -2.05 0 0 -16.95z"/>
  <path d="M1214.60 289.90 l0.15 -17.15 5 0.10 c8 0.20 10 0.55 12.60 2.30 4.90 3.30 7 8.50 6.55 16.45 -0.20 3.35 -0.60 5 -1.55 7 -3.05 6.20 -7.55 8.40 -17.10 8.40 l-5.75 0 0.10 -17.10z m12.10 13 c2.95 -0.90 6.45 -4.55 7.20 -7.50 0.75 -2.85 0.75 -8.50 0.10 -10.95 -1.40 -4.95 -4.85 -7.40 -11 -7.80 l-4 -0.30 0 13.60 0 13.55 2.80 0 c1.55 0 3.75 -0.30 4.90 -0.60z"/>
  <path d="M1246 289.85 l0 -17.25 7.10 0.20 c3.90 0.10 7.95 0.45 8.95 0.70 4.95 1.35 7.65 6.40 6.40 11.95 -1.20 5.45 -4.75 7.60 -13.10 7.95 l-5.40 0.25 0.10 6.55 0.05 6.55 -2.05 0.15 -2.05 0.15 0 -17.20z m15.30 -1 c4.40 -2.25 4.15 -10.35 -0.40 -11.75 -2.45 -0.80 -8.25 -1.15 -9.65 -0.60 -1.25 0.45 -1.25 0.55 -1.25 7.05 l0 6.60 4.90 -0.25 c3.05 -0.15 5.40 -0.55 6.40 -1.05z"/>
  <path d="M1309.10 289.90 l0.15 -17.05 2 -0.05 2 -0.05 0.15 17.15 0.10 17.10 -2.25 0 -2.25 0 0.10 -17.10z"/>
  <path d="M1322.35 290.20 c0.05 -9.20 0.25 -16.95 0.35 -17.15 0.15 -0.20 1.15 -0.25 2.25 -0.10 l2.05 0.30 6.05 10.50 c3.30 5.80 6.80 12 7.75 13.90 0.95 1.85 1.75 3.35 1.85 3.35 0.05 0 0.10 -6.35 0.10 -14.10 0 -13.65 0.05 -14.05 1 -14.20 0.55 -0.10 1.40 -0.05 1.90 0.10 0.80 0.25 0.85 1.50 0.85 17.25 l0 17 -2.30 -0.15 -2.25 -0.15 -5.80 -10 c-3.15 -5.50 -6.65 -11.75 -7.75 -13.85 -1.10 -2.15 -2.05 -3.90 -2.15 -3.90 -0.05 0 0 6.30 0.15 14 l0.25 14 -2.20 0 -2.20 0 0.10 -16.80z"/>
  <path d="M1362.50 291.75 l0 -15.25 -5.30 0 -5.25 0 0.15 -1.85 0.15 -1.90 12.25 0 12.25 0 0.15 1.85 0.15 1.85 -5.05 0.15 -5.10 0.15 0.10 15.15 0.05 15.10 -2.30 0 -2.25 0 0 -15.25z"/>
  <path d="M1421.30 306.40 c-0.40 -1.20 -6.80 -32.65 -6.80 -33.20 0 -0.50 3.80 -0.65 4.20 -0.15 0.10 0.20 1.10 5.35 4.10 21.40 0.60 3.40 1.35 6.40 1.60 6.65 0.30 0.30 0.60 -0.45 0.85 -1.95 0.40 -2.85 5.55 -23.95 6.20 -25.40 0.30 -0.70 0.85 -1 2 -0.95 0.90 0 1.80 0.25 2 0.50 0.35 0.35 6.40 24.45 7.20 28.45 0.15 0.70 0.30 0.45 0.50 -0.75 0.85 -4.25 3.50 -18.65 4.20 -22.75 0.45 -2.45 1 -4.75 1.20 -5.05 0.25 -0.25 1.20 -0.40 2.20 -0.30 1.55 0.20 1.80 0.35 1.55 1.30 -0.10 0.55 -1.60 7.90 -3.30 16.30 -1.70 8.40 -3.15 15.55 -3.25 15.90 -0.15 0.35 -1.20 0.60 -2.85 0.60 l-2.65 0 -3.15 -13.15 c-1.75 -7.20 -3.15 -13.40 -3.10 -13.70 0 -0.35 -0.20 -0.65 -0.45 -0.65 -0.20 0 -0.80 1.75 -1.25 3.90 -0.45 2.10 -1.90 8.25 -3.20 13.60 l-2.40 9.75 -2.60 0.15 c-1.80 0.10 -2.65 -0.05 -2.80 -0.50z"/>
  <path d="M1458.10 289.90 l0.15 -17.10 1.65 0.05 c0.85 0.05 1.85 0.10 2.10 0.10 0.30 0.05 0.50 6.10 0.50 17.05 l0 17 -2.25 0 -2.25 0 0.10 -17.10z"/>
  <path d="M1478 291.75 l0 -15.25 -5.05 0 -5 0 0.15 -1.85 c0.10 -1.15 0.40 -1.90 0.80 -1.85 0.30 0.05 5.90 0.10 12.35 0.15 l11.75 0.05 0 1.75 0 1.75 -5.25 0 -5.25 0 0 15.25 0 15.25 -2.25 0 -2.25 0 0 -15.25z"/>
  <path d="M1498.50 306.65 c-0.15 -3.95 0.10 -33.40 0.25 -33.65 0.10 -0.20 1.05 -0.20 2 -0.05 l1.85 0.30 0.05 6.95 0.10 6.90 7.75 0.10 7.75 0.05 0.25 -7.20 0.25 -7.20 2 0 2 0 0.15 17.05 0.10 17.10 -2.25 0 -2.25 0 0 -8 0 -8 -8 0 -8.05 0 0.10 7.90 0.05 7.85 -2.05 0.15 c-1.15 0.10 -2.05 0 -2.05 -0.25z"/>
  <path d="M1541.60 289.95 l0.15 -17.05 9.75 0 9.75 0 0.15 1.80 0.15 1.80 -7.80 0 -7.80 0 0.15 5.40 0.15 5.35 6.25 0 6.25 0 0.15 1.90 0.15 1.85 -6.55 0 -6.55 0 0.15 6.10 0.15 6.05 7.25 0 c3.95 0 7.50 0.05 7.80 0.20 0.35 0.10 0.60 1 0.60 1.95 l0 1.70 -10.20 0 -10.20 0 0.10 -17.05z"/>
  <path d="M1564.25 306 c0.15 -0.55 2.75 -8.25 5.70 -17.10 l5.40 -16.15 2.35 -0.05 c1.25 -0.05 2.45 0.15 2.60 0.35 0.30 0.50 11.20 32.35 11.35 33.20 0.05 0.30 -0.90 0.55 -2.15 0.65 l-2.30 0.15 -1.60 -5.30 -1.60 -5.25 -6.20 0 -6.20 0 -1.60 5.25 -1.65 5.25 -2.20 0 c-2 0 -2.20 -0.10 -1.90 -1z m18.50 -13.85 c-0.20 -0.50 -1.25 -3.80 -2.30 -7.40 -2.35 -7.85 -2.40 -7.95 -2.75 -7.60 -0.30 0.30 -4.70 14.75 -4.70 15.45 0 0.20 2.25 0.40 5.05 0.40 4.60 0 5.05 -0.10 4.70 -0.85z"/>
  <path d="M1623.40 290.15 c0.10 -12.10 0.30 -16.95 0.70 -17.20 0.35 -0.20 4.65 -0.30 9.60 -0.25 l9.05 0.15 0.15 1.80 0.15 1.85 -7.75 0 -7.80 0 0 5.25 0 5.25 2.90 0.05 c1.55 0 4.45 0.05 6.35 0.10 l3.50 0.10 0.15 1.90 0.15 1.85 -6.50 0 -6.55 0 0 6 0 6 2.40 0.05 c2.95 0 12.70 0.35 13.25 0.40 0.20 0.05 0.35 0.85 0.35 1.80 l0 1.75 -10.10 0 -10.15 0 0.15 -16.85z"/>
  <path d="M42.50 293.75 l0 -3.75 219.50 0 219.50 0 0 3.75 0 3.75 -219.50 0 -219.50 0 0 -3.75z"/>
  <path d="M1678.50 293.75 l0 -3.75 219.45 0 219.45 0 0.20 3.75 0.15 3.75 -219.60 0 -219.65 0 0 -3.75z"/>
  <path d="M1652.70 296.65 c-0.95 -0.20 -1.10 -0.65 -1.40 -5.50 -0.15 -2.90 -0.30 -8.40 -0.30 -12.25 l0 -6.90 2.05 0 2.05 0 -0.35 12.15 c-0.20 6.65 -0.50 12.20 -0.70 12.40 -0.15 0.15 -0.75 0.15 -1.35 0.10z"/>
  <path d="M1063 288.65 c-2.05 -0.70 -2.70 -3.90 -1.10 -5.30 2 -1.80 5.10 -0.45 5.10 2.20 0 2.20 -2.05 3.75 -4 3.10z"/>
  <path d="M5.10 183.75 l0.15 -38.85 20.25 -0.10 20.25 -0.05 0.25 17.85 0.25 17.90 2.05 -1.65 c1.10 -0.85 2.80 -2.15 3.70 -2.85 0.90 -0.70 3.80 -2.95 6.50 -5 2.70 -2.05 5.60 -4.30 6.50 -5 0.90 -0.70 3.80 -2.95 6.50 -5 2.70 -2.05 5.60 -4.30 6.50 -5 0.90 -0.70 3.80 -2.95 6.50 -5 2.70 -2.05 5.60 -4.30 6.50 -5 1.65 -1.25 7.05 -5.45 8.50 -6.65 0.40 -0.35 1.55 -1.15 2.50 -1.85 0.95 -0.70 2.10 -1.50 2.50 -1.85 1.45 -1.20 6.85 -5.40 8.50 -6.65 0.90 -0.70 3.80 -2.95 6.50 -5 2.70 -2.05 5.60 -4.30 6.50 -5 6.35 -4.80 7.50 -6 5.75 -6 -0.40 0 -1.40 -0.65 -2.25 -1.50 -0.85 -0.85 -1.70 -1.50 -1.90 -1.50 -0.20 0 -0.90 -0.50 -1.60 -1.15 -0.70 -0.60 -2.05 -1.70 -3 -2.35 -0.95 -0.65 -2.30 -1.75 -3 -2.35 -0.70 -0.65 -1.65 -1.30 -2.10 -1.45 -0.50 -0.15 -0.90 -0.45 -0.90 -0.75 0 -0.25 -0.85 -1 -1.85 -1.65 -1.05 -0.65 -2.45 -1.70 -3.15 -2.30 -0.70 -0.60 -2.10 -1.65 -3.10 -2.30 -1.05 -0.65 -1.90 -1.40 -1.90 -1.65 0 -0.30 -0.40 -0.60 -0.85 -0.75 -0.50 -0.15 -1.75 -1.10 -2.80 -2.05 -1.05 -0.95 -2.05 -1.75 -2.25 -1.75 -0.20 0 -1.15 -0.70 -2.10 -1.55 -0.95 -0.80 -2.35 -1.85 -3.10 -2.25 -0.80 -0.40 -1.40 -0.95 -1.40 -1.20 0 -0.25 -0.60 -0.80 -1.35 -1.20 -0.80 -0.40 -1.85 -1.15 -2.40 -1.65 -0.55 -0.50 -1.80 -1.45 -2.75 -2.15 -0.95 -0.65 -1.95 -1.50 -2.15 -1.85 -0.20 -0.35 -1.10 -1 -2 -1.45 -0.90 -0.45 -2.05 -1.30 -2.60 -1.80 -0.55 -0.55 -2.45 -2.10 -4.25 -3.45 -1.80 -1.40 -3.85 -3.05 -4.65 -3.70 -0.75 -0.70 -1.55 -1.25 -1.75 -1.25 -0.20 0 -1.15 -0.70 -2.10 -1.55 -0.95 -0.85 -2.35 -1.85 -3.10 -2.25 -0.80 -0.40 -1.40 -0.90 -1.40 -1.10 0 -0.25 -1 -1.05 -2.25 -1.80 -1.25 -0.80 -2.25 -1.65 -2.25 -1.85 0 -0.25 -0.60 -0.75 -1.35 -1.15 -0.80 -0.40 -2.20 -1.45 -3.15 -2.30 -0.95 -0.85 -2.35 -1.90 -3.10 -2.30 -0.80 -0.40 -1.40 -0.90 -1.40 -1.15 0 -0.35 -2.70 -2.30 -4.10 -2.95 -0.25 -0.10 -0.40 7.80 -0.40 17.60 l0 17.80 -20.50 0 -20.50 0 0 -39.05 0 -39.05 38.40 0.25 c21.10 0.10 38.90 0.35 39.60 0.50 0.70 0.15 3.75 0.65 6.80 1.05 5.80 0.85 17.70 3.70 19.65 4.75 0.60 0.35 2.40 1 3.95 1.55 3.20 1 13.85 6.20 14.95 7.25 0.35 0.40 1.10 0.85 1.65 1 0.55 0.15 1 0.50 1 0.70 0 0.25 0.70 0.70 1.50 1.05 0.85 0.35 1.50 0.80 1.50 1.05 0 0.25 0.55 0.55 1.20 0.75 0.70 0.15 1.35 0.60 1.50 0.95 0.15 0.40 1.15 1.25 2.20 1.95 2.35 1.50 13.55 12.65 16.40 16.40 5.60 7.30 11.65 17.65 14 24 3.30 8.85 5 14.20 5.95 18.80 0.15 0.60 0.35 1.60 0.50 2.25 0.15 0.60 0.45 2.35 0.70 3.85 0.30 1.50 0.65 3.55 0.85 4.50 0.65 3.60 0.80 24.70 0.20 30 -1.20 10.45 -3.50 19.75 -7.70 30.90 -1.20 3.10 -7.25 15.15 -8.10 15.95 -0.40 0.40 -0.70 0.90 -0.70 1.10 0 0.20 -0.40 0.85 -0.85 1.45 -0.50 0.60 -1.65 2.30 -2.60 3.85 -0.90 1.50 -1.85 2.75 -2.05 2.75 -0.20 0 -1 0.95 -1.80 2.15 -1.40 2.05 -12 12.85 -12.60 12.85 -0.20 0 -1.25 0.85 -2.35 1.85 -3 2.70 -10.95 7.70 -17.65 11.10 -3.25 1.70 -6.20 3.05 -6.50 3.05 -0.55 0 -1.45 0.35 -5.35 2.05 -0.80 0.35 -1.85 0.70 -2.25 0.75 -0.40 0.10 -3.35 0.80 -6.50 1.65 -12.30 3.20 -12.40 3.20 -55.90 3.40 l-39.60 0.20 0.10 -38.80z"/>
 </g>
</svg>