<?xml version="1.0" encoding="UTF-8" standalone="no"?>
<svg
   version="1.0"
   width="2160px"
   height="314px"
   viewBox="0 0 2160 314"
   preserveAspectRatio="xMidYMid meet"
   id="svg74"
   sodipodi:docname="logo.svg"
   inkscape:version="1.4 (e7c3feb1, 2024-10-09)"
   xmlns:inkscape="http://www.inkscape.org/namespaces/inkscape"
   xmlns:sodipodi="http://sodipodi.sourceforge.net/DTD/sodipodi-0.dtd"
   xmlns="http://www.w3.org/2000/svg"
   xmlns:svg="http://www.w3.org/2000/svg">
  <defs
     id="defs74" />
  <sodipodi:namedview
     id="namedview74"
     pagecolor="#ffffff"
     bordercolor="#000000"
     borderopacity="0.25"
     inkscape:showpageshadow="2"
     inkscape:pageopacity="0.0"
     inkscape:pagecheckerboard="0"
     inkscape:deskcolor="#d1d1d1"
     inkscape:zoom="1.4790474"
     inkscape:cx="963.11992"
     inkscape:cy="103.10691"
     inkscape:window-width="2560"
     inkscape:window-height="1186"
     inkscape:window-x="0"
     inkscape:window-y="25"
     inkscape:window-maximized="0"
     inkscape:current-layer="svg74" />
  <g
     fill="none"
     id="g7">
    <path
       d="M 0,157 C 0,104.66667 0,52.333333 0,0 c 720,0 1440,0 2160,0 0,104.66667 0,209.33333 0,314 -720.0113,0.0504 -1439.99844,-0.2241 -2160,0 0,-52.33333 0,-104.66667 0,-157 z m 705.6,150.25 c -4.21985,-6.16433 -1.84841,3.46549 0,0 z m 91.15,-1.75 c -2.13173,-1.39532 -10.47704,1.37589 0,0 z m 51.5,0 c -6.61458,-1.49165 -6.61458,1.49165 0,0 z m 66.5,0 c -2.00946,-1.44421 -10.59762,1.4241 0,0 z m 65,0 c -6.61458,-1.49165 -6.61458,1.49165 0,0 z m 30.25,0 c -5.9516,-1.49112 -5.9516,1.49112 0,0 z m 280,0 c -5.9516,-1.49112 -5.9516,1.49112 0,0 z m 102.25,0 c -6.6146,-1.49165 -6.6146,1.49165 0,0 z m 215.5,0 c -2.1317,-1.39532 -10.477,1.37589 0,0 z m -1101.3,-9.85 c -0.83693,-43.57601 -1.14174,36.5219 0,0 z M 531,290 c -1.24704,-54.32175 -2.07313,45.79854 0,0 z m 29.8,11.7 c -4.12003,-10.45848 3.46919,12.59925 0,0 z m 10.7,-1.35 c 1.45359,-35.1799 -0.4586,-17.30671 0,0 z m 45.4,4.9 C 589.85704,296.10923 608.86495,290.26322 605.31541,275 621.07883,251.94533 574.10512,313.46565 616.9,305.25 Z m 21.1,-7 c 15.84003,-3.63075 0.0603,-18.42813 -1.5,-19.38459 -0.11902,4.8301 0.15083,42.06549 1.5,19.38459 z m 37.75,6.75 c -11.09267,-17.33319 -0.11391,-11.67048 -3.93599,-30.06048 17.26143,-18.18458 -31.438,38.0148 11.93599,30.36048 l -4.36234,-0.16359 z m 101.15,0.25 c -34.41962,-2.79009 5.49135,-16.41703 -15.5,-22.75 25.04244,-37.14122 -30.36859,30.96867 15.5,22.75 z m 44.55,-14.85 c 7.37062,-32.55415 -9.95015,-17.62812 -0.65,15.1 z m 62.05,-0.15 c 19.14365,-23.45097 -18.04174,-22.31909 -1,-6.51918 -0.15597,9.71439 0.79967,41.00869 1,6.51918 z m 147.9,1.25 c 2.7701,-50.61657 -3.0568,46.43074 0,0 z M 1052,290 c 0.6031,-53.40659 -4.1318,55.23915 0,0 z m 12.85,14.7 c -1.6481,-4.45717 -3.1634,2.64923 0,0 z m 29.85,-1.55 c -3.0555,-6.36454 1.7392,7.82884 0,0 z m 10.3,-4.4 c 12.6765,1.12 -6.0712,-39.28842 -1,-8.75 l 0.5,15.5 z m 29.5,-8.75 c -1.6499,-55.03786 -1.6499,55.03786 0,0 z m 38.7,14.95 c -26.7346,-8.67517 -7.9233,-14.82168 -11.3861,-30.01409 17.2559,-17.77313 -33.0259,37.48298 11.3861,30.01409 z m 10.7,-13.7 c 1.23,-54.50216 -1.6363,47.83699 0,0 z M 1204,290 c -0.069,-52.63026 -2.7543,54.1284 0,0 z m 17.4,15.15 c -10.9876,-13.70072 6.3473,-52.38394 -5.4,-17.55378 -8.397,13.70638 11.0946,21.86321 5.4,17.55378 z m 27.1,-6.4 c 12.564,1.03561 -5.8872,-39.27452 -1,-8.75 l 0.5,15.5 z M 1312,290 c -1.6499,-55.03786 -1.6499,55.03786 0,0 z m 12.85,1.5 c 1.1641,-53.42425 -1.7799,48.49107 0,0 z M 1345,290 c -0.044,-54.01132 -2.5039,54.18422 0,0 z m 20.45,0.4 c 10.3173,-24.86169 -16.8214,-24.07901 -1.45,-0.15 l 0.8,15.25 z m 59.95,13.8 c -3.3704,-4.61291 -2.8485,4.13864 0,0 z m 19,0.45 c -1.2063,-2.35725 -6.2714,2.49127 0,0 z M 1461,290 c -1.6499,-55.03786 -1.6499,55.03786 0,0 z m 20,0.25 c 4.5127,-55.029 -6.899,27.97898 0,0 z m 20,7.25 c 14.8175,-29.86623 30.8617,34.3558 19.75,-23 -5.7217,41.6507 -37.7028,-26.68933 -20.25,31 z m 58.8,7.65 c -31.9921,-11.18281 5.2042,-10.54032 -15.35,-30.1 31.7453,-18.29431 -33.6957,32.06659 15.35,30.1 z m 27.3,-6.7 c -31.6906,-15.19916 3.1114,5.01738 0,0 z m 51.7,6.5 c -21.7251,-11.30546 -3.9811,-15.13149 -8.4349,-30.00525 21.0302,-17.05627 -33.8825,32.46524 8.4349,30.00525 z m 15.05,-0.25 c -1.6481,-4.45717 -3.1634,2.64923 0,0 z M 957.9,286.65 c -0.85156,-43.4829 -2.85782,48.82515 0,0 z m -153.4,11.2 c -4.89109,-16.50288 -0.48105,9.83152 0,0 z m 51.5,0 c -4.02043,-16.64292 -0.9932,10.05035 0,0 z m 543.7,0.8 c -1.7588,-12.66345 -1.8415,8.34221 0,0 z m 215.8,-0.8 c -4.1957,-16.30827 -1.2232,9.64255 0,0 z M 987.2,299 c -3.02191,-16.94251 -1.4815,7.40902 0,0 z m -258.7,-0.75 c -0.47641,-50.34486 -3.08201,-9.05931 0,0 z m 173.15,-1 c -4.3871,-35.05021 8.32987,24.77226 0.55,2.1875 z m 375.6,0.2 c 0.3037,-39.29278 -2.2569,3.61982 0,0 z M 923.7,297.6 c 4.872,-49.79903 -5.2154,8.64428 0,0 z m 72.95,-2.35 c 1.47975,-39.84798 -0.7383,12.66958 0,0 z m 23.05,0.55 c 3.6347,-51.59281 -5.3696,16.1567 0,0 z m 279.55,1.55 c 3.9102,-30.65415 -4.718,-5.85534 0,0 z m -583.4,-0.7 c 1.81453,-38.51435 -4.34833,4.86379 0,0 z m 32.5,-11.5 c -1.21012,-38.71283 -1.69184,42.90929 0,0 z m 488.85,4.6 c -3.0695,-27.79703 -2.2474,25.79649 0,0 z m -544.2,6 c 4.07198,-39.08104 -3.82903,5.55393 0,0 z m -213,-2 c -36.23475,-5.25906 -82.24441,-0.74321 -122.23142,-2.25 -104.58953,0 -209.17905,0 -313.76858,0 15.679633,10.55768 51.016133,1.45849 74.21193,4.5 120.59603,0 241.19205,0 361.78807,0 z m 1636,0 c -36.2347,-5.25906 -82.2444,-0.74321 -122.2314,-2.25 -104.5895,0 -209.1791,0 -313.7686,0 15.6796,10.55768 51.0161,1.45849 74.2119,4.5 120.5961,0 241.1921,0 361.7881,0 z m -1557.55,0.9 c 3.62709,-4.51951 -33.53784,1.92746 0,0 z m 532.9,-1.5 c -9.9937,1.66745 -26.9295,0.54939 0,0 z m 327.65,-9.2 c -6.4119,-30.76983 4.6957,28.30351 0,0 z m -436,7.8 c -9.33587,-5.90594 -2.24412,-0.0776 0,0 z M 798,290.5 c -7.39588,-3.58154 4.95318,3.45223 0,0 z m 51.5,0 c -7.39588,-3.58154 4.95318,3.45223 0,0 z m 544,0 c -7.3959,-3.58154 4.9532,3.45223 0,0 z m 215.5,0 c -7.3959,-3.58154 4.9532,3.45223 0,0 z m -764,-2 c -7.39588,-3.58154 4.95318,3.45223 0,0 z m 544,0 c -7.3959,-3.58154 4.9532,3.45223 0,0 z m -808.5,-2.05 c -2.63506,-3.71224 -2.39759,5.04197 0,0 z m 1072.95,-8.8 c -1.3689,-16.83735 -0.5661,24.80379 0,0 z m -864.75,7.8 c -5.65523,-18.64071 1.76604,5.94879 0,0 z m 276.15,0.75 c -2.3268,-5.0105 -1.469,3.40104 0,0 z m 58.6,-3.45 c -1.3499,-10.85392 -1.3499,10.85392 0,0 z m 143.45,0.85 c -0.2665,-11.79867 -1.9225,10.46112 0,0 z m -611.05,-0.45 c -0.3616,-11.19976 -2.04527,8.65071 0,0 z m 183.1,0.8 c -0.0115,-11.19997 -2.89471,2.92831 0,0 z m 544,0 c -0.012,-11.19997 -2.8947,2.92831 0,0 z m 215.5,0 c -0.1941,-12.9617 -1.0518,-3.30097 0,0 z m -628.35,-2.4 c -1.23755,-7.20378 -0.86626,7.30411 0,0 z M 1450.2,276 c 0.1021,-4.77958 -1.9658,6.09574 0,0 z m -15.5,0.65 c -2.225,-6.82736 -3.1836,5.1947 0,0 z m -926.2,0.05 c -2.37192,-5.89593 -4.91055,2.04816 0,0 z m 43.25,-1.7 c -3.58541,-1.85663 -2.38447,1.89928 0,0 z m 533.5,0 c -3.2886,-1.85071 -3.2886,1.85071 0,0 z m 493.75,0 c -3.2886,-1.85071 -3.2886,1.85071 0,0 z m -464.1,-0.35 c -6.1155,-0.7057 -1.1922,0.71313 0,0 z m -409.25,-0.5 c -5.62284,-0.73779 -1.01457,0.7473 0,0 z m 90.75,0 c -4.50145,-0.74327 -0.79529,0.75831 0,0 z m 51.75,0 c -5.00175,-0.70194 -0.96721,0.71296 0,0 z m 65.5,0 c -5.62284,-0.73779 -1.01457,0.7473 0,0 z m 65.5,0 c -5.00175,-0.70194 -0.96721,0.71296 0,0 z m 30,0 c -5.6228,-0.73779 -1.0146,0.7473 0,0 z m 280,0 c -5.6228,-0.73779 -1.0146,0.7473 0,0 z m 103,0 c -5.0018,-0.70194 -0.9672,0.71296 0,0 z m 215,0 c -5.0018,-0.70194 -0.9672,0.71296 0,0 z m -188.1,-51 c -3.4901,-41.0113 -5.1036,-58.8898 37.8063,-41.21875 C 1485.0069,153.14367 1491.2271,38.382656 1429.5,60.45 c -5.6455,6.718489 -44.7062,-21.743377 -37.5,13.511631 0,50.512789 0,101.025579 0,151.538369 6.6687,-2.34894 24.6624,4.05562 27.05,-2.35 z M 88,219.8 C 183.83838,210.93562 208.29171,67.267528 126.85,21.75 96.206374,9.1278114 12.008045,-14.08139 6.5,23.961631 11.989324,43.985097 -8.5386582,90.025869 25.5,81.5 c 37.147384,18.66105 2.810951,-52.169135 31,-29 25.536271,20.534735 53.28625,39.540779 77.5,60.95 -23.02937,10.99615 -87.377852,92.56601 -89.5,50.8 6.613804,-38.97711 -59.962206,-18.28053 -38,17.17326 -7.07403359,33.03697 4.177692,47.65186 38.15,39.42674 14.447245,-0.28258 28.944129,0.37479 43.35,-1.05 z M 814.05,186.55 C 866.61926,161.98952 835.26183,86.884671 842.97704,37.861339 862.9145,1.537265 800.12208,-13.58038 813.18125,29.5125 c 4.36678,59.04123 2.5115,119.10219 -23.68125,156.51832 2.03347,5.47278 21.94609,-3.45108 24.55,0.51918 z m 872.8,-2.3 c 48.1089,1.5201 43.2182,-100.762555 7.0947,-56.42057 3.0676,69.98718 -64.2882,16.55779 -38.7447,-29.07943 -19.2528,-36.726371 24.8102,-117.395935 38.65,-46.1 6.3166,39.921695 56.28,-5.533506 19.55,-34.4 -96.2506,-65.277868 -105.0512,92.23156 -77.9,149.25 11.2809,16.4688 33.1408,19.94582 51.35,16.75 z M 258.8,183.95 C 314.57238,167.8401 302.72812,26.754091 229.15,59.05 199.16307,84.777645 191.66889,197.41095 258.8,183.95 Z M 375,183.75 C 405.85485,164.83543 337.1071,150.63314 363.25,109.63459 349.19856,71.437095 384.44029,81.879059 383,56.15 343.15814,69.400749 382.92688,2.3487664 340.51918,18 335.61978,37.375663 330.13623,56.774645 322.5,73.5 c 33.87156,7.123328 -5.28196,77.96004 20.5875,102.45625 8.19273,8.94028 20.89412,8.80842 31.9125,7.79375 z m 210.7,-0.45 c 57.12005,-16.47434 0.18165,-81.93092 -5.06406,-18.70703 C 540.94964,161.42212 558.21719,97.750981 599.39622,119.5 646.08991,105.41536 572.2286,10.000067 539.6,72.4 c -9.52902,37.92488 -20.5888,125.87939 46.1,110.9 z M 690,183.8 C 725.6084,165.886 651.08635,151.99654 679.62878,110.28464 665.78121,72.005855 700.07334,81.763156 699,56.069184 663.10062,70.303452 693.39877,17.379261 670.76918,18 632.72358,3.2704881 669.9881,62.957656 639.28459,56.5 641.787,76.680363 659.9373,83.602931 652,115.15 c 0.91381,29.03385 -9.31982,77.12735 38,68.65 z m 235.05,-0.95 c 82.5408,-25.095 -75.45244,-114.12129 -1.05,-103 40.45675,35.55805 -2.23844,-62.658674 -38.50625,-15.79375 -43.5883,45.52746 53.76359,62.16691 33.8125,101.24375 -17.10522,-13.12404 -66.47814,-30.33282 -29.6125,12.6 10.27101,7.35303 23.57344,7.47506 35.35625,4.95 z m 101.75,1.1 c 57.3279,-17.02543 41.6639,-160.512159 -32.3,-123.45 -26.74156,29.074656 -33.51592,136.51066 32.3,123.45 z M 1927,183 c 53.4617,-14.90575 1.3689,-81.77939 -4,-19.95 -38.3332,9.00168 -29.2051,-67.57168 12.4308,-43.55 C 2001.0953,104.87246 1887.9055,3.0258385 1875.0812,86.4625 1871.6666,124.60848 1865.009,198.70895 1927,183 Z m 216,0.8 c 35.0194,-17.75591 -36.4261,-33.09107 -10.416,-73.76538 C 2118.5801,71.621477 2153.2306,81.782613 2152.5,56.5 2112.2258,72.101552 2151.2614,9.1280607 2118.75,18 c -27.3833,-1.56024 -5.251,45.87731 -26.75,51.365408 27.7797,8.480045 4.4266,66.553122 14.4,94.534592 2.5688,17.29632 21.9428,22.22776 36.6,19.9 z M 438,128.75 c -0.37658,-22.72152 -3.41529,-84.692493 14.05,-27.6 9.54908,19.77269 34.97097,115.70909 52.45,68.75378 0,-55.1346 0,-110.269188 0,-165.40378 C 466.37505,-6.9198161 483.63103,37.041306 480,60.115408 483.1847,94.009215 478.57823,124.78606 463.5,76 446.28729,53.451704 449.30698,0.16903854 414.16918,4.5 411.44508,61.665624 413.78497,123.89525 413,183 c 41.50622,10.92461 19.61484,-29.87733 25,-54.25 z m 680,2.75 c -8.4842,-23.74763 6.8143,-86.840203 25.625,-40.34375 11.2458,24.18134 -17.5676,88.1408 13.875,91.84375 31.5866,-1.02345 2.8683,-62.30093 13.2914,-84.371875 C 1190.1191,44.797514 1107.6949,61.580209 1118,62.8 c -31.2473,-30.254058 -30.2489,26.076872 -27.5,50.6003 5.3069,20.80324 -11.0436,63.26398 8.7308,69.5997 34.286,10.33325 12.8474,-33.23354 18.7692,-51.5 z m 167.1,46.65 c -3.2744,-62.08068 55.1682,-35.07919 52.7654,4.85 50.9667,-7.59476 -13.3907,-108.231671 -7.6466,-152.20625 -26.7246,-75.745915 -57.8629,20.79767 -54.9678,59.997388 3.084,25.029432 -45.8393,121.969202 9.849,87.358862 z m 246.9,-58.4 c -6.3069,-22.641084 17.8714,-76.200846 -23.9618,-63.273169 -7.0399,19.68539 -1.0992,51.835749 -3.0382,76.419389 1.2718,24.29491 -10.3751,61.5084 26.5962,50.10378 0.9252,-20.23528 0.147,-42.37488 0.4038,-63.25 z m 248.5,-26 c 0,-29.75 0,-59.5 0,-89.25 -36.785,-11.6118079 -27.0531,23.293211 -27.5,48.019486 0,43.493505 0,86.987014 0,130.480514 36.785,11.61181 27.0531,-23.29321 27.5,-48.01949 0,-13.7435 0,-27.48701 0,-41.23051 z m 60,26.1 c -6.0898,-23.219347 17.7431,-76.802875 -25.1104,-63.290701 -4.406,38.547656 -0.6142,84.909061 -1.8896,126.440701 36.5913,11.58477 26.326,-23.68695 27,-48.01949 0,-5.0435 0,-10.08701 0,-15.13051 z m 166,11.9 c -22.9326,-47.238447 35.6216,-86.854158 25.9641,-17.58359 8.5352,20.43287 -18.0506,75.87298 17.9013,68.83359 22.6509,-17.98677 3.3001,-82.99005 6.6346,-115.55 -8.6911,-34.994145 -46.821,9.819401 -50.6,-4.8 -26.5,-28.427896 -32.8963,21.43588 -27.4,46.33489 2.9608,23.16606 -5.9829,58.23658 4.3654,74.01511 39.676,10.50735 17.4785,-28.37686 23.1346,-51.25 z m -777,20.75 c 3.153,-34.03558 -46.4662,-2.57526 -21.6346,13.5 12.4773,-1.0823 26.7785,5.68942 21.6346,-13.5 z m 0,-75.7 c -15.6732,-49.470572 -49.7641,31.61042 0,13.2 0,-4.4 0,-8.8 0,-13.2 z M 1532,21.5 c -10.1553,-37.986126 -56.2903,21.906319 0,10.95 0,-3.65 0,-7.3 0,-10.95 z m 307.65,11.05 c 17.7793,-37.6634517 -49.0555,-22.45164 -21.7859,0.0064 7.26,0.195406 14.5259,0.165027 21.7859,-0.0064 z"
       id="path1" />
    <path
       d="m 1425.95,165.55 c -2.3256,-0.90359 -4.5193,-2.09746 -6.7,-3.3 -0.018,-25.2392 -0.2178,-50.47908 -0.091,-75.717693 0.4229,-3.48972 -0.5953,-7.833837 1.9768,-10.628303 3.598,-2.113708 7.4119,-4.278352 11.7482,-4.030774 3.784,-0.513669 7.9563,0.364277 10.2458,3.686829 4.2332,6.704241 3.3715,14.980401 3.6778,22.544869 -0.017,17.466582 0.018,34.938972 -0.415,52.400782 -0.2243,4.86183 -1.0701,10.24815 -4.5718,13.89023 -2.5574,2.86043 -6.7235,1.63915 -10.0995,1.97735 -1.9451,-0.0173 -3.9433,-0.0813 -5.7718,-0.82329 z"
       id="path2" />
    <path
       d="m 246.15,166.5 c -3.1972,-0.56221 -5.82966,-2.71156 -7.06738,-5.65918 -2.36778,-5.39764 -1.48464,-11.45211 -1.82462,-17.17595 -0.11127,-18.46467 -0.39706,-36.93537 -0.0198,-55.397681 0.1801,-4.848606 1.15093,-10.194756 4.69041,-13.755714 2.60571,-2.459767 6.46651,-1.68055 9.76957,-1.964869 4.00139,-0.562653 7.57999,2.261825 8.95949,5.88396 2.47332,5.269292 1.59588,11.24761 1.96536,16.877464 0.23502,19.62251 0.38659,39.2588 -0.28093,58.87419 -0.27241,4.45126 -1.8693,9.76845 -6.35779,11.63223 -3.12372,1.12871 -6.58376,1.40613 -9.83435,0.68555 z"
       id="path3" />
    <path
       d="m 560.85,107.15 c -0.4464,-2.13966 -0.2763,-4.36991 -0.34091,-6.55078 0.0532,-4.971507 0.0158,-9.969658 0.67597,-14.906215 0.56929,-3.403868 1.15275,-7.150453 3.69931,-9.699372 2.60867,-2.412955 6.39837,-2.487585 9.75452,-2.487917 2.84023,0.04509 6.11577,0.30592 8.04324,2.683542 2.1974,2.538222 2.98245,5.920947 3.21787,9.190234 0.5102,6.521199 0.45682,13.068995 0.64577,19.604148 0.0181,0.83878 0.0362,1.67757 0.0542,2.51636 -8.21062,-0.0409 -16.42618,0.12636 -24.63203,-0.21094 -0.37366,-0.0327 -0.75577,-0.0278 -1.11797,-0.13906 z"
       id="path4" />
    <path
       d="m 1014.15,166.5 c -3.1972,-0.56221 -5.8297,-2.71156 -7.0674,-5.65918 -2.3678,-5.39764 -1.4846,-11.45211 -1.8246,-17.17595 -0.1113,-18.46467 -0.3971,-36.93537 -0.02,-55.397681 0.1801,-4.848606 1.151,-10.194756 4.6904,-13.755714 2.6058,-2.459767 6.4666,-1.68055 9.7696,-1.964869 4.0014,-0.562653 7.58,2.261825 8.9595,5.88396 2.4733,5.269292 1.5959,11.24761 1.9654,16.877464 0.235,19.62251 0.3866,39.2588 -0.281,58.87419 -0.2724,4.45126 -1.8693,9.76845 -6.3577,11.63223 -3.1238,1.12871 -6.5838,1.40613 -9.8344,0.68555 z"
       id="path5" />
    <path
       d="m 1901.1,95.4 c 0.1428,-4.115273 -0.031,-8.263589 0.5532,-12.3491 0.5394,-2.392379 1.7499,-4.590963 3.0468,-6.6509 1.8831,-2.441641 5.2042,-2.91518 8.0922,-3.076994 3.0382,-0.03151 6.4623,-0.105197 8.9272,1.966252 1.9252,1.792954 3.0385,4.290047 3.876,6.739268 0.8855,3.628905 0.9979,7.392917 1.2073,11.108515 0.2448,4.7029 0.045,9.409359 -0.053,14.112959 -8.6164,0.10904 -17.2331,0.19257 -25.85,0.25 0.067,-4.03333 0.1333,-8.066667 0.2,-12.1 z"
       id="path6" />
    <path
       d="m 1295.25,122.45 c -0.4591,-2.91684 0.4728,-5.8942 0.7708,-8.81249 3.5627,-22.584253 7.4636,-45.116403 10.9142,-67.717274 -0.2664,-1.407112 1.247,-0.798175 2.115,-0.920236 3.3892,-0.276485 1.6303,4.517827 2.6593,6.597168 2.6951,17.22926 5.6393,34.418252 8.3314,51.648222 0.965,6.30459 2.175,12.5744 2.9593,18.90461 -2.1602,1.43373 -5.4844,0.56335 -8.1341,0.84201 -6.4413,-0.0781 -12.9186,0.23779 -19.3342,-0.41789 z"
       id="path7" />
  </g>
  <g
     fill="#323f52"
     id="g29">
    <path
       d="m 1390.45,226.8 c -0.2424,-57.34899 0.046,-114.70008 0.05,-172.05 10.0833,0.06649 20.1667,0.13316 30.25,0.2 0.3375,2.977897 -1.1978,11.709584 3.25,7.05 4.3122,-3.57724 9.1157,-6.054609 14.5904,-7.77168 6.5474,-1.340415 13.9631,-1.796137 20.1596,1.12168 11.633,6.364973 15.3494,20.489553 16.5934,32.764282 0.067,21.218088 0.4658,42.465948 -0.3246,63.666968 -1.5759,12.08583 -5.6067,25.96715 -17.342,31.90448 -9.8156,4.76759 -21.7357,2.44961 -30.3187,-3.85956 -3.0189,-2.49267 -8.2459,-7.30619 -6.632,0.13633 -0.069,15.67917 0.092,31.35831 0.1239,47.0375 -10.1328,-0.0476 -20.2724,0.13639 -30.4,-0.2 z m 49.5,-63.55 c 5.9261,-6.07242 4.7103,-15.31571 5.0468,-23.10167 -0.058,-18.09848 0.8214,-36.23902 -0.38,-54.307998 -0.089,-7.235682 -6.2936,-14.799967 -14.0856,-12.059082 -7.1493,1.004497 -11.2926,6.844363 -9.8593,13.954893 -0.148,24.337217 0.063,48.675957 0.078,73.013857 5.3298,3.39927 11.9873,5.35895 18.1508,3.32578 z"
       id="path8" />
    <path
       d="m 788,177.3 c 0,-3.93333 0,-7.86667 0,-11.8 7.72723,-0.12319 17.60763,-0.0762 21.63789,-7.98457 3.01584,-8.84745 1.36011,-18.42314 1.91859,-27.61243 0.2061,-42.217318 0.14101,-84.43533 0.19352,-126.653 10.9998,-0.1094715 21.9998,-0.1927997 33,-0.25 -0.17992,50.020886 0.16252,100.04722 -0.58152,150.06339 -0.4828,6.81944 -1.21687,14.16267 -4.88098,20.08661 -4.31537,7.8868 -12.36993,13.00236 -21.16104,14.42666 -9.90745,1.81662 -20.08774,1.07576 -30.12646,1.52334 0,-3.93333 0,-7.86667 0,-11.8 z"
       id="path9" />
    <path
       d="m 1670,186.9 c -9.2007,-1.12476 -18.8362,-2.50515 -26.4093,-8.38164 -11.597,-7.59929 -16.7688,-21.35659 -18.6428,-34.54965 -2.0309,-21.00637 -0.8766,-42.17274 -1.1849,-63.248065 0.488,-19.069269 -1.7524,-39.324629 6.887,-57.020645 3.616,-7.181402 8.913,-13.610924 16.3812,-16.94375 12.2979,-6.58489936 26.7319,-5.83894806 40.2188,-5.05625 11.8787,1.3958356 23.5135,7.5153375 29.668,18.067285 6.4757,11.640122 7.3814,25.341829 7.1308,38.448816 0.121,5.163444 1.2612,12.063653 -6.1612,9.93999 -8.4617,0.138137 -16.9251,0.09809 -25.3876,0.143909 -0.2834,-11.364381 1.0086,-23.033221 -2.1766,-34.067639 -2.2003,-8.012131 -11.1287,-9.986628 -18.3359,-8.669861 -7.1011,-0.17797 -12.6535,6.07373 -13.6375,12.8375 -2.3473,11.390933 -1.0287,23.182778 -1.463,34.756166 0.1379,23.537837 -0.5068,47.110254 0.611,70.624104 0.6208,6.54752 2.6685,13.45846 8.8817,16.75489 7.0052,2.63102 17.2755,3.16653 21.8511,-3.89912 5.6912,-9.68734 3.3818,-21.40631 4.2714,-32.09722 -2.8349,-10.97802 9.9069,-6.22559 16.5201,-7.2361 5.0259,0.0324 10.0518,0.0649 15.0777,0.0973 -0.248,14.76642 0.8507,29.93848 -4.5999,43.99854 -4.4111,11.97211 -15.0702,21.2203 -27.6126,23.59599 -7.1158,1.68514 -14.6081,2.08027 -21.8875,1.90547 z"
       id="path10" />
    <path
       d="m 244.35,186.2 c -11.21304,-1.02396 -23.09266,-5.70582 -28.975,-15.86875 -2.64013,-3.74211 -4.3364,-8.71774 -5.575,-13.38125 -2.26894,-10.25369 -1.15287,-20.84162 -1.49666,-31.25724 0.12341,-12.76863 -0.2921,-25.57799 0.56463,-38.316198 0.69478,-4.453454 1.82835,-8.864126 3.62163,-13.121633 C 215.94732,65.994674 222.56704,59.044165 231.05,56 c 8.9551,-3.500261 18.72391,-2.832008 28.12578,-2.438867 8.86443,1.246464 17.41069,5.385584 23.17334,12.361426 7.84615,9.574126 9.2913,22.529463 9.13113,34.493761 -0.0492,16.56778 0.48115,33.16107 -0.36477,49.71222 -1.01736,10.55219 -5.21859,21.40321 -13.61548,28.22146 -9.35282,7.2172 -21.75378,8.30979 -33.15,7.85 z m 9.9,-21.75 c 5.99587,-2.25233 6.7587,-9.84322 6.80466,-15.38472 0.17022,-20.36053 0.48957,-40.73755 -0.17341,-61.09028 -0.1089,-5.626577 -2.28291,-13.333563 -8.98802,-13.764685 -5.0514,-1.051921 -10.2129,1.5305 -11.53897,6.702832 -2.62862,7.631167 -1.37691,15.889322 -1.73711,23.813153 0.16439,16.48482 -0.2522,32.99265 0.55316,49.4612 0.29333,5.75997 4.65966,11.44595 10.87559,10.97783 1.42919,-0.01 2.84052,-0.30486 4.2041,-0.71533 z"
       id="path11" />
    <path
       d="m 568.35,186.2 c -8.31546,-0.84656 -16.92301,-2.95974 -23.09397,-8.98917 -4.06615,-3.50427 -7.38726,-7.73253 -9.07593,-12.8298 -2.65318,-7.41311 -4.29128,-15.20611 -3.8993,-23.10997 -0.0768,-17.92161 -0.3179,-35.86361 0.4192,-53.77106 1.43302,-9.686514 5.28272,-19.293108 12.76787,-25.930176 7.30328,-6.491535 17.59729,-8.524636 27.18472,-8.386621 8.74026,-0.319322 18.02784,0.605744 25.22241,6.079297 6.18051,4.143657 10.75737,10.563815 12.3922,17.834349 4.35928,14.15174 3.08652,29.058771 3.2828,43.653151 -17.1,0.16667 -34.2,0.33333 -51.3,0.5 0.0996,11.28473 -0.76237,22.6509 0.81692,33.85844 0.73954,6.15535 7.07532,10.47969 13.06599,8.98111 6.20831,-0.71648 8.69148,-7.51071 8.46553,-12.98252 1.10204,-4.38505 -1.5692,-12.02333 2.26709,-14.06905 8.9193,-0.47465 17.85617,-0.32006 26.78447,-0.43798 -0.58934,10.10298 0.19879,20.67457 -4.38125,30.0125 -1.67047,5.27383 -6.07449,9.23438 -10.02568,12.91279 -3.65821,2.62399 -8.1599,4.14937 -12.62422,5.34756 -5.95522,1.40902 -12.18721,1.40255 -18.26885,1.32715 z m 16.5,-90.3 c -0.49799,-6.558233 0.71122,-14.826918 -5.09453,-19.39541 -5.17502,-2.896264 -13.55205,-1.835032 -15.57922,4.523157 -2.54259,7.592496 -1.77991,15.757975 -2.0073,23.642953 2.97776,2.43054 9.21076,0.83732 13.55369,1.3293 3.12578,0 6.25157,0 9.37736,0 -0.0833,-3.36667 -0.16667,-6.733333 -0.25,-10.1 z"
       id="path12" />
    <path
       d="m 908.4,186.25 c -6.47938,-0.58223 -12.86772,-2.27018 -18.40576,-5.81525 C 879.55443,174.65746 874.23944,163.29249 870.6,152.45 c 7.09851,-3.30224 14.5575,-5.73694 21.76875,-8.7625 3.42608,3.11534 3.73144,10.91527 7.6416,14.95234 4.13313,6.39506 13.7498,8.21729 19.90996,3.83985 4.19624,-4.03605 2.90852,-10.79203 0.87266,-15.59453 -2.98567,-3.98915 -6.52816,-7.83865 -10.57813,-10.96563 -10.57496,-9.13601 -21.9566,-17.64598 -30.39609,-28.93047 C 877.07696,103.30705 875.43599,98.636082 874.5,94 c -1.53297,-9.595317 -0.25568,-20.231154 6.20231,-27.875745 4.99304,-6.799738 13.1359,-10.459269 21.13933,-12.297515 9.79745,-1.410533 20.40093,-0.942143 28.92399,4.642791 5.3457,3.203192 9.28516,8.259384 12.23437,13.630469 1.61114,4.279006 6.39361,10.968182 3.36875,14.86875 -5.49826,2.714077 -11.18198,5.074648 -16.84375,7.41875 -4.21927,-1.175059 -2.85723,-9.689411 -6.89375,-12.58125 C 919.73864,75.541383 910.93175,72.559119 905.15,76.8 c -5.77382,4.219664 -4.15267,12.927184 0.55713,17.307422 10.79763,11.221948 23.27637,20.684148 33.86387,32.131638 5.17032,5.41053 8.57856,12.28416 10.329,19.51094 0.37614,6.41668 0.87672,13.24686 -1.65,19.25 -1.55103,4.68317 -4.94185,9.00859 -8.66618,12.35298 -8.5107,7.4115 -20.23971,9.40605 -31.18382,8.89702 z"
       id="path13" />
    <path
       d="M 1010.75,185.95 C 999.822,184.91805 988.775,179.6617 983,170 c -3.85916,-6.06319 -5.42675,-13.39996 -6.39527,-20.4583 -0.42628,-20.33976 -0.48922,-40.70615 0.0953,-61.0417 0.61596,-4.681673 1.78128,-9.172531 3.53025,-13.63877 3.82502,-9.643197 12.05818,-17.519366 22.25095,-19.922949 7.9875,-2.417129 16.4772,-1.636466 24.6946,-1.377148 8.8644,1.246464 17.4107,5.385584 23.1733,12.361426 7.3498,9.015022 9.2932,21.100504 9.0001,32.424316 0.1578,16.881725 0.476,33.778095 -0.049,50.653125 -1.0901,10.54147 -4.746,21.45625 -12.8621,28.67255 -9.9216,8.00522 -23.4117,9.33345 -35.6879,8.27745 z m 11.5,-21.5 c 5.9959,-2.25233 6.7587,-9.84322 6.8047,-15.38472 0.1702,-20.36053 0.4895,-40.73755 -0.1735,-61.09028 -0.1089,-5.626577 -2.2829,-13.333563 -8.988,-13.764685 -5.327,-1.164708 -10.5207,1.879115 -11.7643,7.284998 -2.2493,7.484698 -1.1278,15.466007 -1.4617,23.176137 0.1804,16.504 -0.287,33.03064 0.5039,49.51918 0.2932,5.75908 4.6605,11.44265 10.8748,10.9747 1.4292,-0.01 2.8405,-0.30486 4.2041,-0.71533 z"
       id="path14" />
    <path
       d="m 1906.75,185.95 c -5.1189,-0.66268 -10.1129,-1.66739 -14.6659,-3.93695 -12.073,-6.00161 -17.9518,-19.56818 -19.2895,-32.38134 -1.2086,-16.61023 -0.35,-33.29376 -0.3881,-49.933529 -0.2293,-13.305653 2.1823,-28.044252 12.3897,-37.520727 5.0747,-4.763745 11.9103,-7.115334 18.7026,-8.415137 7.4685,-0.655592 15.1094,-0.85639 22.5357,0.298633 10.984,2.037371 20.809,10.138988 23.7799,21.07207 4.977,13.386057 3.5988,27.82146 4.2369,41.81941 -0.1944,1.73688 1.0868,4.91381 -1.775,4.04757 -16.6255,0 -33.2509,0 -49.8763,0 0.2761,11.29054 -0.09,22.61747 0.8117,33.87656 0.6437,5.86358 6.0558,10.33421 11.9822,9.23555 6.99,0.16437 9.8802,-7.51879 9.8061,-13.38086 0.2548,-4.65666 0.3262,-9.32003 0.45,-13.98125 9.4167,0 18.8333,0 28.25,0 -0.2077,11.95013 0.1863,24.92076 -7.0438,35.13271 -2.8312,4.60671 -7.2823,8.13659 -11.95,10.48604 -5.9278,2.14409 -12.3199,4.01687 -18.7906,3.79944 -3.0538,0.0262 -6.1256,0.11681 -9.1656,-0.21819 z m 18.6,-85.45 c -0.2832,-7.598305 0.6091,-16.084058 -3.9975,-22.629883 -3.7521,-4.213726 -11.3714,-3.861991 -15.2025,0.02988 -2.6568,3.986469 -3.5273,8.529688 -3.3277,13.291222 -0.1203,4.936829 -0.2778,9.872618 -0.4223,14.808778 7.5836,-0.057 15.167,-0.14014 22.75,-0.25 0.067,-1.75 0.1333,-3.5 0.2,-5.25 z"
       id="path15" />
    <path
       d="m 360.35,185.7 c -8.36458,-0.80811 -17.10673,-4.2471 -21.60625,-11.85 -6.37273,-11.78215 -4.08565,-25.60402 -4.65616,-38.43942 C 334.04021,115.27375 334.02938,95.136858 334,75 c -4.33333,0 -8.66667,0 -13,0 0.0574,-6.750319 0.14104,-13.500316 0.25,-20.25 4.16635,-0.07635 8.33302,-0.126332 12.5,-0.15 0.10915,-12.783165 0.19262,-25.566498 0.25,-38.35 10.13251,0.113851 20.28382,-0.160108 30.4,0.45 0.85978,12.583267 0.29183,25.235571 0.45,37.85 6.55,0 13.1,0 19.65,0 0,6.816667 0,13.633333 0,20.45 -6.58366,0.05728 -13.16699,0.140884 -19.75,0.25 0.17029,26.17222 -0.29219,52.35786 0.50938,78.51875 0.9672,7.46447 9.29643,8.61638 15.37578,7.71484 3.40509,-0.82084 5.8063,-0.91662 4.86117,3.0957 0.0842,6.60691 0.16894,13.21381 0.25367,19.82071 -8.43868,1.04598 -16.89264,1.60547 -25.4,1.3 z"
       id="path16" />
    <path
       d="m 680.45,185.85 c -8.61278,-0.59141 -18.14364,-2.22115 -23.85312,-9.45078 -2.97457,-3.77796 -4.16598,-8.38851 -5.27813,-13.19922 -1.3136,-8.921 -0.47017,-18.06343 -0.78301,-27.07788 C 650.47272,115.74815 650.51021,95.374039 650.5,75 c -4.43333,0 -8.86667,0 -13.3,0 0.0965,-6.783506 0.23341,-13.56613 0.3,-20.35 4.3336,0.0017 8.66888,0.01179 13,-0.15 0,-12.666667 0,-25.333333 0,-38 10.08323,-0.03704 20.16669,-0.04448 30.25,-0.1 0.16667,12.733333 0.33333,25.466667 0.5,38.2 6.43313,0.07615 12.86646,0.126139 19.3,0.15 0.0664,6.750003 0.13307,13.500003 0.2,20.25 -6.6,0 -13.2,0 -19.8,0 0.23637,25.37987 0.001,50.76811 0.60148,76.14123 -1.30148,7.62004 6.551,11.63851 13.1171,10.56674 2.14837,0.97746 8.13239,-2.5598 7.1097,1.71941 0.10199,6.9739 0.16636,13.94821 0.22172,20.92262 -7.15241,0.84016 -14.34241,1.59522 -21.55,1.5 z"
       id="path17" />
    <path
       d="m 2129.35,185.7 c -9.717,-1.04703 -20.24,-6.16984 -23.0843,-16.24607 -4.0694,-10.83762 -2.195,-22.55938 -2.6879,-33.86143 -0.037,-20.19747 -0.049,-40.395002 -0.078,-60.5925 -4.3333,0 -8.6667,0 -13,0 0.1573,-6.601073 -0.3932,-13.266118 0.4219,-19.814844 3.6691,-1.304946 8.0045,-0.313574 11.9593,-0.491924 0.9105,-1.262729 0.1277,-4.263793 0.4173,-6.164063 0.1675,-10.692433 -0.081,-21.408998 0.6015,-32.079169 10.05,-0.06777 20.1,-0.131104 30.15,-0.2 0.098,12.413132 -0.3943,24.850113 0.2594,37.244531 3.1999,2.174522 8.6862,0.746971 12.8315,1.233238 2.203,0.02408 4.4061,0.04815 6.6091,0.07223 0.1094,6.73301 0.1927,13.466344 0.25,20.2 -6.6667,0 -13.3333,0 -20,0 0.1859,26.02696 -0.1814,52.06811 0.5925,78.08315 -0,7.32409 8.0511,9.2934 13.965,8.54098 3.5199,-0.21039 8.0156,-1.74735 6.5581,3.25585 0.016,6.54019 0.076,13.0801 0.1344,19.62002 -8.6005,0.72149 -17.2587,1.48133 -25.9,1.2 z"
       id="path18" />
    <path
       d="m 1347.15,184.6 c -5.05,-0.0333 -10.1,-0.0667 -15.15,-0.1 -2.3641,-13.84085 -4.5634,-27.71639 -7.25,-41.5 -10.1671,-0.81874 -20.4486,-0.56633 -30.6442,-0.2583 -3.2461,5.29477 -2.6947,14.25256 -4.5995,20.8333 -1.7527,6.61647 -1.398,15.39396 -4.6042,20.69551 -9.9903,0.43906 -20.0022,0.14645 -30.0021,0.22949 3.8117,-20.76441 8.2478,-41.41068 12.1375,-62.1625 7.9258,-38.978895 15.5795,-78.010095 23.4516,-117.0015625 -0.1951,-3.8587047 4.1137,-1.8512946 6.5207,-2.3359375 9.7967,0 19.5935,0 29.3902,0 12.252,60.331932 24.2555,120.71749 36,181.15 -4.9589,0.92538 -10.2023,0.32028 -15.25,0.45 z m -26.7,-68 c -3.7305,-23.231577 -7.5652,-46.454388 -11.1125,-69.7125 -2.1131,2.973259 -1.9906,11.591715 -3.3312,16.56875 -3.0115,18.723318 -6.2077,37.46511 -9.0313,56.1875 1.9637,3.68401 10.1483,1.04998 14.7078,1.85625 3.2057,0 6.4115,0 9.6172,0 -0.2833,-1.63333 -0.5667,-3.26667 -0.85,-4.9 z"
       id="path19" />
    <path
       d="m 411.45,94.5 c -0.0479,-30.199966 -0.0271,-60.400312 -0.15,-90.6 7.02829,-1.3817643 14.47318,-0.5907483 21.68564,-0.8886203 3.1872,0.2422234 2.98381,5.872077 4.93145,7.9983863 10.52956,24.184565 20.46438,48.615912 31.15791,72.733984 2.65289,6.267405 6.43511,16.65396 8.85195,20.15938 C 478.56358,70.273316 478.37624,36.634457 478.5,3 c 9.16667,0 18.33333,0 27.5,0 0,60.5 0,121 0,181.5 -7.35029,-0.0574 -14.70029,-0.14101 -22.05,-0.25 C 469.28661,148.51873 454.63149,112.78469 440.1,77 c -0.92996,20.124325 -0.38769,40.35178 -0.55678,60.51993 -0.0144,15.66003 -0.0288,31.32005 -0.0432,46.98007 -9.33333,0 -18.66667,0 -28,0 -0.0167,-30 -0.0333,-60 -0.05,-90 z"
       id="path20" />
    <path
       d="m 1089.1,119.65 c 0.05,-21.633333 0.1,-43.266667 0.15,-64.9 10.0833,-0.0665 20.1667,-0.13316 30.25,-0.2 0.1807,4.130698 -0.4414,8.409412 0.4562,12.41875 3.9654,-2.241382 7.4696,-5.9734 11.4402,-8.393359 8.1175,-4.638677 17.8898,-6.919579 27.0941,-4.547657 4.2862,1.843366 8.5698,5.369334 10.1657,9.684766 2.4721,3.503601 3.2667,8.428601 3.7131,12.839966 0.3555,35.981154 0.2756,71.965004 0.3807,107.947534 -10.0667,0 -20.1333,0 -30.2,0 -0.1919,-32.58927 0.057,-65.18516 -0.5875,-97.76875 1.0504,-6.176641 -3.1604,-13.114459 -10.2125,-11.18125 -4.4931,1.090748 -8.4355,3.53511 -12.25,6 0,34.31667 0,68.63333 0,102.95 -10.1667,0 -20.3333,0 -30.5,0 0.033,-21.61667 0.067,-43.23333 0.1,-64.85 z"
       id="path21" />
    <path
       d="m 1503.5,119.6 c 0,-21.65 0,-43.3 0,-64.95 10,-0.03333 20,-0.06667 30,-0.1 0,43.316667 0,86.63333 0,129.95 -10,0 -20,0 -30,0 0,-21.63333 0,-43.26667 0,-64.9 z"
       id="path22" />
    <path
       d="m 1751.5,93.75 c 0,-30.25 0,-60.5 0,-90.75 10.1667,0 20.3333,0 30.5,0 0,60.5 0,121 0,181.5 -10.1667,0 -20.3333,0 -30.5,0 0,-30.25 0,-60.5 0,-90.75 z"
       id="path23" />
    <path
       d="m 1812.1,119.65 c 0.05,-21.633333 0.1,-43.266667 0.15,-64.9 9.832,0.06458 19.6875,-0.336649 29.5,0.25 0.4821,39.506469 0.3111,79.02126 0.4745,118.53152 0.01,3.65616 0.017,7.31232 0.025,10.96848 -10.0833,0 -20.1667,0 -30.25,0 0.033,-21.61667 0.067,-43.23333 0.1,-64.85 z"
       id="path24" />
    <path
       d="m 1977.5,119.8 c 0.127,-21.189685 -0.257,-42.392703 0.4126,-63.573523 2.3788,-3.392584 9.5849,-0.792018 13.9203,-1.584119 5.3058,0.0312 10.6114,0.07235 15.9171,0.107642 0.2386,4.244006 -0.1643,8.594412 0.75,12.75 3.8247,-3.736933 8.5203,-6.989145 12.993,-9.839844 4.8314,-2.265353 9.9864,-4.631043 15.544,-4.349609 6.2916,-0.749853 12.6559,0.720702 17.0794,5.520898 3.136,3.31811 4.5253,7.247391 5.7704,11.618457 1.8997,8.022556 0.7818,16.36619 1.1883,24.534113 0.1707,29.838355 0.1318,59.677305 0.1749,89.515985 -10.0246,-0.1476 -20.0981,0.38313 -30.083,-0.44502 -0.3897,-4.67926 -0.056,-9.67427 -0.167,-14.47495 -0.084,-28.39608 0.2635,-56.80045 -0.4449,-85.1891 0.027,-5.030085 -4.0149,-10.278834 -9.4757,-8.886731 -4.6579,0.878006 -10.2814,2.891246 -12.6575,6.966113 -0.7947,17.944218 -0.2465,35.931798 -0.4219,53.892728 0,16.04565 0,32.09131 0,48.13696 -10.1667,0 -20.3333,0 -30.5,0 0,-21.56667 0,-43.13333 0,-64.7 z"
       id="path25" />
    <path
       d="m 1202,152.5 c 0,-5 0,-10 0,-15 9.6667,0 19.3333,0 29,0 0,10 0,20 0,30 -9.6667,0 -19.3333,0 -29,0 0,-5 0,-10 0,-15 z"
       id="path26" />
    <path
       d="m 1202.2,91.25 c -0.2401,-4.212743 -0.093,-8.444715 -0.1127,-12.665286 0.037,-5.528381 0.1101,-11.056463 0.1627,-16.584714 9.5002,-0.05729 19.0002,-0.140626 28.5,-0.25 0,9.916667 0,19.833333 0,29.75 -8.8534,0.05336 -17.7104,0.324115 -26.5614,0.013 -0.6542,-0.07479 -1.3782,-0.0023 -1.9886,-0.262999 z"
       id="path27" />
    <path
       d="m 1503.5,34.15 c -0.027,-8.300005 -0.066,-16.599907 -0.05,-24.9 10.0165,-0.1090784 20.0331,-0.1925816 30.05,-0.25 -0.035,7.832266 0.1071,15.668067 -0.1802,23.496777 0.1286,1.078474 -0.1936,1.936153 -1.4296,1.600386 -9.3554,0.117265 -18.7131,0.177638 -28.0688,0.07808 l -0.2393,-0.01191 z"
       id="path28" />
    <path
       d="m 1812.2,34.05 c -0.2586,-4.969599 -0.1768,-9.953955 -0.2,-14.930554 0,-3.373149 0,-6.746297 0,-10.119446 10.0002,0.057284 20.0002,0.1406185 30,0.25 -0,7.935262 0.1817,15.875044 -0.1331,23.806276 0.2291,1.629665 -1.921,0.874785 -2.9125,1.127183 -8.339,0.218407 -16.6861,0.253142 -25.0252,0.02686 -0.5752,-0.04161 -1.1683,-0.01727 -1.7292,-0.16032 z"
       id="path29"
       inkscape:label="path29" />
  </g>
  <g
     fill="#55ac77"
     id="g74">
    <path
       d="M706.10 312.70 c-0.90 -0.75 -2.20 -2.20 -2.90 -3.25 -0.75 -1.20 -1.75 -2.05 -2.60 -2.25 -5.65 -1.40 -9.50 -6.40 -10.70 -13.90 -1.40 -9 2.10 -16.95 8.75 -19.80 3.80 -1.65 9.30 -1.30 12.65 0.75 3.15 2 5.95 6 6.75 9.65 0.30 1.60 0.45 4.95 0.35 7.60 -0.20 3.90 -0.50 5.30 -1.60 7.50 -1.80 3.60 -4.35 6.20 -7.35 7.50 -1.35 0.55 -2.45 1.20 -2.45 1.45 0 0.65 2.20 2.45 3.75 3.05 0.80 0.30 3 0.55 4.85 0.60 3.25 0 3.40 0.10 3.40 1.20 0 1.20 -0.05 1.20 -5.60 1.20 -5.35 0 -5.75 -0.10 -7.30 -1.30z m1.90 -9.80 c4.05 -2.05 6 -6.40 6 -13.35 0 -4.60 -1.15 -8.10 -3.40 -10.50 -3.45 -3.65 -8.60 -3.90 -12.25 -0.65 -3.05 2.80 -4 5.45 -4.05 11.10 -0.05 5.85 0.95 9.05 3.60 11.65 3.20 3.10 6.35 3.65 10.10 1.75z"
       id="path30" />
    <path
       d="M733.75 307.05 c-2.25 -0.60 -3.45 -1.35 -5.15 -3.25 -2.70 -3.10 -3.10 -5.55 -3.10 -18.90 0 -7.55 0.20 -11.90 0.50 -11.95 0.65 -0.10 2.30 -0.10 3.15 0 0.45 0.05 0.60 2.85 0.60 12.20 0 11.50 0.05 12.20 1.10 14.35 1.45 2.95 3.60 4.20 6.95 4.15 3 0 5.20 -1.30 6.60 -3.80 0.70 -1.35 0.90 -3.50 1.10 -14.35 l0.25 -12.75 2 0 2 0 0.15 9.25 c0.15 10.15 -0.40 16.60 -1.70 19.10 -1.05 2.15 -3.10 4.30 -4.85 5.25 -1.65 0.85 -7.45 1.30 -9.60 0.70z"
       id="path31" />
    <path
       d="M789.25 306.60 c-2.20 -0.75 -6.25 -3.30 -6.25 -3.95 0 -0.15 0.45 -0.90 1.05 -1.70 l1 -1.45 1.65 1.25 c2.55 1.95 5 2.75 8.45 2.75 2.70 0 3.35 -0.20 4.80 -1.40 1.45 -1.20 1.70 -1.75 1.75 -3.70 0.05 -3.15 -1 -4.15 -7.20 -6.90 -5.85 -2.60 -8.70 -4.75 -9.50 -7.30 -0.90 -2.60 -0.35 -5.90 1.20 -7.95 2.15 -2.80 3.90 -3.50 9.05 -3.50 4.60 0 5.80 0.35 8.70 2.65 1.15 0.90 1.15 1 0.30 2.25 -1.05 1.60 -1.40 1.65 -3.20 0.40 -4.90 -3.50 -12 -2 -12.15 2.60 -0.10 2.65 1.40 4.05 7.55 6.95 6.30 3 7.80 4 8.85 6.05 1.05 1.95 1.05 6.25 0 8.20 -2.50 4.85 -9.65 6.95 -16.05 4.75z"
       id="path32" />
    <path
       d="M841.65 307 c-1.80 -0.40 -5.70 -2.60 -6.60 -3.70 -0.55 -0.65 -0.45 -1.05 0.45 -2.30 l1.05 -1.50 1.60 1.20 c2.95 2.20 4.70 2.80 7.95 2.80 4 0 6.10 -1.15 6.85 -3.80 0.40 -1.40 0.35 -2.25 -0.20 -3.50 -0.75 -1.80 -1.10 -2.05 -7.75 -5.05 -6.85 -3.15 -9 -5.50 -9 -9.90 0 -5.80 4.60 -9.10 12.05 -8.65 2.85 0.15 3.75 0.45 5.90 1.90 1.40 0.95 2.55 1.85 2.55 2 -0.05 0.15 -0.50 0.80 -1.05 1.45 l-1 1.20 -2.60 -1.45 c-3.35 -1.80 -7.55 -2 -9.65 -0.40 -1.85 1.35 -2.45 3.75 -1.45 5.70 0.85 1.65 1.25 1.95 7.60 4.80 5.35 2.45 7.05 3.65 8.25 5.85 1.05 1.95 1.15 5.80 0.20 8 -1.85 4.50 -8.65 6.90 -15.15 5.35z"
       id="path33" />
    <path
       d="M908.50 307.05 c-4.45 -1.40 -7.85 -4.95 -9.50 -10.05 -1.55 -4.85 -1.30 -11.95 0.55 -16 2.75 -5.90 6.65 -8.50 12.65 -8.50 7.95 0.05 13 4.90 14.40 13.75 1.85 11.75 -4.45 21.25 -14.10 21.20 -1.50 -0.05 -3.30 -0.20 -4 -0.40z m8.85 -4.85 c5.55 -4.10 6.90 -16.05 2.50 -21.80 -2.55 -3.30 -3.95 -4.10 -7.25 -4.15 -3.65 0 -6.40 1.65 -8.45 5.10 -1.30 2.25 -1.40 2.75 -1.40 8.20 0 5.45 0.10 5.95 1.50 8.70 2.05 4.05 4.30 5.35 8.60 5.10 2.20 -0.10 3.55 -0.45 4.50 -1.15z"
       id="path34" />
    <path
       d="M946 306.95 c-2 -0.60 -5 -3.25 -5 -4.45 0 -0.45 0.55 -1.15 1.25 -1.50 1.20 -0.65 1.40 -0.55 3 1 1.45 1.40 2.05 1.65 3.95 1.65 2.30 -0.05 4.45 -1.10 5.10 -2.55 0.25 -0.45 0.55 -7.05 0.70 -14.60 l0.25 -13.75 2 0 2 0 0 13.75 c0 13.65 0 13.75 -1.25 16.25 -0.75 1.50 -1.90 2.85 -2.90 3.40 -1.90 1.10 -6.65 1.55 -9.10 0.80z"
       id="path35" />
    <path
       d="M973.25 307.05 c-2.20 -0.55 -5.35 -2.30 -6.65 -3.65 l-1.10 -1.20 1.25 -1.20 c1.05 -1 1.45 -1.10 2.15 -0.60 3.05 2.15 5.70 3.10 8.65 3.10 4.90 0 6.95 -1.70 6.95 -5.75 0 -2.40 -1.35 -3.50 -8.10 -6.70 -7.55 -3.60 -8.90 -5.05 -8.90 -9.45 0 -5.70 3.80 -9.10 10.25 -9.10 4.05 0 6.20 0.70 8.45 2.65 l1.90 1.60 -1.25 1.15 -1.20 1.10 -2.25 -1.25 c-4.85 -2.70 -10.25 -2 -11.40 1.55 -1.05 3.10 0.40 5.35 4.65 7.20 11.25 4.95 13.05 6.95 12.10 13.30 -0.45 3.20 -3.70 6.40 -7.30 7.15 -2.80 0.60 -5.90 0.65 -8.20 0.10z"
       id="path36" />
    <path
       d="M1004 307.05 c-3.90 -1.25 -7.30 -4.35 -9.10 -8.30 -1 -2.20 -1.15 -3.30 -1.15 -8.75 0 -7.05 0.60 -9.25 3.55 -12.85 5 -6.10 15.45 -6.30 20.65 -0.35 2.30 2.60 3.40 5.05 4 9.20 1.35 8.85 -1.55 16.50 -7.45 19.70 -2.80 1.55 -7.95 2.20 -10.50 1.35z m7.70 -4.25 c6.15 -2.60 8.30 -16.40 3.50 -22.70 -2.65 -3.45 -6.95 -4.85 -10.50 -3.35 -3.80 1.60 -5.75 4.40 -6.75 9.85 -1.10 6.10 1.30 13.55 5.20 15.90 1.90 1.20 6.10 1.35 8.55 0.30z"
       id="path37" />
    <path
       d="M1061.85 306.60 c-1.30 -1.45 -1.10 -3.90 0.45 -4.90 2.75 -1.85 5.80 1.25 4.15 4.20 -0.95 1.70 -3.35 2.10 -4.60 0.70z"
       id="path38" />
    <path
       d="M1284 307.05 c-3.80 -1.15 -7.25 -4.35 -9.15 -8.45 -0.95 -2.05 -1.10 -3.25 -1.10 -8.85 0 -5.85 0.15 -6.75 1.25 -9 2.65 -5.35 7.10 -8.25 12.80 -8.25 4.35 0 7.75 1.50 10.30 4.50 2.45 2.85 3.25 4.65 3.95 8.95 1.60 9.55 -2.65 18.70 -9.60 20.75 -2.75 0.85 -6.35 0.95 -8.45 0.35z m7.65 -4.25 c2.10 -0.90 3.55 -2.50 4.90 -5.55 1.50 -3.35 1.65 -10.80 0.30 -14.35 -1.65 -4.30 -6.60 -7.45 -10.60 -6.70 -3.40 0.65 -6.70 3.95 -7.75 7.75 -0.75 2.75 -0.60 9.60 0.25 12.10 1.15 3.25 2.95 5.65 4.80 6.60 2.05 1 5.90 1.10 8.10 0.15z"
       id="path39" />
    <path
       d="M1385.75 307.05 c-2.90 -0.75 -7.25 -3.50 -7.25 -4.65 0 -0.20 0.50 -0.95 1.10 -1.65 1.05 -1.25 1.10 -1.25 2.10 -0.30 4.20 3.80 12.85 4.15 14.80 0.60 0.25 -0.55 0.50 -1.90 0.50 -3.05 0 -2.80 -1.30 -3.95 -7.75 -6.80 -7.10 -3.15 -9.25 -5.50 -9.25 -9.95 0 -5.80 4.60 -9.10 12.05 -8.65 2.85 0.15 3.75 0.45 5.90 1.90 1.40 0.95 2.55 1.85 2.55 2 -0.05 0.15 -0.50 0.80 -1.05 1.45 l-1 1.20 -2.60 -1.45 c-6.30 -3.45 -13.45 -0.35 -11.30 4.95 0.75 1.75 2.10 2.65 7.95 5.30 2.60 1.15 5.35 2.65 6.10 3.25 3.95 3.45 3.90 9.85 -0.05 13.45 -2.75 2.45 -8.25 3.50 -12.80 2.40z"
       id="path40" />
    <path
       d="M1600.75 306.80 c-2.75 -0.85 -4.80 -2 -5.95 -3.25 -0.90 -0.95 -0.90 -1.10 -0.10 -2.30 0.85 -1.30 2 -1.65 2.55 -0.75 0.20 0.30 1.40 1.10 2.75 1.75 4.25 2.15 10.55 1.50 12 -1.20 0.25 -0.55 0.50 -1.90 0.50 -3.05 0 -2.80 -1.55 -4.15 -7.55 -6.75 -5.95 -2.55 -8.90 -5.15 -9.30 -8.10 -0.90 -6.90 3.65 -11.05 11.45 -10.55 3.65 0.25 5.55 0.95 7.85 2.90 l1.25 1.05 -1.25 1.25 -1.25 1.25 -2.45 -1.40 c-4.75 -2.60 -10.35 -1.55 -11.35 2.15 -0.85 3.15 1.05 5.15 7.65 7.95 5.35 2.25 7.30 3.60 8.50 5.85 1.10 2.20 1.25 5.75 0.25 8.10 -1.90 4.60 -9.35 7.05 -15.55 5.10z"
       id="path41" />
    <path
       d="M1650.85 306.60 c-1.30 -1.45 -1.10 -3.90 0.45 -4.90 2.75 -1.85 5.80 1.25 4.15 4.20 -0.95 1.70 -3.35 2.10 -4.60 0.70z"
       id="path42" />
    <path
       d="M504.10 289.90 l0.15 -17.05 2.15 0 c1.20 0 2.35 0.20 2.60 0.45 0.25 0.25 2.25 5.60 4.50 11.90 2.25 6.35 4.25 11.80 4.45 12.20 0.25 0.45 1.40 -2.25 3.20 -7.50 1.60 -4.50 3.60 -10.15 4.50 -12.60 l1.60 -4.45 2.15 0.05 c1.15 0 2.35 0.05 2.60 0.05 0.30 0.05 0.50 6.10 0.50 17.05 l0 17 -2.35 0 -2.30 0 0.30 -13.10 c0.20 -7.25 0.45 -13.70 0.65 -14.40 0.25 -0.85 0.15 -1.10 -0.15 -0.75 -0.30 0.30 -2.50 5.95 -4.90 12.65 -4.30 11.75 -4.45 12.15 -5.70 12 -1.15 -0.15 -1.60 -1 -5.60 -11.85 -2.35 -6.45 -4.55 -12.05 -4.80 -12.50 -0.30 -0.50 -0.35 0.25 -0.10 2.25 0.20 1.60 0.40 8.05 0.40 14.35 l0.05 11.35 -2 0 -2 0 0.10 -17.10z"
       id="path43" />
    <path
       d="M537.05 306.15 c0 -0.50 2.55 -8.20 5.60 -17.15 l5.60 -16.20 2.15 -0.05 c1.15 -0.05 2.35 0.20 2.60 0.50 0.40 0.45 11.50 32.95 11.50 33.60 0 0.10 -1.05 0.15 -2.35 0.05 l-2.30 -0.15 -1.50 -5.10 -1.50 -5.15 -6.30 0 -6.35 0 -1.50 5.15 -1.55 5.10 -2.05 0.15 c-1.75 0.15 -2.10 0 -2.05 -0.75z m18.45 -13.55 c0 -0.25 -0.65 -2.30 -1.40 -4.65 -0.80 -2.30 -1.85 -5.70 -2.35 -7.55 -0.50 -1.90 -1.10 -3.40 -1.30 -3.40 -0.25 0 -0.45 0.30 -0.45 0.65 0 0.35 -1 3.85 -2.25 7.85 -1.25 4 -2.25 7.30 -2.25 7.35 0 0.10 2.25 0.15 5 0.15 2.75 0 5 -0.20 5 -0.40z"
       id="path44" />
    <path
       d="M569 290 l0 -17 1.50 0 c0.85 0 1.65 0 1.90 0 0.20 0 0.45 3.85 0.60 8.60 l0.25 8.55 7 -8.55 7 -8.60 2.45 0 c2.30 0 2.40 0.05 1.70 0.90 -3.55 4.15 -9.40 11.60 -9.40 11.90 0 0.50 10.45 18.70 11.35 19.75 1.05 1.25 0.80 1.45 -1.75 1.45 l-2.45 0 -4.90 -8.60 c-2.70 -4.75 -5 -8.75 -5.10 -8.90 -0.25 -0.25 -2.25 1.95 -4.70 5.20 -1.40 1.85 -1.45 2.15 -1.45 7.15 l0 5.15 -2 0 -2 0 0 -17z"
       id="path45" />
    <path
       d="M598.50 289.75 l0 -17.20 9.65 0.15 9.60 0.15 0.15 1.80 0.15 1.85 -7.80 0 -7.80 0 0.15 5.40 0.15 5.35 5 -0.15 c2.75 -0.10 5.70 -0.05 6.50 0.10 1.30 0.25 1.50 0.50 1.45 1.90 l-0.05 1.65 -6.60 0.15 -6.60 0.15 0.15 6.10 0.15 6.10 7.75 0 7.75 0 0.15 1.90 0.15 1.85 -10 0 -10.05 0 0 -17.25z"
       id="path46" />
    <path
       d="M635.10 289.90 l0.15 -17.15 5.90 0.05 c8.50 0.15 10.95 0.50 13 2.10 2.60 1.95 3.50 4.35 3.25 8.30 -0.15 2.70 -0.45 3.60 -1.70 5.15 -1.45 1.80 -2.85 2.75 -4.80 3.35 -0.75 0.20 -0.20 1.40 3.35 7.60 2.35 4.05 4.25 7.45 4.25 7.55 0 0.05 -1.05 0.15 -2.35 0.15 l-2.40 0 -2.75 -4.90 c-1.50 -2.65 -3.30 -5.90 -4 -7.20 l-1.20 -2.40 -3.15 0 -3.15 0 0 7.25 0 7.25 -2.25 0 -2.25 0 0.10 -17.10z m14.75 -2.05 c2.15 -1.15 3.40 -3.10 3.40 -5.40 0 -4.75 -3.70 -6.55 -12.35 -6.05 l-1.40 0.10 0 6.30 0 6.30 4.40 -0.20 c2.75 -0.15 4.95 -0.55 5.95 -1.05z"
       id="path47" />
    <path
       d="M665 306.65 c-0.25 -7.15 0.15 -33.45 0.50 -33.65 0.30 -0.15 4.60 -0.30 9.60 -0.25 l9.15 0.05 0.15 1.85 0.15 1.85 -7.80 0 -7.80 0 0.15 5.40 0.15 5.35 6.25 0.05 6.25 0.05 0.15 1.80 0.15 1.85 -6.55 0 -6.55 0 0.15 6.15 0.15 6.10 7.75 0 7.75 0 0.15 1.90 0.15 1.85 -10 0 c-5.55 0 -10.05 -0.15 -10.05 -0.35z"
       id="path48" />
    <path
       d="M758.60 289.90 l0.15 -17.10 9.50 -0.05 9.50 0 0.15 1.90 0.15 1.85 -7.50 0 c-4.10 0 -7.55 0.15 -7.65 0.40 -0.10 0.20 -0.05 2.60 0.10 5.30 l0.25 4.95 5.75 0.10 c3.15 0.05 6 0.15 6.25 0.20 0.30 0 0.50 0.80 0.45 1.65 l-0.05 1.65 -6.45 0.25 c-3.55 0.15 -6.40 0.40 -6.30 0.65 0.05 0.20 0.10 2.90 0.10 6 l0 5.60 4.85 -0.05 c2.70 -0.05 6.20 0 7.80 0.15 l2.85 0.30 0 1.65 0 1.70 -10 0 -10 0 0.10 -17.10z"
       id="path49" />
    <path
       d="M818.50 291.75 l0 -15.25 -5.25 0 -5.25 0 0 -1.95 0 -2 12.40 0.10 12.35 0.10 0.15 1.85 0.15 1.85 -5.05 0.15 -5.10 0.15 0.10 15.15 0.05 15.10 -2.30 0 -2.25 0 0 -15.25z"
       id="path50" />
    <path
       d="M881 291.75 l0 -15.25 -5.30 0 -5.25 0 0.15 -1.85 0.15 -1.90 11.75 -0.05 c6.45 -0.05 12.05 0.05 12.40 0.20 0.30 0.10 0.60 0.95 0.60 1.90 l0 1.70 -5.25 0 -5.25 0 0 15.25 0 15.25 -2 0 -2 0 0 -15.25z"
       id="path51" />
    <path
       d="M1029 290.05 l0 -16.95 2 -0.20 c1.15 -0.10 2.25 -0.05 2.45 0.10 0.35 0.20 4.75 7.80 14.60 25.25 l1.45 2.50 0 -13.80 0 -13.85 1.65 -0.25 c0.85 -0.10 1.75 -0.15 2 0 0.20 0.10 0.35 7.85 0.35 17.20 l0 17 -2.35 -0.15 -2.35 -0.15 -5.65 -9.75 c-3.15 -5.35 -6.55 -11.50 -7.65 -13.60 -1.10 -2.10 -2.15 -3.95 -2.35 -4.05 -0.25 -0.15 -0.35 6 -0.25 13.70 l0.15 13.95 -2 0 -2.05 0 0 -16.95z"
       id="path52" />
    <path
       d="M1070.25 306.15 c0.20 -0.50 2.85 -8.25 5.85 -17.20 l5.45 -16.30 2.30 0.10 c1.40 0.05 2.50 0.35 2.75 0.80 0.25 0.40 2.75 7.70 5.60 16.20 2.90 8.55 5.35 15.90 5.55 16.40 0.30 0.75 0.05 0.85 -2.05 0.85 l-2.45 0 -1.50 -5.25 -1.45 -5.25 -6.30 0 -6.30 0 -1.65 5.25 -1.60 5.25 -2.30 0 c-1.95 0 -2.20 -0.10 -1.90 -0.85z m18.60 -13.75 c-0.10 -0.35 -1.15 -3.80 -2.35 -7.65 -1.15 -3.85 -2.25 -7.15 -2.45 -7.40 -0.30 -0.30 -2.35 5.95 -4.90 14.80 -0.25 0.75 0.20 0.85 4.85 0.85 3.90 0 5.05 -0.15 4.85 -0.60z"
       id="path53" />
    <path
       d="M1102.35 290.15 c0.05 -9.30 0.10 -17.05 0.15 -17.25 0 -0.60 14.20 0.10 16.55 0.90 2.30 0.75 4.30 2.45 5.45 4.65 1.05 2.10 0.80 7.15 -0.55 9.50 -2.20 3.95 -5.95 5.50 -13.30 5.55 l-4.15 0 0 6.75 0 6.75 -2.10 0 -2.15 0 0.10 -16.85z m13.05 -0.70 c1.60 -0.30 2.95 -1 3.85 -1.95 1.20 -1.25 1.40 -1.90 1.45 -4.45 0.05 -3.20 -0.70 -4.50 -3.20 -5.80 -1.05 -0.55 -6.85 -1 -10.10 -0.80 -0.80 0.05 -0.90 0.75 -0.90 6.80 l0 6.75 3.25 0 c1.75 0 4.30 -0.25 5.65 -0.55z"
       id="path54" />
    <path
       d="M1131.60 289.90 l0.15 -17.15 2 0.05 2 0.05 0.15 17.05 0.10 17.10 -2.25 0 -2.25 0 0.10 -17.10z"
       id="path55" />
    <path
       d="M1154.60 289.95 l0.15 -17.10 9.50 0.10 c5.25 0 9.65 0.05 9.85 0.05 0.20 0 0.35 0.75 0.25 1.65 l-0.10 1.60 -7.65 0.15 -7.65 0.15 0.15 5.25 0.15 5.30 6.25 0.05 6.25 0.10 0.15 1.90 0.15 1.85 -6.55 0 -6.55 0 0.15 6.05 0.15 6.05 7.75 0.05 7.75 0.10 0.15 1.90 0.15 1.85 -10.30 0 -10.25 0 0.10 -17.05z"
       id="path56" />
    <path
       d="M1181.50 290.05 l0 -16.95 1.90 -0.25 c1.30 -0.15 2.10 0 2.65 0.60 0.75 0.75 12.20 20.60 14.40 24.95 0.60 1.15 1.15 2.10 1.25 2.10 0.05 0 0.05 -6.20 -0.10 -13.75 l-0.25 -13.75 1.60 -0.05 c0.85 -0.05 1.80 -0.10 2.10 -0.15 0.35 -0.05 0.55 5.45 0.60 17.10 l0.10 17.10 -2.25 0 -2.30 0 -7.05 -12.35 c-3.90 -6.85 -7.45 -13.25 -7.90 -14.25 -0.40 -1.05 -0.80 -1.90 -0.90 -1.90 -0.05 0 -0.05 6.40 0.10 14.25 l0.15 14.25 -2.05 0 -2.05 0 0 -16.95z"
       id="path57" />
    <path
       d="M1214.60 289.90 l0.15 -17.15 5 0.10 c8 0.20 10 0.55 12.60 2.30 4.90 3.30 7 8.50 6.55 16.45 -0.20 3.35 -0.60 5 -1.55 7 -3.05 6.20 -7.55 8.40 -17.10 8.40 l-5.75 0 0.10 -17.10z m12.10 13 c2.95 -0.90 6.45 -4.55 7.20 -7.50 0.75 -2.85 0.75 -8.50 0.10 -10.95 -1.40 -4.95 -4.85 -7.40 -11 -7.80 l-4 -0.30 0 13.60 0 13.55 2.80 0 c1.55 0 3.75 -0.30 4.90 -0.60z"
       id="path58" />
    <path
       d="M1246 289.85 l0 -17.25 7.10 0.20 c3.90 0.10 7.95 0.45 8.95 0.70 4.95 1.35 7.65 6.40 6.40 11.95 -1.20 5.45 -4.75 7.60 -13.10 7.95 l-5.40 0.25 0.10 6.55 0.05 6.55 -2.05 0.15 -2.05 0.15 0 -17.20z m15.30 -1 c4.40 -2.25 4.15 -10.35 -0.40 -11.75 -2.45 -0.80 -8.25 -1.15 -9.65 -0.60 -1.25 0.45 -1.25 0.55 -1.25 7.05 l0 6.60 4.90 -0.25 c3.05 -0.15 5.40 -0.55 6.40 -1.05z"
       id="path59" />
    <path
       d="M1309.10 289.90 l0.15 -17.05 2 -0.05 2 -0.05 0.15 17.15 0.10 17.10 -2.25 0 -2.25 0 0.10 -17.10z"
       id="path60" />
    <path
       d="M1322.35 290.20 c0.05 -9.20 0.25 -16.95 0.35 -17.15 0.15 -0.20 1.15 -0.25 2.25 -0.10 l2.05 0.30 6.05 10.50 c3.30 5.80 6.80 12 7.75 13.90 0.95 1.85 1.75 3.35 1.85 3.35 0.05 0 0.10 -6.35 0.10 -14.10 0 -13.65 0.05 -14.05 1 -14.20 0.55 -0.10 1.40 -0.05 1.90 0.10 0.80 0.25 0.85 1.50 0.85 17.25 l0 17 -2.30 -0.15 -2.25 -0.15 -5.80 -10 c-3.15 -5.50 -6.65 -11.75 -7.75 -13.85 -1.10 -2.15 -2.05 -3.90 -2.15 -3.90 -0.05 0 0 6.30 0.15 14 l0.25 14 -2.20 0 -2.20 0 0.10 -16.80z"
       id="path61" />
    <path
       d="M1362.50 291.75 l0 -15.25 -5.30 0 -5.25 0 0.15 -1.85 0.15 -1.90 12.25 0 12.25 0 0.15 1.85 0.15 1.85 -5.05 0.15 -5.10 0.15 0.10 15.15 0.05 15.10 -2.30 0 -2.25 0 0 -15.25z"
       id="path62" />
    <path
       d="M1421.30 306.40 c-0.40 -1.20 -6.80 -32.65 -6.80 -33.20 0 -0.50 3.80 -0.65 4.20 -0.15 0.10 0.20 1.10 5.35 4.10 21.40 0.60 3.40 1.35 6.40 1.60 6.65 0.30 0.30 0.60 -0.45 0.85 -1.95 0.40 -2.85 5.55 -23.95 6.20 -25.40 0.30 -0.70 0.85 -1 2 -0.95 0.90 0 1.80 0.25 2 0.50 0.35 0.35 6.40 24.45 7.20 28.45 0.15 0.70 0.30 0.45 0.50 -0.75 0.85 -4.25 3.50 -18.65 4.20 -22.75 0.45 -2.45 1 -4.75 1.20 -5.05 0.25 -0.25 1.20 -0.40 2.20 -0.30 1.55 0.20 1.80 0.35 1.55 1.30 -0.10 0.55 -1.60 7.90 -3.30 16.30 -1.70 8.40 -3.15 15.55 -3.25 15.90 -0.15 0.35 -1.20 0.60 -2.85 0.60 l-2.65 0 -3.15 -13.15 c-1.75 -7.20 -3.15 -13.40 -3.10 -13.70 0 -0.35 -0.20 -0.65 -0.45 -0.65 -0.20 0 -0.80 1.75 -1.25 3.90 -0.45 2.10 -1.90 8.25 -3.20 13.60 l-2.40 9.75 -2.60 0.15 c-1.80 0.10 -2.65 -0.05 -2.80 -0.50z"
       id="path63" />
    <path
       d="M1458.10 289.90 l0.15 -17.10 1.65 0.05 c0.85 0.05 1.85 0.10 2.10 0.10 0.30 0.05 0.50 6.10 0.50 17.05 l0 17 -2.25 0 -2.25 0 0.10 -17.10z"
       id="path64" />
    <path
       d="M1478 291.75 l0 -15.25 -5.05 0 -5 0 0.15 -1.85 c0.10 -1.15 0.40 -1.90 0.80 -1.85 0.30 0.05 5.90 0.10 12.35 0.15 l11.75 0.05 0 1.75 0 1.75 -5.25 0 -5.25 0 0 15.25 0 15.25 -2.25 0 -2.25 0 0 -15.25z"
       id="path65" />
    <path
       d="M1498.50 306.65 c-0.15 -3.95 0.10 -33.40 0.25 -33.65 0.10 -0.20 1.05 -0.20 2 -0.05 l1.85 0.30 0.05 6.95 0.10 6.90 7.75 0.10 7.75 0.05 0.25 -7.20 0.25 -7.20 2 0 2 0 0.15 17.05 0.10 17.10 -2.25 0 -2.25 0 0 -8 0 -8 -8 0 -8.05 0 0.10 7.90 0.05 7.85 -2.05 0.15 c-1.15 0.10 -2.05 0 -2.05 -0.25z"
       id="path66" />
    <path
       d="M1541.60 289.95 l0.15 -17.05 9.75 0 9.75 0 0.15 1.80 0.15 1.80 -7.80 0 -7.80 0 0.15 5.40 0.15 5.35 6.25 0 6.25 0 0.15 1.90 0.15 1.85 -6.55 0 -6.55 0 0.15 6.10 0.15 6.05 7.25 0 c3.95 0 7.50 0.05 7.80 0.20 0.35 0.10 0.60 1 0.60 1.95 l0 1.70 -10.20 0 -10.20 0 0.10 -17.05z"
       id="path67" />
    <path
       d="M1564.25 306 c0.15 -0.55 2.75 -8.25 5.70 -17.10 l5.40 -16.15 2.35 -0.05 c1.25 -0.05 2.45 0.15 2.60 0.35 0.30 0.50 11.20 32.35 11.35 33.20 0.05 0.30 -0.90 0.55 -2.15 0.65 l-2.30 0.15 -1.60 -5.30 -1.60 -5.25 -6.20 0 -6.20 0 -1.60 5.25 -1.65 5.25 -2.20 0 c-2 0 -2.20 -0.10 -1.90 -1z m18.50 -13.85 c-0.20 -0.50 -1.25 -3.80 -2.30 -7.40 -2.35 -7.85 -2.40 -7.95 -2.75 -7.60 -0.30 0.30 -4.70 14.75 -4.70 15.45 0 0.20 2.25 0.40 5.05 0.40 4.60 0 5.05 -0.10 4.70 -0.85z"
       id="path68" />
    <path
       d="M1623.40 290.15 c0.10 -12.10 0.30 -16.95 0.70 -17.20 0.35 -0.20 4.65 -0.30 9.60 -0.25 l9.05 0.15 0.15 1.80 0.15 1.85 -7.75 0 -7.80 0 0 5.25 0 5.25 2.90 0.05 c1.55 0 4.45 0.05 6.35 0.10 l3.50 0.10 0.15 1.90 0.15 1.85 -6.50 0 -6.55 0 0 6 0 6 2.40 0.05 c2.95 0 12.70 0.35 13.25 0.40 0.20 0.05 0.35 0.85 0.35 1.80 l0 1.75 -10.10 0 -10.15 0 0.15 -16.85z"
       id="path69" />
    <path
       d="M42.50 293.75 l0 -3.75 219.50 0 219.50 0 0 3.75 0 3.75 -219.50 0 -219.50 0 0 -3.75z"
       id="path70" />
    <path
       d="M1678.50 293.75 l0 -3.75 219.45 0 219.45 0 0.20 3.75 0.15 3.75 -219.60 0 -219.65 0 0 -3.75z"
       id="path71" />
    <path
       d="M1652.70 296.65 c-0.95 -0.20 -1.10 -0.65 -1.40 -5.50 -0.15 -2.90 -0.30 -8.40 -0.30 -12.25 l0 -6.90 2.05 0 2.05 0 -0.35 12.15 c-0.20 6.65 -0.50 12.20 -0.70 12.40 -0.15 0.15 -0.75 0.15 -1.35 0.10z"
       id="path72" />
    <path
       d="M1063 288.65 c-2.05 -0.70 -2.70 -3.90 -1.10 -5.30 2 -1.80 5.10 -0.45 5.10 2.20 0 2.20 -2.05 3.75 -4 3.10z"
       id="path73" />
    <path
       d="m 5.1,183.75 c 0.05,-12.95 0.1,-25.9 0.15,-38.85 13.499903,-0.0762 26.999903,-0.12614 40.5,-0.15 0.167034,11.91666 0.333699,23.83333 0.5,35.75 28.471146,-22.20622 57.37121,-43.88157 85.6625,-66.3 C 127.93808,108.8592 118.09272,103.47662 112,98 102.70982,90.624983 93.155202,83.604599 83.85,76.2 71.715883,66.907818 59.619938,57.633097 47.63125,48.285938 44.414047,51.235373 46.673662,62.576122 46,69.091352 46,73.727568 46,78.363784 46,83 32.333333,83 18.666667,83 5,83 5,56.966667 5,30.933333 5,4.9 31.306427,5.2325229 57.655537,4.8376055 83.928906,5.8210938 102.17823,7.9421872 120.48439,13.916753 135.2,24.8 c 17.99351,13.303701 31.85418,32.585291 37.95625,54.29375 5.46969,16.823555 5.52813,34.8427 3.84062,52.27695 -4.44334,32.54542 -23.63695,63.66342 -53.33789,78.73692 -16.66224,9.23274 -35.976133,12.67775 -54.909314,12.09094 C 47.500125,222.36583 26.249866,222.42948 5,222.55 c 0.033333,-12.93333 0.066667,-25.86667 0.1,-38.8 z"
       id="path74" />
  </g>
</svg>
