<?xml version="1.0" encoding="UTF-8" standalone="no"?>
<svg
   version="1.0"
   width="218px"
   height="218px"
   viewBox="0 0 218 218"
   preserveAspectRatio="xMidYMid meet"
   id="svg2"
   sodipodi:docname="FreeSample-Vectorizer-io-DotNet JsonApi Client logo.svg"
   inkscape:version="1.4 (e7c3feb1, 2024-10-09)"
   xmlns:inkscape="http://www.inkscape.org/namespaces/inkscape"
   xmlns:sodipodi="http://sodipodi.sourceforge.net/DTD/sodipodi-0.dtd"
   xmlns="http://www.w3.org/2000/svg"
   xmlns:svg="http://www.w3.org/2000/svg">
  <defs
     id="defs2" />
  <sodipodi:namedview
     id="namedview2"
     pagecolor="#ffffff"
     bordercolor="#000000"
     borderopacity="0.25"
     inkscape:showpageshadow="2"
     inkscape:pageopacity="0.0"
     inkscape:pagecheckerboard="0"
     inkscape:deskcolor="#d1d1d1"
     inkscape:zoom="4.6284404"
     inkscape:cx="62.548067"
     inkscape:cy="93.444004"
     inkscape:window-width="1200"
     inkscape:window-height="1186"
     inkscape:window-x="0"
     inkscape:window-y="25"
     inkscape:window-maximized="0"
     inkscape:current-layer="svg2" />
  <g
     fill="#fefefe"
     id="g1"
     transform="translate(-0.2160555,-0.432111)">
    <path
       d="M 0,109 C 0,72.666667 0,36.333333 0,0 c 72.666667,0 145.33333,0 218,0 0,72.666667 0,145.33333 0,218 -72.66667,0 -145.333333,0 -218,0 0,-36.33333 0,-72.66667 0,-109 z"
       id="path1" />
  </g>
  <g
     fill="#54ac77"
     id="g2">
    <path
       d="M 0.55,217.57 C -0.79218028,215.35422 0.41920398,211.01009 0.01218445,208.01486 0.03439538,185.29988 0.08095262,162.58494 0.13,139.87 c 13.586667,0 27.173333,0 40.76,0 0.265926,11.70757 -0.149343,23.43062 0.38,35.13 12.327228,-8.60977 24.399829,-18.61765 36.63,-27.76 16.409691,-12.82573 33.09836,-25.30833 49.39,-38.26 C 120.87463,103.1897 112.905,97.817894 105.955,92.115 84.410884,75.483076 62.785415,58.961905 41.29,42.22 c -0.60699,11.880311 -0.20888,23.836299 -0.32,35.75 -13.666667,0 -27.333333,0 -41,0 0,-26 0,-52 0,-78 27.130602,0.37006697 54.317321,-0.66563663 81.395156,1.2815625 23.439484,2.5048693 46.084904,13.0885025 62.300624,30.3270315 21.81912,22.344634 31.39309,54.720516 29.22484,85.525936 -1.76209,36.51099 -22.56589,72.79002 -56.02187,88.93422 -17.816304,9.46263 -38.333266,11.9826 -58.265898,11.26809 C 39.300601,217.36801 19.583478,217.59145 0.55,217.57 Z"
       id="path2" />
  </g>
</svg>
